<svg xmlns="http://www.w3.org/2000/svg" xmlns:xlink="http://www.w3.org/1999/xlink" width="756.823" height="554.857" viewBox="0 0 756.823 554.857"><defs><linearGradient id="a" x1="16.614" y1="1" x2="16.614" gradientUnits="objectBoundingBox"><stop offset="0" stop-color="gray" stop-opacity="0.251"/><stop offset="0.54" stop-color="gray" stop-opacity="0.122"/><stop offset="1" stop-color="gray" stop-opacity="0.102"/></linearGradient></defs><g transform="translate(-4754.177 -3487)"><g transform="translate(4754.177 3487)"><path d="M326.629,549.642c25.031-9.845,64.323-11.852,100.088-11.064,112.342,2.459,213.749,26.386,301.461,53.453,31.756,9.8,63.018,20.363,83.632,33.857,41.96,27.469,29.512,65.521-28.831,88.15-19.854,7.7-43.917,13.623-68.625,18.829-43.939,9.307-91.319,16.771-141.18,18.922-35.549,1.513-71.544.28-106.885-1.836-98.754-5.93-195.68-18.958-276.925-41.35-35.636-9.8-69.22-21.991-83.891-37.858s-5.292-35.958,31.1-45.351c15.057-3.879,33.04-5.636,50.657-7.278,25.927-2.423,52.27-4.818,75.666-9.744,24.171-5.091,52.786-14.935,48-26.2C305.742,570.084,301.627,559.473,326.629,549.642Z" transform="translate(-79.768 -197.603)" fill="#505668" opacity="0.1"/><path d="M574.542,92.873l-2.732,158.46s98.89,0,183.025,27.318l1.642-160.123S621.528,86.319,574.542,92.873Z" transform="translate(-213.612 -71.269)" opacity="0.1"/><path d="M572.542,89.873l-2.732,158.46s98.89,0,183.025,27.318l1.642-160.123S619.528,83.319,572.542,89.873Z" transform="translate(-213.046 -70.42)" fill="#ebe9eb"/><path d="M445.075,92.7l2.732,158.46s-98.89,0-183.025,27.318L263.14,118.4S398.089,86.15,445.075,92.7Z" transform="translate(-126.262 -71.221)" opacity="0.1"/><path d="M447.075,89.7l2.732,158.46s-98.89,0-183.025,27.318L265.14,115.4S400.089,83.15,447.075,89.7Z" transform="translate(-126.828 -70.372)" fill="#ebe9eb"/><path d="M862.65,160.51v156.8s32.266-3.822,99.98,79.768l6.016-156.8S898.164,164.339,862.65,160.51Z" transform="translate(-295.916 -90.659)" opacity="0.1"/><path d="M860.65,158.51v156.8s32.266-3.822,99.98,79.768l6.016-156.8S896.164,162.339,860.65,158.51Z" transform="translate(-295.35 -90.093)" fill="#ebe9eb"/><path d="M190.469,167V323.811s-32.266-3.822-99.98,79.768l-6.009-156.8S154.955,170.836,190.469,167Z" transform="translate(-75.704 -92.495)" opacity="0.1"/><path d="M192.469,164V320.811s-32.266-3.822-99.98,79.768l-6.009-156.8S156.955,167.836,192.469,164Z" transform="translate(-76.27 -91.646)" fill="#ebe9eb"/><path d="M649.461,532.3c0,5.342-33.922,36.209-111.137,36.209S419.3,538.715,419.3,533.373s43.243,7.887,120.458,7.887S649.461,526.949,649.461,532.3Z" transform="translate(-170.453 -195.531)" fill="#f7f7fd"/><ellipse cx="8.217" cy="1.126" rx="8.217" ry="1.126" transform="translate(218.438 260.943)" fill="#6c63ff" opacity="0.1"/><ellipse cx="8.217" cy="1.126" rx="8.217" ry="1.126" transform="translate(186.968 264.133)" fill="#6c63ff" opacity="0.1"/><ellipse cx="8.217" cy="1.126" rx="8.217" ry="1.126" transform="translate(149.913 259.817)" fill="#6c63ff" opacity="0.1"/><ellipse cx="5.836" cy="0.803" rx="5.836" ry="0.803" transform="translate(201.947 273.54)" fill="#6c63ff" opacity="0.1"/><ellipse cx="5.836" cy="0.803" rx="5.836" ry="0.803" transform="translate(169.287 272.737)" fill="#6c63ff" opacity="0.1"/><path d="M330.429,408.072s11.515-37.765-1.807-52.887c-9.967-11.314-21.3-9.988-26.314-8.554a9.364,9.364,0,0,0-6.044,5.019c-1.771,3.822-1.434,10.038,11.056,17.266,20.93,12.117,22.227,28.745,22.227,28.745Z" transform="translate(-135.416 -143.064)" fill="#7f39fb"/><path d="M307.48,354.46s33.958,10.619,26.343,56.092" transform="translate(-138.81 -145.544)" fill="none" stroke="#565987" stroke-miterlimit="10" stroke-width="1"/><path d="M333.766,359.77s-4.675,3.148-3.191,7.887" transform="translate(-145.263 -147.047)" fill="none" stroke="#565987" stroke-miterlimit="10" stroke-width="1"/><path d="M312.23,362.974s2.868-2.911,6.331-1.3" transform="translate(-140.154 -147.447)" fill="none" stroke="#565987" stroke-miterlimit="10" stroke-width="1"/><path d="M331,383.69s5.019-2.545,6.317.645" transform="translate(-145.466 -153.544)" fill="none" stroke="#565987" stroke-miterlimit="10" stroke-width="1"/><path d="M346.756,391.473s-3.771-.3-3.836,1.5" transform="translate(-148.839 -156.013)" fill="none" stroke="#565987" stroke-miterlimit="10" stroke-width="1"/><path d="M336.829,422.511s-13.494-27.447-17.208-26.845c-1.757.287-2.567,2.015-2.94,3.757a11.042,11.042,0,0,0,.717,6.683C319.341,410.494,324.482,418.847,336.829,422.511Z" transform="translate(-141.35 -157.202)" fill="#7f39fb"/><path d="M321,402.93s14.161,20.535,16.9,21.439" transform="translate(-142.636 -159.26)" fill="none" stroke="#565987" stroke-miterlimit="10" stroke-width="1"/><line x2="3.305" transform="translate(177.081 246.875)" fill="none" stroke="#565987" stroke-miterlimit="10" stroke-width="1"/><line x2="5.177" y2="0.222" transform="translate(181.039 254.389)" fill="none" stroke="#565987" stroke-miterlimit="10" stroke-width="1"/><line x1="0.566" y2="2.696" transform="translate(183.627 248.38)" fill="none" stroke="#565987" stroke-miterlimit="10" stroke-width="1"/><line x1="0.1" y2="2.452" transform="translate(189.6 256.59)" fill="none" stroke="#565987" stroke-miterlimit="10" stroke-width="1"/><path d="M344.31,422.511s13.487-27.447,17.208-26.845c1.764.287,2.574,2.015,2.94,3.757a11.092,11.092,0,0,1-.717,6.683C361.8,410.494,356.657,418.847,344.31,422.511Z" transform="translate(-149.232 -157.202)" fill="#7f39fb"/><path d="M361.483,402.93s-14.161,20.535-16.893,21.439" transform="translate(-149.311 -159.26)" fill="none" stroke="#565987" stroke-miterlimit="10" stroke-width="1"/><line x1="3.305" transform="translate(210.171 246.875)" fill="none" stroke="#565987" stroke-miterlimit="10" stroke-width="1"/><line x1="5.184" y2="0.222" transform="translate(204.334 254.389)" fill="none" stroke="#565987" stroke-miterlimit="10" stroke-width="1"/><line x2="0.566" y2="2.696" transform="translate(206.364 248.38)" fill="none" stroke="#565987" stroke-miterlimit="10" stroke-width="1"/><line x2="0.1" y2="2.452" transform="translate(203.402 256.59)" fill="none" stroke="#565987" stroke-miterlimit="10" stroke-width="1"/><path d="M311.684,440.585a2.337,2.337,0,0,1-.767-1.162,1.018,1.018,0,0,1,.538-1.176c.488-.194,1.018.151,1.434.495a1.893,1.893,0,0,0,1.377.667,2.108,2.108,0,0,1-.652-1.965.9.9,0,0,1,.186-.4c.272-.294.767-.165,1.1.065a4.079,4.079,0,0,1,1.334,3.42,6.138,6.138,0,0,0,0-1.434,1.434,1.434,0,0,1,.531-1.248,1.621,1.621,0,0,1,.8-.194,1.678,1.678,0,0,1,1.312.373,1.319,1.319,0,0,1-.05,1.613,5.127,5.127,0,0,1-1.355,1.083,2.918,2.918,0,0,0-.968.925.672.672,0,0,0-.072.165h-2.94A8.532,8.532,0,0,1,311.684,440.585Z" transform="translate(-139.773 -168.865)" fill="#7f39fb"/><path d="M383.384,425.167a2.323,2.323,0,0,1-.767-1.154,1.025,1.025,0,0,1,.538-1.183,1.506,1.506,0,0,1,1.434.5,1.857,1.857,0,0,0,1.377.66,2.1,2.1,0,0,1-.652-1.965.8.8,0,0,1,.186-.394c.272-.294.767-.172,1.1.057a4.085,4.085,0,0,1,1.334,3.427,6.193,6.193,0,0,0,0-1.434,1.434,1.434,0,0,1,.531-1.248,1.542,1.542,0,0,1,.8-.186,1.649,1.649,0,0,1,1.312.373,1.3,1.3,0,0,1-.05,1.606,5.126,5.126,0,0,1-1.355,1.083,2.989,2.989,0,0,0-.968.925.675.675,0,0,0-.072.165h-2.94a8.273,8.273,0,0,1-1.807-1.233Z" transform="translate(-160.063 -164.504)" fill="#7f39fb"/><path d="M359.484,440.585a2.337,2.337,0,0,1-.767-1.162,1.025,1.025,0,0,1,.538-1.176c.495-.194,1.018.151,1.434.495a1.9,1.9,0,0,0,1.377.667,2.1,2.1,0,0,1-.645-1.965.817.817,0,0,1,.179-.4c.272-.294.767-.165,1.1.065a4.084,4.084,0,0,1,1.341,3.42,6.58,6.58,0,0,0,0-1.434,1.434,1.434,0,0,1,.531-1.248,2.151,2.151,0,0,1,2.115.179,1.305,1.305,0,0,1-.05,1.613,5.018,5.018,0,0,1-1.355,1.083,3.054,3.054,0,0,0-.968.925,1.15,1.15,0,0,0-.072.165h-2.933A8.4,8.4,0,0,1,359.484,440.585Z" transform="translate(-153.3 -168.865)" fill="#7f39fb"/><path d="M291.029,410.89s-1.1,1.434.509,3.585,2.94,4.008,2.4,5.363c0,0-2.431-4.037-4.4-4.094S288.878,413.314,291.029,410.89Z" transform="translate(-133.458 -161.513)" fill="#7f39fb"/><path d="M291.031,410.89a1.692,1.692,0,0,0-.222.452c-1.929,2.259-2.954,4.374-1.1,4.424,1.728.05,3.8,3.141,4.3,3.915a1.319,1.319,0,0,1-.057.179s-2.431-4.037-4.4-4.094S288.88,413.314,291.031,410.89Z" transform="translate(-133.46 -161.513)" opacity="0.1"/><path d="M289.18,413.312c0,.509.057.918.129.918s.122-.409.122-.918-.064-.265-.136-.265S289.18,412.81,289.18,413.312Z" transform="translate(-133.631 -162.107)" fill="#ffd037"/><path d="M288.1,414.154c.445.244.832.387.868.323s-.3-.308-.717-.545-.272-.072-.3,0S287.655,413.946,288.1,414.154Z" transform="translate(-133.253 -162.339)" fill="#ffd037"/><path d="M298.946,410.89s1.1,1.434-.509,3.585-2.933,4.008-2.395,5.363c0,0,2.424-4.037,4.4-4.094S301.118,413.314,298.946,410.89Z" transform="translate(-135.538 -161.513)" fill="#7f39fb"/><path d="M298.966,410.89a1.693,1.693,0,0,1,.222.452c1.929,2.259,2.954,4.374,1.1,4.424-1.728.05-3.793,3.141-4.3,3.915a1.31,1.31,0,0,0,.057.179s2.424-4.037,4.4-4.094S301.138,413.314,298.966,410.89Z" transform="translate(-135.558 -161.513)" opacity="0.1"/><path d="M302.9,413.312c0,.509-.05.918-.122.918s-.129-.409-.129-.918.072-.265.143-.265S302.9,412.81,302.9,413.312Z" transform="translate(-137.443 -162.107)" fill="#ffd037"/><path d="M303.66,414.154c-.445.244-.832.387-.86.323s.294-.308.717-.545.272-.072.308,0S304.083,413.946,303.66,414.154Z" transform="translate(-137.485 -162.339)" fill="#ffd037"/><path d="M297.99,422.487s-3.083-.093-4.008-.753-4.732-1.434-4.962-.394-4.625,5.27-1.154,5.3,8.074-.545,9-1.1S297.99,422.487,297.99,422.487Z" transform="translate(-132.883 -164.326)" fill="rgba(80,86,104,0.5)"/><path d="M287.809,426.916c3.47,0,8.074-.538,9-1.1.717-.43.982-1.972,1.076-2.682h.108s-.2,2.481-1.126,3.047-5.521,1.133-9,1.1c-1,0-1.348-.366-1.326-.9C286.676,426.715,287.063,426.909,287.809,426.916Z" transform="translate(-132.884 -164.977)" opacity="0.2"/><ellipse cx="24.895" cy="3.678" rx="24.895" ry="3.678" transform="translate(115.045 352.24)" fill="#505668" opacity="0.1"/><ellipse cx="24.895" cy="3.678" rx="24.895" ry="3.678" transform="translate(184.581 382.699)" fill="#505668" opacity="0.1"/><ellipse cx="24.895" cy="3.678" rx="24.895" ry="3.678" transform="translate(82.292 417.352)" fill="#6c63ff" opacity="0.1"/><ellipse cx="24.895" cy="3.678" rx="24.895" ry="3.678" transform="translate(609.762 493.47)" fill="#6c63ff" opacity="0.1"/><ellipse cx="16.484" cy="1.843" rx="16.484" ry="1.843" transform="translate(335.634 410.669)" fill="#6c63ff" opacity="0.1"/><ellipse cx="16.484" cy="1.843" rx="16.484" ry="1.843" transform="translate(571.531 316.023)" fill="#6c63ff" opacity="0.1"/><ellipse cx="16.484" cy="1.843" rx="16.484" ry="1.843" transform="translate(443.179 455.841)" fill="#6c63ff" opacity="0.1"/><ellipse cx="16.484" cy="1.843" rx="16.484" ry="1.843" transform="translate(300.895 443.68)" fill="#6c63ff" opacity="0.1"/><ellipse cx="16.484" cy="1.843" rx="16.484" ry="1.843" transform="translate(167.552 438.898)" fill="#6c63ff" opacity="0.1"/><ellipse cx="16.484" cy="1.843" rx="16.484" ry="1.843" transform="translate(132.805 471.909)" fill="#6c63ff" opacity="0.1"/><g transform="translate(253.988 123.047)" opacity="0.1"><ellipse cx="109.072" cy="48.678" rx="109.072" ry="48.678" transform="translate(1.757)"/><path d="M648.264,326.6c-4.825,25.382-52.507,45.308-110.628,45.308-58.63,0-106.641-20.277-110.757-45.968h-.409V367.3c19.173,20.033,61.62,33.965,110.893,33.965s91.72-13.932,110.9-33.965Z" transform="translate(-426.47 -260.52)"/><path d="M648.264,396.8c-4.825,25.375-52.507,45.308-110.628,45.308-58.63,0-106.641-20.277-110.757-45.975h-.409V437.5c19.173,20.033,61.62,33.958,110.893,33.958s91.72-13.924,110.9-33.958Z" transform="translate(-426.47 -280.383)"/><path d="M648.264,474.01c-4.825,25.382-52.507,45.308-110.628,45.308-58.63,0-106.641-20.27-110.757-45.968h-.409v44.613a6.876,6.876,0,0,0,2.208,5.062c20.076,18.434,61.226,25.655,108.685,25.655s88.587-7.22,108.692-25.655a6.876,6.876,0,0,0,2.208-5.062Z" transform="translate(-426.47 -302.235)"/></g><ellipse cx="109.072" cy="48.678" rx="109.072" ry="48.678" transform="translate(255.744 120.179)" fill="#7f39fb"/><path d="M648.264,322.6c-4.825,25.382-52.507,45.308-110.628,45.308-58.63,0-106.641-20.277-110.757-45.968h-.409V363.3c19.173,20.033,61.62,33.965,110.893,33.965s91.72-13.932,110.9-33.965Z" transform="translate(-172.482 -136.341)" fill="#7f39fb"/><path d="M648.264,392.8c-4.825,25.375-52.507,45.308-110.628,45.308-58.63,0-106.641-20.277-110.757-45.975h-.409V433.5c19.173,20.033,61.62,33.958,110.893,33.958s91.72-13.924,110.9-33.958Z" transform="translate(-172.482 -156.204)" fill="#7f39fb"/><path d="M648.264,470.01c-4.825,25.382-52.507,45.308-110.628,45.308-58.63,0-106.641-20.27-110.757-45.968h-.409v44.612a6.876,6.876,0,0,0,2.208,5.062c20.076,18.434,61.226,25.655,108.685,25.655s88.587-7.22,108.692-25.655a6.877,6.877,0,0,0,2.208-5.062Z" transform="translate(-172.482 -178.056)" fill="#7f39fb"/><ellipse cx="40.87" cy="7.357" rx="40.87" ry="7.357" transform="translate(484.722 402.237)" fill="#6c63ff" opacity="0.1"/><path d="M772.82,461.763c2.065,1.219,5.306,2.015,9.386-.609l-.036,5.815c.287,3.987,5.22,18.52,5.22,18.52l3.478,11.953a93.263,93.263,0,0,1,3.822,26.013,24.909,24.909,0,0,0,1.111,8.188c1.857,5.019-.717,11.472-1.843,13.853a57.438,57.438,0,0,1-5.736,1.613,4.163,4.163,0,0,0-.509.158v-.036s-5.22,2.072-7.543,1.785c-1.728-.208-2.811,1.95-1.434,3.535a10.668,10.668,0,0,1-3.47.459c-2.323-.287-3.485,3.7.867,4.84s29.01,0,29.01,0a3.492,3.492,0,0,0,1.85-3.857l3.083-.129s4.352-1.993,0-7.407l-.237.172-.925-2.739V540.2s5.514-26.529,3.772-29.634-2.667-19.123-2.667-19.123l.609-17.352c1.57-3.241,2.373-8.332,2.782-12.311a25.814,25.814,0,0,0,1.111-5.836c.072-.939.129-1.914.165-2.933a19.557,19.557,0,0,0-1.061-6.568,66,66,0,0,1,6.575-8.246,8.475,8.475,0,0,0,2.617-7.407l-1.434-9.687L817.9,404.61c.437-4.582-.516-7.22-1.577-8.712.251-1.484.488-2.961.667-4.453a57.075,57.075,0,0,0-1.018-19.359,13.08,13.08,0,0,0-2.746-6.159c-1.757-1.907-4.61-3.062-5.27-5.55a14.822,14.822,0,0,0-.4-1.879c-.638-1.628-2.646-2.223-4.41-2.438-3.141-.38-7.679-.667-10.7.566a12.971,12.971,0,0,0-6.2,5.75,4.94,4.94,0,0,0-.717,3.549,4.731,4.731,0,0,0,.495,1.219,11.035,11.035,0,0,0,6.41,14.125c.072.222.136.437.186.645a11.053,11.053,0,0,1,.287,1.556c-.057,1-.122,2.015-.165,3.026l-.107.409a75.372,75.372,0,0,0-7.292,3.714c1.735,2.567-.294,13.394-.294,13.394-4.352,2.56-8.7,9.113-4.058,15.954a17.069,17.069,0,0,1,2.029,14.24l-.717,11.142h0l-.143,2.23h.05l-.05.846h.122v.911a13.524,13.524,0,0,0-6.79,5.055,17.877,17.877,0,0,1-3.033,3.721,2.237,2.237,0,0,0,.358,3.65Zm35.026-29.6a10.591,10.591,0,0,1,1.032-5.607h2.051a13.323,13.323,0,0,0,.251,1.348C811.768,430.451,809.416,431.649,807.846,432.165Z" transform="translate(-270.172 -145.905)" fill="url(#a)"/><path d="M813.777,615.461l1.119,3.349-3.628,3.628-12,2.825-8.654-.839.559-3.069h0a3.707,3.707,0,0,1,2.746-2.71c3.585-.832,10.339-2.739,11.766-5.385Z" transform="translate(-275.529 -218.781)" fill="#db8b8b"/><path d="M813.777,615.461l1.119,3.349-3.628,3.628-12,2.825-8.654-.839.559-3.069h0a3.707,3.707,0,0,1,2.746-2.71c3.585-.832,10.339-2.739,11.766-5.385Z" transform="translate(-275.529 -218.781)" opacity="0.1"/><path d="M790.85,625.416l1.678-2.23L790.85,620.6s-5.019,2.029-7.256,1.75-3.348,3.628.839,4.747,27.913,0,27.913,0,4.187-1.957,0-7.263l-3.628,2.8s-6.145,3.348-9.214,2.789Z" transform="translate(-272.981 -220.64)" fill="#c17174"/><path d="M784,629.834l8.654.839,12-2.8,3.628-3.628-.294-.882-.416-1.248-.409-1.219-8.109-2.23a5.018,5.018,0,0,1-1.642,1.642c-2.632,1.8-7.349,3.1-10.124,3.743a2.724,2.724,0,0,0-.344.108,3.586,3.586,0,0,0-1.434.868,3.657,3.657,0,0,0-.99,1.735Z" transform="translate(-273.659 -220.312)" fill="#db8b8b"/><path d="M784,631.687l8.654.839,12-2.8,3.628-3.628-.294-.882-3.334,2.56s-6.145,3.348-9.214,2.789h-8.661l1.678-2.23-1.506-2.323a3.585,3.585,0,0,0-1.434.868,3.655,3.655,0,0,0-.989,1.735Z" transform="translate(-273.659 -222.165)" opacity="0.1"/><path d="M784.23,630.868l1.678-2.23-1.678-2.588s-5.019,2.029-7.256,1.75-3.348,3.628.839,4.747,27.913,0,27.913,0,4.187-1.957,0-7.256l-3.628,2.789s-6.145,3.348-9.214,2.789Z" transform="translate(-271.107 -222.185)" fill="#c17174"/><path d="M797.61,401.432s13.4,1.434,11.472-4.187a9.975,9.975,0,0,1-.416-4.933,13.58,13.58,0,0,1,2.366-5.672l-12.562,1.95a15.674,15.674,0,0,1,1.706,4.037C801.647,398.55,797.61,401.432,797.61,401.432Z" transform="translate(-277.51 -154.65)" fill="#db8b8b"/><path d="M823.139,496s-.28,12-3.069,17.868l-.559,17.029s.832,15.631,2.51,18.7-3.628,29.032-3.628,29.032V583.1s-8.934,3.349-11.472-.559l2.51-33.219-1.119-46.054Z" transform="translate(-280.145 -185.598)" fill="#474463"/><path d="M823.139,496s-.28,12-3.069,17.868l-.559,17.029s.832,15.631,2.51,18.7-3.628,29.032-3.628,29.032V583.1s-8.934,3.349-11.472-.559l2.51-33.219-1.119-46.054Z" transform="translate(-280.145 -185.598)" opacity="0.1"/><path d="M832.379,442.31l1.678,4.467,1.434,9.486a8.425,8.425,0,0,1-2.517,7.263c-3.349,3.348-7.816,10.325-7.816,10.325l-5.3-15.91s5.3-.839,4.46-4.467-.552-10.325-.552-10.325Z" transform="translate(-283.807 -170.404)" fill="#7f39fb"/><path d="M832.452,442.22l1.671,4.467,1.434,9.493a8.389,8.389,0,0,1-2.51,7.256c-3.356,3.348-7.815,10.332-7.815,10.332l-5.342-15.932s5.306-.839,4.467-4.467-.559-10.332-.559-10.332Z" transform="translate(-283.815 -170.379)" fill="#7f39fb" opacity="0.05"/><path d="M802.72,620.341c3.585,5.636,9.156,2.438,10.146,1.807l-.409-1.219-8.1-2.259A5.02,5.02,0,0,1,802.72,620.341Z" transform="translate(-278.956 -220.312)" opacity="0.1"/><path d="M787.1,498.992c.28,3.908,5.019,18.14,5.019,18.14l3.349,11.716a93.5,93.5,0,0,1,3.678,25.483,24.882,24.882,0,0,0,1.068,8.023c2.237,6.145-2.23,14.512-2.23,14.512,3.908,6.984,10.6,2.237,10.6,2.237v-4.467s5.306-24.285,3.908-29.032-1.95-17.581-1.95-17.581V504.85a26.293,26.293,0,0,0,7.658-16.663c.065-.918.122-1.879.158-2.868.222-6.3-4.087-13.681-5.736-16.312-.4-.638-.66-1-.66-1l-24.644,9.78h-.057v3.076Z" transform="translate(-274.536 -177.677)" fill="#474463"/><path d="M798.78,388.59a15.674,15.674,0,0,1,1.707,4.037,10.913,10.913,0,0,0,8.489-.315,13.579,13.579,0,0,1,2.366-5.672Z" transform="translate(-277.841 -154.65)" opacity="0.1"/><circle cx="10.884" cy="10.884" r="10.884" transform="translate(515.64 216.359)" fill="#db8b8b"/><path d="M787.1,480.833h.122c11.7,2.409,26.4-9.787,26.4-9.787a14.563,14.563,0,0,1-1.018-2.079c-.4-.638-.66-1-.66-1L787.3,477.75l-.065.975Z" transform="translate(-274.536 -177.666)" opacity="0.1"/><path d="M788.987,404.3s15.631-9.493,20.65-5.586l6.984,8.934s4.467,1.4,3.635,10.361L823.6,434.2l-10.038,2.51s-5.858,5.586-1.111,13.681c0,0-14.8,12.282-26.529,9.766l.839-13.114a17.025,17.025,0,0,0-1.95-13.96c-4.46-6.7-.28-13.121,3.908-15.631C788.708,417.424,790.658,406.813,788.987,404.3Z" transform="translate(-273.348 -157.801)" fill="#7f39fb"/><path d="M785.365,486.3s-5.865,1.119-8.654,5.586a17.428,17.428,0,0,1-2.925,3.65,2.208,2.208,0,0,0,.351,3.528c2.216,1.334,5.822,2.151,10.389-1.6C792.377,491.047,785.365,486.3,785.365,486.3Z" transform="translate(-270.564 -182.853)" fill="#db8b8b"/><path d="M798.543,414.2s5.578-.559,6.977,13.953,3.628,17.868,3.628,17.868,1.4,7.536-1.957,12-9.766,13.96-9.766,13.96-6.977,1.95-8.375-5.019l8.654-16.19s1.391-5.586-1.957-9.493S789.889,411.4,798.543,414.2Z" transform="translate(-275.088 -162.389)" opacity="0.1"/><path d="M797.777,413.027s5.578-.559,6.977,13.96,3.628,17.861,3.628,17.861,1.434,7.536-1.95,12-9.737,13.96-9.737,13.96-6.977,1.95-8.375-5.019l8.654-16.19s1.4-5.586-1.957-9.493S789.123,410.238,797.777,413.027Z" transform="translate(-274.881 -162.059)" fill="#7f39fb"/><path d="M795.06,427.71s-.552,8.654,1.957,13.4,2.51,10.884,0,14.233" transform="translate(-276.774 -166.273)" opacity="0.1"/><path d="M793.14,411.039s2.23-2.23,8.654-2.509S811,406.3,811,406.3" transform="translate(-276.245 -160.214)" opacity="0.1"/><path d="M808.217,360.276c1.7.208,3.635.789,4.245,2.38a15.9,15.9,0,0,1,.394,1.843c.631,2.438,3.377,3.585,5.069,5.435a13.049,13.049,0,0,1,2.639,6.044,56.768,56.768,0,0,1,.982,18.965c-.545,4.625-1.663,9.185-1.972,13.831s.258,9.543,2.8,13.451c1.1,1.678,2.538,3.155,3.313,5.019-1.6,1.3-3.807,1.484-5.872,1.556q-3.585.122-7.206,0a7.651,7.651,0,0,1-3.657-.767,5.636,5.636,0,0,1-1.922-2.058,14.731,14.731,0,0,1-1.663-7.837c.057-2.7.487-5.392.538-8.1a7.041,7.041,0,0,0-.939-4.245,13.681,13.681,0,0,0-2.338-2.151c-2.99-2.653-4.015-6.9-4.116-10.891s.559-7.988.222-11.967c-.129-1.556-.717-3.427-2.244-3.728a8.163,8.163,0,0,1-1.434-.186c-1.226-.473-1.1-2.2-1.434-3.47-.394-1.434-1.613-2.531-1.957-3.965-.8-3.377,3.5-7.414,6.317-8.6S805.2,359.9,808.217,360.276Z" transform="translate(-275.799 -147.1)" opacity="0.1"/><path d="M808.607,359.5c1.7.208,3.635.789,4.245,2.388a15.466,15.466,0,0,1,.394,1.836c.631,2.438,3.377,3.585,5.069,5.435a13.048,13.048,0,0,1,2.639,6.044,56.765,56.765,0,0,1,.975,18.987c-.538,4.625-1.656,9.185-1.965,13.838s.258,9.536,2.8,13.444c1.1,1.685,2.538,3.155,3.313,5.019-1.6,1.3-3.807,1.484-5.872,1.556q-3.585.115-7.206,0a7.644,7.644,0,0,1-3.657-.76,5.658,5.658,0,0,1-1.922-2.065,14.731,14.731,0,0,1-1.664-7.837c.057-2.7.488-5.392.538-8.1a7.229,7.229,0,0,0-.939-4.245,13.431,13.431,0,0,0-2.337-2.151C800.025,400.241,799,396,798.9,392s.559-7.988.222-11.967c-.129-1.556-.717-3.427-2.244-3.728a8.161,8.161,0,0,1-1.434-.186c-1.226-.473-1.1-2.2-1.434-3.47-.394-1.434-1.613-2.524-1.957-3.965-.8-3.377,3.5-7.414,6.317-8.6S805.61,359.128,808.607,359.5Z" transform="translate(-275.909 -146.885)" fill="#464353"/><path d="M200.28,634.221s7.686-.237,10-1.886,11.816-3.621,12.39-.975,11.544,13.15,2.868,13.222-20.148-1.355-22.464-2.76S200.28,634.221,200.28,634.221Z" transform="translate(-108.474 -223.537)" fill="rgba(80,86,104,0.5)"/><path d="M225.691,645.27c-8.669.072-20.148-1.348-22.457-2.753-1.757-1.076-2.459-4.919-2.7-6.7h-.258s.488,6.2,2.8,7.6,13.788,2.825,22.464,2.76c2.5,0,3.363-.911,3.32-2.23C228.509,644.775,227.555,645.27,225.691,645.27Z" transform="translate(-108.474 -225.165)" opacity="0.2"/><path d="M881.17,494.084s5.27-.165,6.862-1.3,8.109-2.481,8.5-.667,7.93,9.027,1.972,9.077-13.831-.932-15.416-1.893S881.17,494.084,881.17,494.084Z" transform="translate(-301.157 -184.249)" fill="#a8a8a8"/><path d="M898.615,501.689c-5.951.043-13.831-.932-15.416-1.893-1.212-.717-1.692-3.377-1.85-4.6h-.179s.337,4.252,1.922,5.22,9.465,1.936,15.416,1.893c1.721,0,2.316-.624,2.28-1.534C900.551,501.338,899.9,501.675,898.615,501.689Z" transform="translate(-301.157 -185.372)" opacity="0.2"/><circle cx="15.509" cy="15.509" r="15.509" transform="translate(6.926 0)" fill="#505668" opacity="0.1"/><circle cx="15.509" cy="15.509" r="15.509" transform="translate(673.748 44.455)" fill="#505668" opacity="0.1"/><circle cx="11.472" cy="11.472" r="11.472" transform="translate(0 64.66)" fill="#505668" opacity="0.1"/><circle cx="11.472" cy="11.472" r="11.472" transform="translate(116.156 0.129)" fill="#505668" opacity="0.1"/><circle cx="11.472" cy="11.472" r="11.472" transform="translate(586.517 1.563)" fill="#505668" opacity="0.1"/><path d="M958.742,709.49s2.868,3.757-1.326,9.429-7.658,10.454-6.259,13.989c0,0,6.331-10.526,11.472-10.676S964.406,715.828,958.742,709.49Z" transform="translate(-320.873 -246.013)" fill="#7f39fb"/><path d="M958.8,709.49a4.6,4.6,0,0,1,.581,1.183c5.019,5.908,7.715,11.422,2.868,11.558-4.5.129-9.9,8.181-11.2,10.217a3.865,3.865,0,0,0,.158.459s6.331-10.526,11.472-10.676S964.465,715.828,958.8,709.49Z" transform="translate(-320.932 -246.013)" opacity="0.1"/><path d="M969.04,715.832c0,1.319-.151,2.395-.33,2.395s-.33-1.076-.33-2.395.187-.717.366-.717S969.04,714.505,969.04,715.832Z" transform="translate(-325.836 -247.565)" fill="#ffd037"/><path d="M970.962,718.013c-1.162.631-2.151,1.011-2.266.853s.789-.8,1.943-1.434.717-.172.8,0S972.123,717.382,970.962,718.013Z" transform="translate(-325.923 -248.169)" fill="#ffd037"/><path d="M938.165,709.49s-2.868,3.757,1.326,9.429,7.658,10.454,6.259,13.989c0,0-6.338-10.526-11.472-10.676S932.493,715.828,938.165,709.49Z" transform="translate(-315.468 -246.013)" fill="#7f39fb"/><path d="M938.167,709.49a4.741,4.741,0,0,0-.588,1.183c-5.019,5.908-7.708,11.422-2.868,11.558,4.5.129,9.909,8.181,11.2,10.217-.043.151-.093.308-.151.459,0,0-6.338-10.526-11.472-10.676S932.5,715.828,938.167,709.49Z" transform="translate(-315.47 -246.013)" opacity="0.1"/><path d="M933.25,715.832c0,1.319.151,2.395.337,2.395s.33-1.076.33-2.395-.186-.717-.373-.717S933.25,714.505,933.25,715.832Z" transform="translate(-315.895 -247.565)" fill="#ffd037"/><path d="M930.424,718.013c1.161.631,2.151,1.011,2.259.853s-.781-.8-1.943-1.434-.717-.172-.789,0S929.262,717.382,930.424,718.013Z" transform="translate(-314.896 -248.169)" fill="#ffd037"/><path d="M934.53,739.758s8.031-.251,10.447-1.972,12.354-3.779,12.956-1.018,12.06,13.745,3,13.817-21.066-1.434-23.475-2.868S934.53,739.758,934.53,739.758Z" transform="translate(-316.257 -253.35)" fill="rgba(80,86,104,0.5)"/><path d="M961.1,751.336c-9.07.072-21.066-1.434-23.482-2.868-1.836-1.119-2.574-5.141-2.818-7h-.265s.509,6.453,2.925,7.945,14.412,2.954,23.475,2.868c2.617,0,3.521-.954,3.47-2.33C964.042,750.8,963.038,751.322,961.1,751.336Z" transform="translate(-316.257 -255.063)" opacity="0.2"/></g><g transform="translate(-937.977 2034.731) rotate(-24)"><g transform="translate(4579 3818)" fill="rgba(255,255,255,0)" stroke="rgba(232,69,69,0.8)" stroke-width="3"><circle cx="15.055" cy="15.055" r="15.055" stroke="none"/><circle cx="15.055" cy="15.055" r="13.555" fill="none"/></g><circle cx="12.055" cy="12.055" r="12.055" transform="translate(4582 3821)" fill="rgba(13,13,13,0)"/><g transform="translate(4186.834 3470.223)"><path d="M440.5,370.311l-.245-.28a.7.7,0,0,0-1.077,0l-4.748,5.432-4.748-5.432a.7.7,0,0,0-1.077,0l-.245.28a.962.962,0,0,0,0,1.232l4.748,5.432-4.748,5.432a.962.962,0,0,0,0,1.232l.245.28a.7.7,0,0,0,1.077,0l4.748-5.432,4.748,5.432a.7.7,0,0,0,1.077,0l.245-.28a.962.962,0,0,0,0-1.232l-4.748-5.432,4.748-5.432A.962.962,0,0,0,440.5,370.311Z" transform="translate(-26.976 -13.999)" fill="rgba(232,69,69,0.8)"/></g></g><g transform="translate(192.58 4.463) rotate(-3)"><g transform="translate(4579 3818)" fill="rgba(255,255,255,0)" stroke="rgba(232,69,69,0.8)" stroke-width="3"><circle cx="15.055" cy="15.055" r="15.055" stroke="none"/><circle cx="15.055" cy="15.055" r="13.555" fill="none"/></g><circle cx="12.055" cy="12.055" r="12.055" transform="translate(4582 3821)" fill="rgba(13,13,13,0)"/><g transform="translate(4186.834 3470.223)"><path d="M440.5,370.311l-.245-.28a.7.7,0,0,0-1.077,0l-4.748,5.432-4.748-5.432a.7.7,0,0,0-1.077,0l-.245.28a.962.962,0,0,0,0,1.232l4.748,5.432-4.748,5.432a.962.962,0,0,0,0,1.232l.245.28a.7.7,0,0,0,1.077,0l4.748-5.432,4.748,5.432a.7.7,0,0,0,1.077,0l.245-.28a.962.962,0,0,0,0-1.232l-4.748-5.432,4.748-5.432A.962.962,0,0,0,440.5,370.311Z" transform="translate(-26.976 -13.999)" fill="rgba(232,69,69,0.8)"/></g></g><g transform="translate(813.793 -473.405) rotate(3)"><g transform="translate(4579 3818)" fill="rgba(255,255,255,0)" stroke="rgba(232,69,69,0.8)" stroke-width="3"><circle cx="15.055" cy="15.055" r="15.055" stroke="none"/><circle cx="15.055" cy="15.055" r="13.555" fill="none"/></g><circle cx="12.055" cy="12.055" r="12.055" transform="translate(4582 3821)" fill="rgba(13,13,13,0)"/><g transform="translate(4186.834 3470.223)"><path d="M440.5,370.311l-.245-.28a.7.7,0,0,0-1.077,0l-4.748,5.432-4.748-5.432a.7.7,0,0,0-1.077,0l-.245.28a.962.962,0,0,0,0,1.232l4.748,5.432-4.748,5.432a.962.962,0,0,0,0,1.232l.245.28a.7.7,0,0,0,1.077,0l4.748-5.432,4.748,5.432a.7.7,0,0,0,1.077,0l.245-.28a.962.962,0,0,0,0-1.232l-4.748-5.432,4.748-5.432A.962.962,0,0,0,440.5,370.311Z" transform="translate(-26.976 -13.999)" fill="rgba(232,69,69,0.8)"/></g></g><g transform="translate(1279.695 -692.222) rotate(7)"><g transform="translate(4579 3818)" fill="rgba(255,255,255,0)" stroke="rgba(232,69,69,0.8)" stroke-width="3"><circle cx="15.055" cy="15.055" r="15.055" stroke="none"/><circle cx="15.055" cy="15.055" r="13.555" fill="none"/></g><circle cx="12.055" cy="12.055" r="12.055" transform="translate(4582 3821)" fill="rgba(13,13,13,0)"/><g transform="translate(4186.834 3470.223)"><path d="M440.5,370.311l-.245-.28a.7.7,0,0,0-1.077,0l-4.748,5.432-4.748-5.432a.7.7,0,0,0-1.077,0l-.245.28a.962.962,0,0,0,0,1.232l4.748,5.432-4.748,5.432a.962.962,0,0,0,0,1.232l.245.28a.7.7,0,0,0,1.077,0l4.748-5.432,4.748,5.432a.7.7,0,0,0,1.077,0l.245-.28a.962.962,0,0,0,0-1.232l-4.748-5.432,4.748-5.432A.962.962,0,0,0,440.5,370.311Z" transform="translate(-26.976 -13.999)" fill="rgba(232,69,69,0.8)"/></g></g></g></svg>