<svg xmlns="http://www.w3.org/2000/svg" width="245.267" height="186.606" viewBox="0 0 245.267 186.606"><g transform="translate(0 0)"><path d="M254.464,215.743a.4.4,0,0,1-.4-.374,14.228,14.228,0,0,0-14.151-13.184c-.429,0-.88.022-1.34.065a.4.4,0,0,1-.387-.2,16.906,16.906,0,0,0-30.916,3.677.4.4,0,0,1-.4.29l-.107,0c-.056,0-.111,0-.167,0a11.923,11.923,0,0,0-11.619,9.414.4.4,0,0,1-.394.32h-26.97a.4.4,0,0,1,0-.805h26.648a12.736,12.736,0,0,1,12.321-9.734,17.711,17.711,0,0,1,32.169-3.778c.4-.031.784-.046,1.158-.046a15.036,15.036,0,0,1,14.954,13.932.4.4,0,0,1-.373.43Z" transform="translate(-167.214 -172.323)" fill="#cbcbcb"/><path d="M290.232,290.14H224.21a.4.4,0,1,1,0-.805h66.022a.4.4,0,0,1,0,.805Z" transform="translate(-207.771 -241.558)" fill="#cbcbcb"/><path d="M225.04,310.741H202.9a.4.4,0,0,1,0-.805H225.04a.4.4,0,0,1,0,.805Z" transform="translate(-192.499 -256.322)" fill="#cbcbcb"/><path d="M266.977,545.148c0,16.367-17.159,24.2-17.159,24.2s-17.335-7.831-17.687-24.2a17.423,17.423,0,0,1,34.845,0Z" transform="translate(-213.734 -412.399)" fill="#e5e5e5"/><path d="M114.905,543.057H103.29l-1.408-5.632h14.431Z" transform="translate(-73.013 -385.142)" fill="#cbcbcb"/><rect width="10.823" height="5.64" transform="translate(30.673 167.546)" fill="#f8f5ff"/><path d="M286.15,717.518h-11V711.7h11Zm-10.823-.176h10.647v-5.464H275.327Z" transform="translate(-244.566 -544.244)" fill="#cbcbcb"/><path d="M122.666,557.619h-4.437l-.509-.8h5.455Z" transform="translate(-84.363 -399.04)" fill="#cbcbcb"/><rect width="0.176" height="8.623" transform="translate(30.365 157.915)" fill="#cbcbcb"/><rect width="0.176" height="8.623" transform="translate(41.628 157.915)" fill="#cbcbcb"/><path d="M300.513,565.136l-.107-.139c5.084-3.921,11.145-10.637,11.145-20.371a17.311,17.311,0,0,0-10.587-15.972l.069-.162a17.486,17.486,0,0,1,10.695,16.134C311.726,554.431,305.629,561.192,300.513,565.136Z" transform="translate(-262.665 -412.948)" fill="#cbcbcb"/><path d="M280.639,565.268l-.107-.139c5.084-3.921,11.145-10.637,11.145-20.371a17.331,17.331,0,0,0-10.467-15.921l.07-.162a17.507,17.507,0,0,1,10.573,16.083C291.852,554.562,285.754,561.323,280.639,565.268Z" transform="translate(-248.422 -413.079)" fill="#cbcbcb"/><path d="M277.986,565.268c-5.115-3.945-11.213-10.705-11.213-20.51a17.507,17.507,0,0,1,10.573-16.082l.07.162a17.331,17.331,0,0,0-10.467,15.921c0,9.733,6.06,16.45,11.145,20.371Z" transform="translate(-238.562 -413.08)" fill="#cbcbcb"/><path d="M258.112,565.061C253,561.116,246.9,554.355,246.9,544.551a17.474,17.474,0,0,1,10.766-16.164l.068.162a17.3,17.3,0,0,0-10.658,16c0,9.733,6.06,16.45,11.145,20.371Z" transform="translate(-224.32 -412.872)" fill="#cbcbcb"/><rect width="0.176" height="36.957" transform="translate(35.732 115.327)" fill="#cbcbcb"/><line y1="3.227" x2="3.227" transform="translate(30.673 166.329)" fill="#fff"/><rect width="4.564" height="0.176" transform="translate(30.611 169.495) rotate(-45)" fill="#cbcbcb"/><line y1="5.045" x2="4.798" transform="translate(30.673 166.274)" fill="#fff"/><rect width="6.962" height="0.176" transform="translate(30.61 171.259) rotate(-46.444)" fill="#cbcbcb"/><rect width="13.199" height="1.584" transform="translate(29.309 166.274)" fill="#f8f5ff"/><path d="M283.713,708.975H270.338v-1.76h13.375Zm-13.2-.176h13.023v-1.408H270.514Z" transform="translate(-241.117 -541.029)" fill="#cbcbcb"/><path d="M414.13,413.747c0,10.8-11.325,15.972-11.325,15.972s-11.442-5.169-11.674-15.972a11.5,11.5,0,1,1,23,0Z" transform="translate(-327.68 -322.476)" fill="#e5e5e5"/><path d="M256.911,371.325h-7.667l-.929-3.717h9.525Z" transform="translate(-177.953 -263.444)" fill="#cbcbcb"/><rect width="7.144" height="3.723" transform="translate(71.553 114.238)" fill="#f8f5ff"/><path d="M426.785,527.519h-7.26V523.68h7.26Zm-7.144-.116h7.028V523.8h-7.028Z" transform="translate(-348.031 -409.5)" fill="#cbcbcb"/><path d="M262.033,380.937H259.1l-.336-.528h3.6Z" transform="translate(-185.444 -272.617)" fill="#cbcbcb"/><rect width="0.116" height="5.692" transform="translate(71.349 107.882)" fill="#cbcbcb"/><rect width="0.116" height="5.692" transform="translate(78.783 107.882)" fill="#cbcbcb"/><path d="M436.266,426.94l-.071-.092c3.356-2.588,7.356-7.021,7.356-13.445a11.426,11.426,0,0,0-6.988-10.542l.045-.107a11.542,11.542,0,0,1,7.059,10.649C443.667,419.874,439.642,424.336,436.266,426.94Z" transform="translate(-359.977 -322.838)" fill="#cbcbcb"/><path d="M423.148,427.028l-.071-.092c3.356-2.588,7.356-7.021,7.356-13.446a11.439,11.439,0,0,0-6.908-10.508l.046-.107a11.555,11.555,0,0,1,6.979,10.615C430.549,419.961,426.524,424.424,423.148,427.028Z" transform="translate(-350.576 -322.926)" fill="#cbcbcb"/><path d="M421.4,427.027c-3.376-2.6-7.4-7.066-7.4-13.537a11.555,11.555,0,0,1,6.979-10.615l.046.107a11.439,11.439,0,0,0-6.909,10.508c0,6.424,4,10.858,7.356,13.445Z" transform="translate(-344.068 -322.925)" fill="#cbcbcb"/><path d="M408.279,426.89c-3.376-2.6-7.4-7.066-7.4-13.537a11.534,11.534,0,0,1,7.106-10.669l.045.107a11.418,11.418,0,0,0-7.035,10.562c0,6.424,4,10.858,7.356,13.445Z" transform="translate(-334.667 -322.788)" fill="#cbcbcb"/><rect width="0.116" height="24.393" transform="translate(74.892 79.771)" fill="#cbcbcb"/><line y1="2.13" x2="2.13" transform="translate(71.553 113.435)" fill="#fff"/><rect width="3.012" height="0.116" transform="translate(71.512 115.524) rotate(-45)" fill="#cbcbcb"/><line y1="3.33" x2="3.167" transform="translate(71.553 113.399)" fill="#fff"/><rect width="4.595" height="0.116" transform="translate(71.511 116.689) rotate(-46.444)" fill="#cbcbcb"/><rect width="8.712" height="1.045" transform="translate(70.652 113.399)" fill="#f8f5ff"/><path d="M425.176,521.88h-8.828v-1.162h8.828Zm-8.712-.116h8.6v-.929h-8.6Z" transform="translate(-345.754 -407.378)" fill="#cbcbcb"/><path d="M811.345,453.224a.289.289,0,0,0,.288-.268,10.2,10.2,0,0,1,10.143-9.45c.308,0,.631.016.961.047a.289.289,0,0,0,.277-.144,12.118,12.118,0,0,1,22.16,2.636.287.287,0,0,0,.284.208l.077,0,.12,0a8.546,8.546,0,0,1,8.328,6.748.289.289,0,0,0,.282.229H873.6a.289.289,0,0,0,0-.577H854.5a9.129,9.129,0,0,0-8.832-6.977,12.695,12.695,0,0,0-23.058-2.708c-.284-.022-.562-.033-.83-.033a10.777,10.777,0,0,0-10.719,9.987.289.289,0,0,0,.268.308Z" transform="translate(-628.618 -347.184)" fill="#cbcbcb"/><path d="M823.462,506.55h47.324a.289.289,0,1,0,0-.577H823.462a.289.289,0,0,0,0,.577Z" transform="translate(-637.302 -396.81)" fill="#cbcbcb"/><path d="M949.738,521.317h15.871a.289.289,0,1,0,0-.577H949.738a.289.289,0,1,0,0,.577Z" transform="translate(-727.797 -407.393)" fill="#cbcbcb"/><path d="M519.446,638.5h-.95l-.452-3.664h1.4Z" transform="translate(-371.252 -454.952)" fill="#9f616a"/><path d="M683.315,768.63h-3.062v-.039a1.193,1.193,0,0,1,1.192-1.192h1.871Z" transform="translate(-534.879 -584.159)" fill="#2f2e41"/><path d="M558.408,633.473l-.814.489-2.274-2.908,1.2-.722Z" transform="translate(-397.965 -451.723)" fill="#9f616a"/><path d="M726.094,763.4l-.02-.033a1.193,1.193,0,0,1,.408-1.636l1.6-.963.634,1.055Z" transform="translate(-567.595 -579.403)" fill="#2f2e41"/><path d="M685.676,726.015h-.016a12.766,12.766,0,0,1-1.383-.08c-.175-.017-.365-.036-.594-.055l-.008,0c-.156-.046-.16-1.51-.094-6.52.034-2.566.072-5.475.027-7.327v-.018l.014-.012a6.964,6.964,0,0,1,6.127-1.555l.017,0,.009.015c.934,1.58,2.343,3.855,3.706,6.055,3.129,5.051,4.024,6.536,3.926,6.649l-.012.009c-.214.107-.374.189-.51.259a16.859,16.859,0,0,1-1.661.749l-.025.01-.018-.02a43.92,43.92,0,0,1-7.451-10.958c-.191,1.227-.423,2.828-.668,4.52A74.458,74.458,0,0,1,685.688,726Z" transform="translate(-537.236 -543.221)" fill="#2f2e41"/><path d="M684.413,678.464a16.631,16.631,0,0,1,5.561.931,12.658,12.658,0,0,0-2.838-8.253l-.014-.017.007-.021c.5-1.441,1.014-2.931,1.475-4.413l-.007-.025a9.181,9.181,0,0,0-2.12-3.548.679.679,0,0,0-.927-.047,8.636,8.636,0,0,0-2.783,7.03v.007l0,.007c-.864,2.927-1.178,4.43-1.454,5.757-.2.968-.377,1.805-.728,3A18.03,18.03,0,0,1,684.413,678.464Z" transform="translate(-535.117 -509.279)" fill="#cbcbcb"/><path d="M525.549,564.419l-2.811,6.119-1.606-1.625Z" transform="translate(-373.466 -404.487)" opacity="0.1"/><circle cx="2" cy="2" r="2" transform="translate(148.882 149.245)" fill="#9f616a"/><path d="M691.135,646.233h3.175V644.85c-.7-.277-1.379-.512-1.791,0a1.384,1.384,0,0,0-1.384,1.384Z" transform="translate(-542.678 -496.118)" fill="#505668"/><path d="M696.817,644.752c1.9,0,2.429,2.379,2.429,3.722,0,.749-.339,1.016-.87,1.107l-.188-1-.44,1.045c-.149,0-.306,0-.469-.005l-.149-.307-.333.3c-1.333,0-2.409.2-2.409-1.139S694.853,644.752,696.817,644.752Z" transform="translate(-545.008 -496.265)" fill="#505668"/><path d="M621.482,176.83c0,52.7-55.255,77.923-55.255,77.923s-55.822-25.219-56.955-77.923c-.666-30.979,25.119-56.1,56.1-56.1A56.1,56.1,0,0,1,621.482,176.83Z" transform="translate(-412.338 -120.725)" fill="#7f39fb"/><path d="M542.927,634.945h-1.165l-.554-4.492h1.719Z" transform="translate(-387.853 -451.809)" fill="#ffb7b7"/><path d="M536.65,645.132H538.9v1.414h-3.66A1.414,1.414,0,0,1,536.65,645.132Z" transform="translate(-383.573 -462.329)" fill="#2f2e41"/><path d="M558.349,634.945h-1.165l-.554-4.492h1.719Z" transform="translate(-398.905 -451.809)" fill="#ffb7b7"/><path d="M552.073,645.132h2.246v1.414h-3.66A1.414,1.414,0,0,1,552.073,645.132Z" transform="translate(-394.626 -462.329)" fill="#2f2e41"/><path d="M726.972,688.363a1.021,1.021,0,0,1-.2-1.553l-.767-10.883,2.209.214.061,10.658a1.026,1.026,0,0,1-1.307,1.564Z" transform="translate(-567.67 -518.607)" fill="#ffb7b7"/><path d="M709.794,723.919l-1.282-.061a.427.427,0,0,1-.407-.424l-.089-12.973a.428.428,0,0,1,.489-.426l5.129.745a.425.425,0,0,1,.366.42l.66,12.021a.428.428,0,0,1-.427.431H712.85a.425.425,0,0,1-.422-.361s-1.044-9.017-1.187-9.011-1,9.264-1,9.264a.429.429,0,0,1-.425.377Z" transform="translate(-554.775 -543.047)" fill="#2f2e41"/><path d="M726.913,677.454a.426.426,0,0,1-.177-.323l-.162-2.933a1.178,1.178,0,0,1,2.313-.373l.711,2.622a.428.428,0,0,1-.3.524l-2.023.548A.426.426,0,0,1,726.913,677.454Z" transform="translate(-568.074 -516.477)" fill="#505668"/><circle cx="2.333" cy="2.333" r="2.333" transform="translate(154.617 149.34)" fill="#ffb7b7"/><path d="M715.961,649.34a.754.754,0,0,1-1.3-.419.77.77,0,0,1,0-.148,3.427,3.427,0,0,0,.153-.832.436.436,0,0,0-.08-.2c-.347-.465-1.161.208-1.489-.213-.2-.258.035-.664-.119-.952-.2-.38-.805-.193-1.183-.4-.42-.232-.4-.876-.119-1.268a2,2,0,0,1,1.513-.77,4.058,4.058,0,0,1,1.709.334,3.416,3.416,0,0,1,1.615,1.12,2.734,2.734,0,0,1,.276,2.328A4.392,4.392,0,0,1,715.961,649.34Z" transform="translate(-557.36 -495.821)" fill="#505668"/><path d="M713.7,667.069q-.061-.044-.124-.086a3.075,3.075,0,0,0-.722-.354v-.613h-1.8v.569a3.166,3.166,0,0,0-2.3,2.63l-1.229,9.125a.425.425,0,0,0,.088.323.42.42,0,0,0,.29.159,6.451,6.451,0,0,1,2.44.836,3.623,3.623,0,0,0,1.777.454,4.283,4.283,0,0,0,1.446-.258.424.424,0,0,0,.277-.38,58.9,58.9,0,0,1,1.057-9.12,3.152,3.152,0,0,0-1.2-3.284Z" transform="translate(-554.419 -511.504)" fill="#505668"/><path d="M503.028,438.135h-37.4L461.091,420h46.471Z" transform="translate(-330.437 -300.99)" fill="#505668"/><rect width="34.853" height="18.163" transform="translate(136.463 168.159)" fill="#f8f5ff"/><path d="M683.224,731.906H647.8v-18.73h35.42Zm-34.853-.567h34.286v-17.6H648.371Z" transform="translate(-511.625 -545.301)" fill="#3f3d56"/><path d="M528.019,485.03H513.731l-1.64-2.577h17.568Z" transform="translate(-366.986 -345.746)" fill="#505668"/><rect width="0.567" height="27.769" transform="translate(135.471 137.145)" fill="#3f3d56"/><rect width="0.567" height="27.769" transform="translate(171.741 137.145)" fill="#3f3d56"/><path d="M729.477,241.2l-.346-.449c16.372-12.625,35.888-34.255,35.888-65.6a55.745,55.745,0,0,0-34.093-51.435l.221-.522a56.311,56.311,0,0,1,34.439,51.957C765.585,206.724,745.949,228.494,729.477,241.2Z" transform="translate(-569.907 -122.494)" fill="#3f3d56"/><path d="M665.476,241.621l-.346-.449c16.372-12.625,35.888-34.255,35.888-65.6A55.811,55.811,0,0,0,667.313,124.3l.225-.52a56.377,56.377,0,0,1,34.047,51.789C701.585,207.147,681.949,228.918,665.476,241.621Z" transform="translate(-524.042 -122.918)" fill="#3f3d56"/><path d="M656.935,241.62c-16.472-12.7-36.109-34.473-36.109-66.047a56.377,56.377,0,0,1,34.048-51.789l.225.52a55.811,55.811,0,0,0-33.706,51.269c0,31.344,19.516,52.973,35.888,65.6Z" transform="translate(-492.291 -122.918)" fill="#3f3d56"/><path d="M592.934,240.953c-16.472-12.7-36.109-34.473-36.109-66.047A56.271,56.271,0,0,1,591.5,122.852l.218.523a55.706,55.706,0,0,0-34.321,51.53c0,31.344,19.516,52.973,35.888,65.6Z" transform="translate(-446.426 -122.25)" fill="#3f3d56"/><rect width="0.567" height="119.01" transform="translate(152.756 0)" fill="#3f3d56"/><line y1="10.392" x2="10.392" transform="translate(136.463 164.241)" fill="#fff"/><rect width="14.696" height="0.567" transform="translate(136.263 174.433) rotate(-45)" fill="#3f3d56"/><line y1="16.245" x2="15.45" transform="translate(136.463 164.064)" fill="#fff"/><rect width="22.419" height="0.567" transform="translate(136.259 180.115) rotate(-46.444)" fill="#3f3d56"/><rect width="42.504" height="5.1" transform="translate(132.07 164.064)" fill="#f8f5ff"/><path d="M675.374,704.392H632.3v-5.667h43.07Zm-42.5-.567h41.937v-4.534H632.871Z" transform="translate(-500.517 -534.944)" fill="#3f3d56"/><path d="M679.687,700.371a.779.779,0,0,0,.7-.967l2.316-1.517-1.321-.571-2,1.528a.783.783,0,0,0,.3,1.527Z" transform="translate(-533.87 -533.935)" fill="#9f616a"/><path d="M685.081,675.143l-.029-.021c-.551-.406-1.163-.825-1.755-1.231l-.036-.024.028-.033c1.263-1.478,2.527-3.021,3.75-4.514l0-.005.011-.006,0-.006,0,0,.007,0-.033,0-.377-2.956a1.9,1.9,0,0,1,.041-2.03,1.608,1.608,0,0,1,2.092-.478,1.373,1.373,0,0,1,.6,1.025,1.238,1.238,0,0,1-.328,1.014,42.645,42.645,0,0,1,.172,4.315v.014l-.008.011c-1.3,1.656-2.736,3.3-4.121,4.9Z" transform="translate(-537.036 -509.8)" fill="#cbcbcb"/><path d="M686.29,670.229a1,1,0,0,1,.023.156l4.081,2.354.992-.571,1.057,1.384-2.122,1.512-4.656-3.673a1,1,0,1,1,.625-1.163Z" transform="translate(-537.795 -513.971)" fill="#ffb7b7"/><path d="M706.257,673.321a.426.426,0,0,1,.123-.347l2.077-2.078a1.178,1.178,0,0,1,1.821,1.474L708.8,674.65a.428.428,0,0,1-.591.126l-1.758-1.141A.426.426,0,0,1,706.257,673.321Z" transform="translate(-553.513 -514.754)" fill="#505668"/><path d="M448.363,567.224a.288.288,0,0,1-.287-.268,10.2,10.2,0,0,0-10.143-9.45c-.308,0-.631.016-.961.047a.288.288,0,0,1-.277-.144,12.118,12.118,0,0,0-22.16,2.636.287.287,0,0,1-.284.208l-.077,0-.12,0a8.546,8.546,0,0,0-8.328,6.748.289.289,0,0,1-.282.229H386.111a.289.289,0,0,1,0-.577h19.1a9.129,9.129,0,0,1,8.832-6.977,12.695,12.695,0,0,1,23.058-2.708c.284-.022.562-.033.83-.033a10.777,10.777,0,0,1,10.719,9.987.289.289,0,0,1-.268.308Z" transform="translate(-323.878 -428.881)" fill="#cbcbcb"/><path d="M474,620.55H426.677a.289.289,0,0,1,0-.577H474a.289.289,0,0,1,0,.577Z" transform="translate(-352.949 -478.508)" fill="#cbcbcb"/><path d="M427.272,635.317H411.4a.289.289,0,0,1,0-.577h15.871a.289.289,0,1,1,0,.577Z" transform="translate(-342.002 -489.09)" fill="#cbcbcb"/></g></svg>