<svg xmlns="http://www.w3.org/2000/svg" xmlns:xlink="http://www.w3.org/1999/xlink" width="714.481" height="478.193" viewBox="0 0 714.481 478.193"><defs><linearGradient id="a" x1="0.5" y1="1" x2="0.5" gradientUnits="objectBoundingBox"><stop offset="0" stop-color="gray" stop-opacity="0.251"/><stop offset="0.54" stop-color="gray" stop-opacity="0.122"/><stop offset="1" stop-color="gray" stop-opacity="0.102"/></linearGradient></defs><g transform="translate(-0.001 0)"><path d="M439.059,143.289c-45.8-1.6-89.425-16.372-131.055-32.551S225.084,76.63,180.378,68.059c-28.787-5.513-61.673-6.288-84.842,9.135-22.294,14.834-29.5,40.446-33.37,64.2-2.915,17.879-4.626,36.7,3.355,53.432,5.544,11.622,15.386,21.389,22.195,32.52,23.7,38.722,6.958,86.479-18.722,124.3-12.043,17.736-26.009,34.66-35.3,53.543s-13.587,40.52-5.457,59.782C36.3,484.059,55.493,498.4,76.293,508.486c42.244,20.465,92.023,26.35,140.562,29.674,107.453,7.349,215.476,4.167,323.213.98,39.869-1.178,79.918-2.375,119.136-8.539,21.786-3.423,44.272-8.856,60.086-21.978,20.074-16.651,25.048-44.849,11.6-65.735-22.561-35.026-84.96-43.72-100.718-81.313-8.682-20.688.236-43.739,12.849-62.926,27.063-41.165,72.42-77.276,74.814-124.333,1.637-32.316-20.167-64.675-53.884-80-35.348-16.025-84.34-14.009-110.417,12.521C526.685,134.185,479.5,144.7,439.059,143.289Z" transform="translate(-23.94 -64.45)" fill="#f8f5ff" opacity="0.1"/><g transform="translate(286.402 249.639)" opacity="0.5"><path d="M485.972,402.58l-20.75.428-3.392,4.657v16.093l4.236,2.964h19.907l4.236-4.657V406.816Z" transform="translate(-461.83 -402.561)" fill="#bfc7d3"/><path d="M511.29,469.561s-19.057,2.964-20.75,0l.428-2.115L511.29,467Z" transform="translate(-487.582 -467)" fill="#fff" opacity="0.2"/><path d="M512.642,542.12l3.386,3.392v16.124l-3.386,3.336s-12.279,4.236-20.328.843l-3.814-3.808V545.884l3.392-3.814Z" transform="translate(-486.807 -495.516)" fill="#bfc7d3"/><path d="M513.87,545.964s-14.822,3.386-19.9,0V542.15h20.75Z" transform="translate(-488.885 -495.546)" fill="#fff" opacity="0.2"/><path d="M510.044,503.788V526.7a3.436,3.436,0,0,1-3.6,3.25h0a3.436,3.436,0,0,1-3.6-3.25V503.788a3.478,3.478,0,0,1,4.019-3.231h0A3.386,3.386,0,0,1,510.044,503.788Z" transform="translate(-492.258 -479.738)" fill="#bfc7d3"/><path d="M539.562,403.64l-20.75.422-3.392,4.657v16.093l4.236,2.964h19.907l4.236-4.657V407.869Z" transform="translate(-482.186 -402.964)" fill="#bfc7d3"/><path d="M564.89,470.626s-19.057,2.964-20.75,0l.422-2.115,20.328-.422Z" transform="translate(-507.942 -467.414)" fill="#fff" opacity="0.2"/><path d="M566.212,543.2l3.386,3.392v16.124l-3.386,3.355s-12.285,4.236-20.328.844l-3.814-3.808V547.014l3.392-3.814Z" transform="translate(-507.156 -495.945)" fill="#bfc7d3"/><path d="M567.461,547.014s-14.822,3.386-19.9,0V543.2H568.3Z" transform="translate(-509.241 -495.945)" fill="#fff" opacity="0.2"/><path d="M563.59,504.837v22.908a3.442,3.442,0,0,1-3.6,3.25h0a3.442,3.442,0,0,1-3.6-3.25V504.837a3.481,3.481,0,0,1,4.025-3.231h0A3.386,3.386,0,0,1,563.59,504.837Z" transform="translate(-512.595 -480.137)" fill="#bfc7d3"/><path d="M610.4,423.39l-17.085.353-2.791,3.833v13.246l3.485,2.443H610.4l3.485-3.839V426.875Z" transform="translate(-510.714 -410.466)" fill="#bfc7d3"/><path d="M635.479,489.936s-15.683,2.437-17.079,0l.347-1.743,16.744-.353Z" transform="translate(-536.15 -474.916)" fill="#fff" opacity="0.2"/><path d="M636.572,549.68l2.791,2.791v13.246l-2.791,2.791s-10.108,3.485-16.744.695l-3.138-3.138V552.818l2.791-3.138Z" transform="translate(-535.501 -498.406)" fill="#bfc7d3"/><path d="M637.594,552.818s-12.2,2.791-16.384,0V549.68h17.079Z" transform="translate(-537.218 -498.406)" fill="#fff" opacity="0.2"/><path d="M634.442,518.089v18.859a2.828,2.828,0,0,1-2.964,2.673h0a2.822,2.822,0,0,1-2.958-2.673V518.089a2.865,2.865,0,0,1,3.305-2.66h0A2.791,2.791,0,0,1,634.442,518.089Z" transform="translate(-539.994 -485.383)" fill="#bfc7d3"/><path d="M654.509,424.26l-17.085.347-2.784,3.832v13.253l3.485,2.437h16.384l3.485-3.833V427.745Z" transform="translate(-527.473 -410.797)" fill="#bfc7d3"/><path d="M679.595,490.8s-15.69,2.443-17.085,0l.347-1.743,16.744-.347Z" transform="translate(-552.906 -475.247)" fill="#fff" opacity="0.2"/><path d="M680.7,550.55l2.784,2.785v13.246l-2.784,2.791s-10.115,3.485-16.744.7l-3.132-3.119V553.688l2.791-3.138Z" transform="translate(-552.264 -498.737)" fill="#bfc7d3"/><path d="M681.7,553.688s-12.2,2.784-16.384,0V550.55H682.4Z" transform="translate(-553.973 -498.737)" fill="#fff" opacity="0.2"/><path d="M678.559,518.963v18.852a2.828,2.828,0,0,1-2.964,2.673h0a2.828,2.828,0,0,1-2.964-2.673V518.963a2.871,2.871,0,0,1,3.312-2.654h0A2.785,2.785,0,0,1,678.559,518.963Z" transform="translate(-556.75 -485.723)" fill="#bfc7d3"/></g><path d="M695.064,433.6a10.467,10.467,0,0,0-6.449-4.732,23.567,23.567,0,0,0-8.112-.509,71.322,71.322,0,0,0-12.98,2.139c-2.636.695-5.37,1.625-7.15,3.721-.05.062-.105.136-.161.2-2.722.713-5.426,1.811-8.062,2.7a75.669,75.669,0,0,1-8.062,2.189,47.753,47.753,0,0,0,9.978-7.039,28.2,28.2,0,0,0,3.721-4.44,14.766,14.766,0,0,0,6.2.415c4.2-.719,7.591-3.721,10.747-6.648l10.152-9.339a20.585,20.585,0,0,0,4.341-4.961c1.457-2.71,1.588-5.935,1.625-9.029.05-4.254,0-8.508-.124-12.756L693.942,388a28.445,28.445,0,0,1,2.816-15.231c1.116-2.251,2.58-4.49,2.611-7.014.049-3.895-3.3-6.958-6.729-8.682s-7.287-2.828-10.1-5.476c-4.18-3.938-4.961-10.22-7.026-15.615a62.083,62.083,0,0,0-4.341-8.539l-4.019-7.008a99.373,99.373,0,0,0-6.747-10.66c-4.18-5.513-9.445-10.059-14.673-14.555l-27.187-23.423a255.527,255.527,0,0,0-20.4-16.39c-14.505-10.115-30.871-17.06-47.131-23.938-4.093-1.736-8.353-3.5-12.781-3.287a14.617,14.617,0,0,0-8.955,3.832,53.48,53.48,0,0,1-6.822-2.592l-.174-.081c.05-.366.105-.726.143-1.091.056-.484.087-.967.124-1.457a11.379,11.379,0,0,0,3.51-1.147,4.21,4.21,0,0,0,1.445-1.122,5.141,5.141,0,0,0,.738-2.747c.5-6.48.992-13.023.459-19.473s-2.152-12.98-5.581-18.462a9.586,9.586,0,0,0-4.229-4.093c-2.481-.992-5.352-.068-8-.515-4.583-.775-7.442-5.259-10.759-8.564-8.391-8.366-22.741-9.625-32.427-2.853-3.671,2.574-6.611,6.065-9.885,9.141s-7.113,5.86-11.535,6.462a5.618,5.618,0,0,0-2.338.62,4.816,4.816,0,0,0-1.662,2.685,47.486,47.486,0,0,0-2.809,10.784c-.043-.223-.081-.447-.118-.67a21.028,21.028,0,0,0-.105,4.1,11.963,11.963,0,0,0,1.476,4.961,6.729,6.729,0,0,0,3.392,3.237,9.24,9.24,0,0,0,3.268.527h.49c-.18.478-.353.955-.515,1.439a39.688,39.688,0,0,0-2.077,12.719c0,21.705,17.321,39.292,38.7,39.292a38.574,38.574,0,0,0,7.659-.806c.837.267,1.674.54,2.481.831a46.526,46.526,0,0,1,4.85,1.91c.67.316,3.38,1.9,6.654,3.938h0l-.223.465a24.645,24.645,0,0,0-7.125,23.832c2.369,9.222,10.139,17.128,9.358,26.623a16.253,16.253,0,0,0-.167,4.062,9.843,9.843,0,0,0,2.834,4.75c1.091,1.2,2.226,2.369,3.38,3.51-.093,6.059-.62,12.111-1.191,18.152-.05.527-.062,1.06-.068,1.6a11.163,11.163,0,0,0,2.679,7.113,11.537,11.537,0,0,1,2.177,8.4c-.49,4.192-2.555,7.994-3.938,11.969-6.239,17.879,1.426,38.04-2.89,56.5-1.06,4.546-2.846,8.967-3.1,13.643-.143,2.921.316,5.984-.806,8.682-.974,2.344-3,4.037-4.918,5.681q-4.062,3.479-7.913,7.194a109.534,109.534,0,0,0-11.994-5.643,21.553,21.553,0,0,0-2.046-.707c-4.85-4.539-10.964-7.442-16.707-10.778-4.763-2.76-9.3-5.86-13.866-8.961-4.341-2.977-8.775-5.978-12.446-9.8-1.86-1.935-3.516-4.068-5.519-5.836a46.933,46.933,0,0,0-5.581-3.994,224.272,224.272,0,0,1-25.1-18.883c-6.034-5.234-10.97-11.975-17.42-16.67-3.95-2.877-8.546-5.5-13.383-4.961a12.768,12.768,0,0,0-4.409,1.358,11.53,11.53,0,0,0-4.043-.905c-3.932-.124-7.541,2.009-10.915,4.062Q320.528,407.523,289.831,424c-4.13,2.22-8.285,4.422-12.229,6.964a83.055,83.055,0,0,0-20.18,18.4c-1.042,1.321-2.357,2.822-4.012,2.623a3.584,3.584,0,0,1-1.284-.459c-2.549-1.383-4.112-4.056-5.581-6.592a20.969,20.969,0,0,0-3.783-5.215h0a11.013,11.013,0,0,0-1.327-2.481c2.2-5.432,4.1-11,5.86-16.6.918-2.939,1.8-5.9,2.977-8.75,2.89-7.057,7.5-13.451,9.129-20.917.391-1.8.62-3.659.924-5.482a39.14,39.14,0,0,0,31.286-38.561c0-21.705-17.327-39.292-38.7-39.292s-38.7,17.587-38.7,39.292a39.392,39.392,0,0,0,18.046,33.221v.217a27.433,27.433,0,0,1-.366,3.721,47.1,47.1,0,0,1-4.26,11.851c-1.178,2.536-2.357,5.085-3.578,7.615a7.066,7.066,0,0,1-1.693-.571,5.125,5.125,0,0,1-1.9-2.989,106.962,106.962,0,0,0-6.431-15.045,26.045,26.045,0,0,0-3.721-5.712c-2.617-2.865-6.2-4.564-9.668-6.282-.62-.3-1.2-.62-1.792-.905a15.319,15.319,0,0,0-1.612-1.048c-2.884-1.631-6.084-2.8-8.49-5.085-1.8-1.712-3.045-3.938-4.732-5.755-2.809-3.02-6.685-4.744-10.449-6.387a13.862,13.862,0,0,0-6.158-1.612,7.387,7.387,0,0,0-.9.1,14.272,14.272,0,0,0-1.526.347,8.3,8.3,0,0,1-1.377-.918c-2.3-1.774-3.194-4.819-3.944-7.653-1.24-4.738-2.549-9.643-1.78-14.493a21.957,21.957,0,0,1,.546-2.481c.192-.316.378-.62.546-.961a32.353,32.353,0,0,0,16.936-49.9c-.316-.434-.62-.856-.974-1.277l.372-.2c3.429-2.1,4.211-7.107,2.623-10.84s-4.961-6.369-8.378-8.44c-.5-.3-1-.589-1.507-.874l-.434-.236c-.384-.211-.763-.415-1.147-.62l-.453-.229c-.453-.229-.905-.447-1.358-.657l-.2-.1c-.564-.254-1.129-.5-1.7-.738h0c-.552-.229-1.1-.44-1.662-.62l-.229-.087c-.527-.192-1.06-.372-1.594-.546l-.118-.037a41.692,41.692,0,0,0-12.068-2.034,57.726,57.726,0,0,0-11.938,1.321,57.84,57.84,0,0,0-11.163,3.206,39.8,39.8,0,0,0-15.3,11.473,14.753,14.753,0,0,0-2.555.422,25.678,25.678,0,0,0-9.135,4.843,29.145,29.145,0,0,0-6.077,6.028,26.009,26.009,0,0,0-4.1,9.78c-2.35,11,.54,22.325,2.667,33.376s3.355,23.094-1.86,33.01c-1.966,3.721-4.757,6.952-6.822,10.6s-3.5,8.062-2.307,12.111c1.445,4.918,6.2,8.012,8.682,12.477a15.291,15.291,0,0,1-1.693,16.744c-.167.2-.335.4-.515.62a6.2,6.2,0,0,1-.67.67c3.913,1.377,8.273-.105,11.783-2.313a20.918,20.918,0,0,0,6.952-6.691c4.434-7.28,2.443-16.694,4.006-25.11,2.053-11.02,10.338-20.849,9.2-32.006-.769-7.485-5.656-13.742-9.494-20.18a79.824,79.824,0,0,1-6.387-13.594c-.068-.2-.136-.4-.211-.62h0c-1.122-3.194-1.984-6.58-1.408-9.922a13.877,13.877,0,0,1,.967-3.144c0,.118,0,.242,0,.36a24.341,24.341,0,0,0,2.115,9.37c3.876,8.062,13.2,11.783,19.125,18.319.248.273.484.552.719.837.068.074.13.155.192.236l.5.62.211.291c.155.217.31.434.453.657l.192.279c.2.316.4.62.583.961,1.507-1.668,3.064-3.423,3.671-5.581a5.85,5.85,0,0,0,.13-.571c.05.05.093.105.143.161.118.664.211,1.327.3,2h0a13.477,13.477,0,0,0,.3,2.847,125.234,125.234,0,0,1-.3,18.039c-.211,3.194.62,7.938-1.414,10.319l-.062.068a3.278,3.278,0,0,1-.391.385h0c-.347.36-.7.713-1.029,1.085-6.822,7.69-9.922,18.6-9.761,29.06.161,11.9,3.963,23.429,8.273,34.5a96.875,96.875,0,0,0,5.308,11.783,20.576,20.576,0,0,0,4.1,5.513,24.7,24.7,0,0,0,5.953,3.553c.521.248,1.048.49,1.569.744l1.333.62,10.152,4.825c1.86,2.735,3.659,5.544,5.476,8.36.26.4.515.806.781,1.2,1.984,3.1,3.981,6.2,6.015,9.215l17.11,25.339a21.353,21.353,0,0,0,4.279,5.1,8.74,8.74,0,0,0,1.6,1,8.353,8.353,0,0,0,.887.366,2.828,2.828,0,0,0-.453,1.916,3.244,3.244,0,0,0,1.24,1.619c3.87,3.2,8.167,6.573,9.383,11.491.862,3.5,0,7.256.775,10.778,1.42,6.35,7.7,10.2,13.643,12.645,13.314,5.47,28.1,7.572,42.25,5.029s27.584-9.879,36.744-21.085c2.815-3.461,5.215-7.237,7.888-10.809a90.515,90.515,0,0,1,6.022-7.231,49.7,49.7,0,0,0,6.58-3.634c4.471-2.97,8.322-6.784,12.4-10.319,3.045-2.654,6.233-5.16,9.029-8.062a94.489,94.489,0,0,0,7.026-8.682q7.442-9.86,15.373-19.33c2.828-3.38,5.823-6.822,9.774-8.682l.18-.074c.471,2.778,2.673,5.135,4.217,7.535,6.387,9.922,13.073,20.136,22.945,26.462,5.408,3.46,11.522,5.581,17.625,7.516,15.5,4.9,31.255,8.744,47.019,12.6.521-.992,1.029-1.91,1.6-2.8a8.525,8.525,0,0,1,.682.819c.068.1.124.2.192.3a2.25,2.25,0,0,0-.335.093,4.409,4.409,0,0,0-2.226,2.344c-1.7,3.4-1.86,7.355-1.941,11.163-.056,3.721,0,7.442,0,11.163a9.631,9.631,0,0,0,.62,4.081c1.2,2.481,4.26,3.4,7,3.721a58.466,58.466,0,0,0,14.263-.558,10.993,10.993,0,0,0,1.321,3.157c2.654,4.341,7.237,7.206,12.006,8.887s9.823,2.35,14.778,3.336c8.8,1.749,17.8,4.546,26.555,2.574,3.491-.788,6.822-2.313,10.313-2.983,7.994-1.513,16.279,1.55,24.328.323a38.234,38.234,0,0,0,11.088-3.95,15.209,15.209,0,0,0,4.744-3.274,5.943,5.943,0,0,0,1.532-5.389,21.779,21.779,0,0,0-1.464-3.014,16.022,16.022,0,0,1-1.048-5.085,139.618,139.618,0,0,0-3.336-19.547c-.043-.18-.093-.366-.143-.552,6.084-2.412,11.535-6.2,16.918-9.972l11.578-8.1a68.776,68.776,0,0,1,11.714-7.094c6.412-2.815,13.513-3.622,20.5-3.615,2.859,0,5.724.143,8.571.4a3.719,3.719,0,0,0-.8,1.377,5.107,5.107,0,0,0,1.681,5.017,22.106,22.106,0,0,0,4.682,2.927,28.328,28.328,0,0,1,10.542,10.363c1.588,2.722,2.741,6.028,1.736,9.023-1.24,3.758-5.662,6.35-5.408,10.307a6.343,6.343,0,0,0,4.167,5.122,16.839,16.839,0,0,0,6.822.781c3.777-.118,7.665-.409,11.045-2.127a28.6,28.6,0,0,0,6.1-4.639,17.7,17.7,0,0,0,4.465-5.358,16.317,16.317,0,0,0,1.1-6.493c.186-10.394-1.606-20.93.459-31.113.62-3.1,1.612-6.133,2.139-9.259.831-4.961.515-9.972.2-14.958C696.453,438.258,696.267,435.728,695.064,433.6Z" transform="translate(-44.495 -102.059)" fill="url(#a)"/><path d="M804.658,346.469c-2.437,1.643-3.287,4.819-3.6,7.746-1.321,12.446,3.814,24.769,3.473,37.277-.273,9.953-3.981,19.448-7.64,28.707-6.239,15.8-9.488,32.948-10.747,49.884s-3.1,34.573-12.192,48.9c-2.065,3.243-4.471,6.257-6.493,9.519-2.121,3.411-3.8,7.07-5.674,10.617A114.239,114.239,0,0,1,740.7,567.439a29.1,29.1,0,0,1-8.273,6.158,16.657,16.657,0,0,1-12.936.136c-4.242-1.755-7.814-5.712-7.988-10.3-.155-4.105,2.295-7.808,4.75-11.094A182.109,182.109,0,0,1,744.783,522.1c1.929-1.625,3.963-3.305,4.961-5.625,1.122-2.673.663-5.705.806-8.6.229-4.62,2.028-9,3.1-13.507,4.341-18.288-3.374-38.257,2.9-55.974,1.4-3.938,3.467-7.7,3.956-11.851a11.262,11.262,0,0,0-2.189-8.322,10.94,10.94,0,0,1-2.685-7.045,13.393,13.393,0,0,1,.062-1.581c.757-8.118,1.507-16.273,1.1-24.415s-2.028-16.328-5.786-23.565c-1.947-3.752-4.465-7.262-5.668-11.311-1.935-6.555-.149-13.643,2.735-19.845,2.251-4.85,5.253-9.47,9.445-12.794a25.3,25.3,0,0,1,27.975-1.78c6.288,3.758,10.592,10.077,14.083,16.521C802.084,337.111,804.7,341.1,804.658,346.469Z" transform="translate(-285.112 -158.671)" opacity="0.06"/><path d="M793.1,273.7q-1.786,4.819-3.554,9.637c-.781,2.108-1.557,4.236-2.363,6.344-3.721,9.718-7.882,19.28-14.393,27.324.974-1.2-8.186-7.256-14.939-11.386-3.293-2.028-6.022-3.591-6.691-3.9a48.938,48.938,0,0,0-4.881-1.9c-2.574-.868-5.178-1.619-7.752-2.555-5.953-2.152-1.792-5.383.757-8.856,8.341-11.373,9.922-26.914,19.392-37.364a34.92,34.92,0,0,0,15.677,15.163c.13.068.267.13.4.186,5.625,2.629,11.839,3.764,17.655,5.966.316.118.682.285.788.62A1.24,1.24,0,0,1,793.1,273.7Z" transform="translate(-294.219 -135.331)" fill="#a1616a"/><path d="M799.2,636.756a27.975,27.975,0,0,0-2.884,26.772,9.071,9.071,0,0,0,2.09,3.231,9.782,9.782,0,0,0,3.988,1.86c12.316,3.5,25.463,2.815,38.077.62a67.013,67.013,0,0,0,12.539-3.194c6.245-2.388,11.82-6.2,17.327-10.009l11.646-8.025a70.582,70.582,0,0,1,11.783-7.032c6.45-2.784,13.594-3.584,20.62-3.578a96.215,96.215,0,0,1,17.984,1.718c3.95.763,8.682,1.55,11.46-1.333,1.588-1.631,2.059-4.019,2.369-6.27a93.426,93.426,0,0,0-.068-26.4,3.429,3.429,0,0,0-.763-2.016,3.1,3.1,0,0,0-1.538-.7c-5.488-1.24-11,1.333-16.328,3.1-11.082,3.684-22.982,4.124-34.257,7.156-11.832,3.181-22.945,9.2-35.175,10.425-5.829.583-11.684.074-17.525.2-5.42.118-10.474,1.991-15.783,2.214C814.525,625.953,805.626,627.739,799.2,636.756Z" transform="translate(-316.512 -268.669)" fill="#a1616a"/><path d="M799.2,636.756a27.975,27.975,0,0,0-2.884,26.772,9.071,9.071,0,0,0,2.09,3.231,9.782,9.782,0,0,0,3.988,1.86c12.316,3.5,25.463,2.815,38.077.62a67.013,67.013,0,0,0,12.539-3.194c6.245-2.388,11.82-6.2,17.327-10.009l11.646-8.025a70.582,70.582,0,0,1,11.783-7.032c6.45-2.784,13.594-3.584,20.62-3.578a96.215,96.215,0,0,1,17.984,1.718c3.95.763,8.682,1.55,11.46-1.333,1.588-1.631,2.059-4.019,2.369-6.27a93.426,93.426,0,0,0-.068-26.4,3.429,3.429,0,0,0-.763-2.016,3.1,3.1,0,0,0-1.538-.7c-5.488-1.24-11,1.333-16.328,3.1-11.082,3.684-22.982,4.124-34.257,7.156-11.832,3.181-22.945,9.2-35.175,10.425-5.829.583-11.684.074-17.525.2-5.42.118-10.474,1.991-15.783,2.214C814.525,625.953,805.626,627.739,799.2,636.756Z" transform="translate(-316.512 -268.669)" opacity="0.06"/><path d="M818.2,583.983a8.393,8.393,0,0,0-.143,4.161,7.753,7.753,0,0,0,2.481,3.336c10.542,9.439,25.606,11.392,39.689,12.924,3.814.415,7.7.831,11.473.143a39.92,39.92,0,0,0,9.823-3.64c6.822-3.231,13.68-6.5,19.528-11.249,5.736-4.651,10.338-10.6,16.279-14.989,6.753-4.961,15.057-7.8,21.085-13.643a28.348,28.348,0,0,0,8.267-15.665,44.709,44.709,0,0,0,0-12.341c-.49-4.719-1.278-9.519-3.523-13.7-2.6-4.837-6.964-8.49-11.572-11.491-9.749-6.338-21.228-10.27-32.868-10.17-16.124.143-31.007,9.526-42.579,20.062A125.318,125.318,0,0,0,827,557.366a121.061,121.061,0,0,0-8.794,26.617Z" transform="translate(-325.51 -229.006)" fill="#464353"/><path d="M818.2,583.983a8.393,8.393,0,0,0-.143,4.161,7.753,7.753,0,0,0,2.481,3.336c10.542,9.439,25.606,11.392,39.689,12.924,3.814.415,7.7.831,11.473.143a39.92,39.92,0,0,0,9.823-3.64c6.822-3.231,13.68-6.5,19.528-11.249,5.736-4.651,10.338-10.6,16.279-14.989,6.753-4.961,15.057-7.8,21.085-13.643a28.348,28.348,0,0,0,8.267-15.665,44.709,44.709,0,0,0,0-12.341c-.49-4.719-1.278-9.519-3.523-13.7-2.6-4.837-6.964-8.49-11.572-11.491-9.749-6.338-21.228-10.27-32.868-10.17-16.124.143-31.007,9.526-42.579,20.062A125.318,125.318,0,0,0,827,557.366a121.061,121.061,0,0,0-8.794,26.617Z" transform="translate(-325.51 -229.006)" opacity="0.06"/><path d="M804.658,346.469c-2.437,1.643-3.287,4.819-3.6,7.746-1.321,12.446,3.814,24.769,3.473,37.277-.273,9.953-3.981,19.448-7.64,28.707-6.239,15.8-9.488,32.948-10.747,49.884s-3.1,34.573-12.192,48.9c-2.065,3.243-4.471,6.257-6.493,9.519-2.121,3.411-3.8,7.07-5.674,10.617A114.239,114.239,0,0,1,740.7,567.439a29.1,29.1,0,0,1-8.273,6.158,16.657,16.657,0,0,1-12.936.136c-4.242-1.755-7.814-5.712-7.988-10.3-.155-4.105,2.295-7.808,4.75-11.094A182.109,182.109,0,0,1,744.783,522.1c1.929-1.625,3.963-3.305,4.961-5.625,1.122-2.673.663-5.705.806-8.6.229-4.62,2.028-9,3.1-13.507,4.341-18.288-3.374-38.257,2.9-55.974,1.4-3.938,3.467-7.7,3.956-11.851a11.262,11.262,0,0,0-2.189-8.322,10.94,10.94,0,0,1-2.685-7.045,13.393,13.393,0,0,1,.062-1.581c.757-8.118,1.507-16.273,1.1-24.415s-2.028-16.328-5.786-23.565c-1.947-3.752-4.465-7.262-5.668-11.311-1.935-6.555-.149-13.643,2.735-19.845,2.251-4.85,5.253-9.47,9.445-12.794a25.3,25.3,0,0,1,27.975-1.78c6.288,3.758,10.592,10.077,14.083,16.521C802.084,337.111,804.7,341.1,804.658,346.469Z" transform="translate(-285.112 -158.671)" fill="#a1616a"/><ellipse cx="23.472" cy="36.83" rx="23.472" ry="36.83" transform="translate(461.81 155.799)" fill="#a1616a"/><path d="M706.736,672.494a8.186,8.186,0,0,1,1.24,6.821,11.924,11.924,0,0,0,7.622,2.22,23.562,23.562,0,0,0,7.845-1.8,25.923,25.923,0,0,0,6.1-3.2,26.9,26.9,0,0,0,7.442-9.364c1.048-1.96,1.941-4.5.62-6.257a6,6,0,0,0-1.86-1.439,110.507,110.507,0,0,0-14.883-7.076,10.939,10.939,0,0,0-4.49-1,9.625,9.625,0,0,0-5.147,2.313,27.908,27.908,0,0,0-8.012,9.922c-.583,1.24-2.344,4.186-1.47,5.464.4.589,1.86.794,2.481,1.166a8.02,8.02,0,0,1,2.512,2.239Z" transform="translate(-281.316 -287.402)" fill="#fbbebe"/><path d="M706.736,672.494a8.186,8.186,0,0,1,1.24,6.821,11.924,11.924,0,0,0,7.622,2.22,23.562,23.562,0,0,0,7.845-1.8,25.923,25.923,0,0,0,6.1-3.2,26.9,26.9,0,0,0,7.442-9.364c1.048-1.96,1.941-4.5.62-6.257a6,6,0,0,0-1.86-1.439,110.507,110.507,0,0,0-14.883-7.076,10.939,10.939,0,0,0-4.49-1,9.625,9.625,0,0,0-5.147,2.313,27.908,27.908,0,0,0-8.012,9.922c-.583,1.24-2.344,4.186-1.47,5.464.4.589,1.86.794,2.481,1.166a8.02,8.02,0,0,1,2.512,2.239Z" transform="translate(-281.316 -287.402)" opacity="0.03"/><path d="M731.287,662.243c10.493,1.947,20.142,7.02,30.455,9.755,4.174,1.1,8.471,1.86,12.459,3.485s7.745,4.4,9.463,8.359a23.953,23.953,0,0,1,1.433,5.9c.447,2.859.812,6.053-.887,8.4-1.792,2.481-5.178,3.026-8.211,3.392-10.9,1.3-21.8,2.6-32.744,3.516a57.24,57.24,0,0,0-6.6.788c-1.8.36-3.553.905-5.339,1.327-2.313.539-4.664.881-7.008,1.24-6,.862-12.062,1.724-18.083,1.067-2.747-.3-5.823-1.191-7.033-3.671a9.371,9.371,0,0,1-.62-4.043c-.031-3.684-.062-7.361,0-11.039.056-3.777.242-7.7,1.953-11.063a4.4,4.4,0,0,1,2.239-2.326,5.141,5.141,0,0,1,1.922-.174c3.225.112,6.561.248,9.445,1.687,2.288,1.135,4.149,3.026,6.48,4.056,4.415,1.96,9.742.552,14.214,2.394a17.794,17.794,0,0,0,.031-9.755c-.775-3.293-1.86-6.524-2.189-9.885a6.3,6.3,0,0,0-.422-2.158C731.907,662.808,732.019,662.138,731.287,662.243Z" transform="translate(-280.187 -291.52)" fill="#464353"/><path d="M731.287,662.243c10.493,1.947,20.142,7.02,30.455,9.755,4.174,1.1,8.471,1.86,12.459,3.485s7.745,4.4,9.463,8.359a23.953,23.953,0,0,1,1.433,5.9c.447,2.859.812,6.053-.887,8.4-1.792,2.481-5.178,3.026-8.211,3.392-10.9,1.3-21.8,2.6-32.744,3.516a57.24,57.24,0,0,0-6.6.788c-1.8.36-3.553.905-5.339,1.327-2.313.539-4.664.881-7.008,1.24-6,.862-12.062,1.724-18.083,1.067-2.747-.3-5.823-1.191-7.033-3.671a9.371,9.371,0,0,1-.62-4.043c-.031-3.684-.062-7.361,0-11.039.056-3.777.242-7.7,1.953-11.063a4.4,4.4,0,0,1,2.239-2.326,5.141,5.141,0,0,1,1.922-.174c3.225.112,6.561.248,9.445,1.687,2.288,1.135,4.149,3.026,6.48,4.056,4.415,1.96,9.742.552,14.214,2.394a17.794,17.794,0,0,0,.031-9.755c-.775-3.293-1.86-6.524-2.189-9.885a6.3,6.3,0,0,0-.422-2.158C731.907,662.808,732.019,662.138,731.287,662.243Z" transform="translate(-280.187 -291.52)" opacity="0.06"/><path d="M180.655,468.244c-2.115-.67-4.155,1.2-5.339,3.1-4.924,7.739-4.521,18.071-.583,26.356a20.007,20.007,0,0,0,3.82,5.687c2.133,2.1,4.881,3.448,7.442,4.961a55.993,55.993,0,0,1,17.835,16.744c3.033,4.471,5.42,9.389,8.862,13.55,8.471,10.245,22.393,14.884,30.61,25.3,1.966,2.481,3.628,5.358,6.251,7.163a10.629,10.629,0,0,0,16.638-8.235,119.472,119.472,0,0,0,8.291-14.989,178.375,178.375,0,0,0,9.3-24.105c.924-2.915,1.817-5.848,3-8.682,2.908-7,7.541-13.327,9.178-20.719.657-2.964.819-6.046,1.774-8.924A16.986,16.986,0,0,1,302,478.631c6.45-6.27,9.922-15.4,15.051-22.784a49.19,49.19,0,0,0,5.625-9.333c1.377-3.374,1.9-7.237.62-10.648s-4.639-6.164-8.273-5.972a12.563,12.563,0,0,0-4.645,1.426,51.751,51.751,0,0,0-13.606,9.377,65.866,65.866,0,0,0-4.961,5.333c-7.578,9.054-13.507,20.043-14.028,31.838-.174,4.043.149,8.527-2.419,11.659-7.082,8.651-9.358,20.545-15.4,29.959-2.8,4.341-6,8.837-10.784,10.815a4.6,4.6,0,0,1-2.27.447c-1.91-.217-3.008-2.226-3.814-3.975a153.847,153.847,0,0,0-10.908-19.69c-1.625-2.481-3.417-5.023-6.015-6.48-1.774-.986-3.832-1.426-5.5-2.58-2.326-1.606-3.541-4.341-4.75-6.9a107.236,107.236,0,0,0-14.766-23.02c-2.691-3.206-6.239-6.518-10.394-6.04C186.807,462.526,184.388,466.687,180.655,468.244Z" transform="translate(-80.067 -203.262)" fill="#fbbebe"/><path d="M180.655,468.244c-2.115-.67-4.155,1.2-5.339,3.1-4.924,7.739-4.521,18.071-.583,26.356a20.007,20.007,0,0,0,3.82,5.687c2.133,2.1,4.881,3.448,7.442,4.961a55.993,55.993,0,0,1,17.835,16.744c3.033,4.471,5.42,9.389,8.862,13.55,8.471,10.245,22.393,14.884,30.61,25.3,1.966,2.481,3.628,5.358,6.251,7.163a10.629,10.629,0,0,0,16.638-8.235,119.472,119.472,0,0,0,8.291-14.989,178.375,178.375,0,0,0,9.3-24.105c.924-2.915,1.817-5.848,3-8.682,2.908-7,7.541-13.327,9.178-20.719.657-2.964.819-6.046,1.774-8.924A16.986,16.986,0,0,1,302,478.631c6.45-6.27,9.922-15.4,15.051-22.784a49.19,49.19,0,0,0,5.625-9.333c1.377-3.374,1.9-7.237.62-10.648s-4.639-6.164-8.273-5.972a12.563,12.563,0,0,0-4.645,1.426,51.751,51.751,0,0,0-13.606,9.377,65.866,65.866,0,0,0-4.961,5.333c-7.578,9.054-13.507,20.043-14.028,31.838-.174,4.043.149,8.527-2.419,11.659-7.082,8.651-9.358,20.545-15.4,29.959-2.8,4.341-6,8.837-10.784,10.815a4.6,4.6,0,0,1-2.27.447c-1.91-.217-3.008-2.226-3.814-3.975a153.847,153.847,0,0,0-10.908-19.69c-1.625-2.481-3.417-5.023-6.015-6.48-1.774-.986-3.832-1.426-5.5-2.58-2.326-1.606-3.541-4.341-4.75-6.9a107.236,107.236,0,0,0-14.766-23.02c-2.691-3.206-6.239-6.518-10.394-6.04C186.807,462.526,184.388,466.687,180.655,468.244Z" transform="translate(-80.067 -203.262)" opacity="0.03"/><ellipse cx="16.347" cy="14.753" rx="16.347" ry="14.753" transform="translate(83.807 205.845)" fill="#fbbebe"/><circle cx="5.885" cy="5.885" r="5.885" transform="translate(109.598 211.68)" fill="#fbbebe"/><ellipse cx="22.517" cy="6.022" rx="22.517" ry="6.022" transform="translate(79.782 208.555)" fill="#fbbebe"/><path d="M151.726,378.466a40.788,40.788,0,0,1,1.29,5.3,31.669,31.669,0,0,1-4.874-6.406A4.769,4.769,0,0,1,147.28,376a36.428,36.428,0,0,1-3.38-14.53A31.851,31.851,0,1,1,184.123,392.2c.974-3.138,2.307-6.2,2.481-9.457a6.822,6.822,0,0,0-.459-3.194,7.28,7.28,0,0,0-2.338-2.691,20.2,20.2,0,0,0-12.577-3.82,34.511,34.511,0,0,0-12.93,3.1c-1.284.552-2.822,1.3-4.341,1.8A11.3,11.3,0,0,1,151.726,378.466Z" transform="translate(-69.507 -165.173)" fill="#fbbebe"/><path d="M237.115,481.33c-2.04,3.268-6.4,4.267-10.232,3.975-7.144-.527-13.643-4.341-19.162-8.93s-10.344-9.922-15.987-14.338c-10.5-8.229-22.325-11.535-35.683-11.727,2.611-2.164,1.65-7.3,1.86-10.673.459-6.822.893-13.823,0-20.545-.093-.726-.2-1.439-.322-2.152.211.223.434.44.664.664a31.888,31.888,0,0,0,30.443,7.764,24.8,24.8,0,0,0-.8,3.3c-.769,4.794.521,9.656,1.792,14.35.757,2.809,1.656,5.823,3.969,7.578a17.477,17.477,0,0,0,5.172,2.189,28.526,28.526,0,0,1,9.637,5.581,77.96,77.96,0,0,0,5.823,5.215,40.535,40.535,0,0,0,6.294,3.25A78.756,78.756,0,0,1,235.714,476a4.961,4.961,0,0,1,1.966,2.332,3.833,3.833,0,0,1-.564,3Z" transform="translate(-74.122 -198.345)" fill="#fbbebe"/><path d="M267.108,559.751c-.428,2.828-3.02,5.036-4.85,7.231-4.974,6-10.015,12.025-15.578,17.519a243.793,243.793,0,0,1-19.02,16.341l-8.471,6.778a10.665,10.665,0,0,1-3.6,2.17,6.58,6.58,0,0,1-4.639-.552,9.064,9.064,0,0,1-1.606-.986,21.75,21.75,0,0,1-4.3-5.054q-8.6-12.546-17.209-25.1c-2.046-2.989-4.056-6.059-6.053-9.129-.267-.4-.521-.8-.788-1.2-1.823-2.791-3.64-5.581-5.507-8.279l-10.208-4.781-1.34-.62-1.581-.738a25.046,25.046,0,0,1-5.984-3.516,20.262,20.262,0,0,1-4.124-5.464,95.629,95.629,0,0,1-5.346-11.7c-4.341-10.958-8.161-22.381-8.322-34.176-.143-10.375,2.921-21.166,9.817-28.781a30.894,30.894,0,0,1,3.033-2.939,5.422,5.422,0,0,1,4.4-1.519c1.705.242,3.324.49,4.961.769q6.772,1.166,13.439,2.853c4.006,1.023,8.155,2.189,12.2,1.377.651-.13,1.3-.316,1.941-.484.527-.136,1.048-.267,1.588-.353a7.354,7.354,0,0,1,.905-.1,14.24,14.24,0,0,1,6.2,1.6c3.789,1.625,7.69,3.336,10.542,6.326,1.7,1.8,2.946,4.006,4.757,5.7,2.419,2.264,5.643,3.423,8.546,5.042a15.325,15.325,0,0,1,1.619,1.036,18.385,18.385,0,0,1,3.1,2.946h0c3.758,4.434,5.991,10.418,10.139,14.828a60.528,60.528,0,0,1,8.6,11.64c.391.7.769,1.408,1.141,2.127q.93,1.8,1.73,3.64c.136.316.273.62.4.949a56.911,56.911,0,0,1,2.04,5.687c1.408,4.682,2.344,9.736,5.47,13.494,2.183,2.611,5.209,4.341,7.758,6.592a13.724,13.724,0,0,1,3.77,5.129A7.33,7.33,0,0,1,267.108,559.751Z" transform="translate(-67.483 -216.68)" fill="#fbbebe"/><path d="M255.875,523.371q-1.067,1.346-2.189,2.654c-.124.161-.26.316-.4.471a118.437,118.437,0,0,1-22.238,20.161c-5.1,3.56-10.474,6.716-15.839,9.867l-9.922,5.811c-4.149,2.437-8.353,4.893-12.955,6.294-1.476.44-3.02.794-4.527,1.209-.267-.4-.521-.8-.788-1.2-1.823-2.791-3.64-5.581-5.507-8.279l-10.208-4.781a59.778,59.778,0,0,0,14.8-13.259c6.2-7.646,10.97-16.366,15.671-25.029a18.818,18.818,0,0,0,1.929-4.465,15.352,15.352,0,0,0-.664-7.882,41.55,41.55,0,0,0-16.62-22.406c-5.581-3.721-11.932-5.984-18.245-8.167-4.409-1.526-9.24-3-13.724-2.375a30.142,30.142,0,0,1,3.033-2.933,5.407,5.407,0,0,1,4.4-1.526c1.705.242,3.324.49,4.961.775,3.318,1.017,6.58,2.232,9.823,3.485a46.062,46.062,0,0,1,6.2,2.809,55.538,55.538,0,0,1,5.712,4,142.707,142.707,0,0,0,16.942,11.107c6.822,3.764,13.984,6.822,21.141,9.922a5.625,5.625,0,0,0,2.45.62,1.922,1.922,0,0,0,1.86-1.451,2.338,2.338,0,0,0-.3-1.3c-1.24-2.536-4.056-3.814-6.6-5.048-10.58-5.122-19.882-12.5-29.085-19.814a2.923,2.923,0,0,1-.583-.62l1.588-.354a236.589,236.589,0,0,0,32.527,19.609q.9.459,1.8.893c.434.217.862.428,1.3.62h0c3.057,1.5,6.115,3.1,8.415,5.581a25.7,25.7,0,0,1,3.721,5.65,106.172,106.172,0,0,1,6.474,14.884,3.385,3.385,0,0,0,.118.323,5.73,5.73,0,0,0,1.141,2.127,2.414,2.414,0,0,0,.651.515C253.313,522.565,254.913,522.49,255.875,523.371Z" transform="translate(-73.515 -217.546)" opacity="0.06"/><path d="M196.018,469.42a235.944,235.944,0,0,0,32.527,19.6l1.8.9c3.473,1.7,7.088,3.386,9.724,6.2a25.886,25.886,0,0,1,3.721,5.656,105.109,105.109,0,0,1,6.468,14.884,5.034,5.034,0,0,0,1.916,2.964c1.054.583,2.729.539,3.665,1.42-.843,1.054-1.7,2.1-2.586,3.1a118.262,118.262,0,0,1-22.238,20.167c-5.1,3.56-10.474,6.716-15.839,9.867l-9.922,5.811c-4.149,2.431-8.353,4.887-12.955,6.288-1.73.527-3.56.924-5.315,1.432-1.823-2.791-3.64-5.581-5.507-8.279l-11.547-5.408a58.119,58.119,0,0,0,16.124-14.052c6.2-7.64,10.97-16.359,15.671-25.023a18.917,18.917,0,0,0,1.929-4.465,15.376,15.376,0,0,0-.664-7.888,41.55,41.55,0,0,0-16.576-22.344c-5.581-3.721-11.932-5.978-18.245-8.167-4.409-1.519-9.24-3-13.724-2.369a30.89,30.89,0,0,1,3.033-2.939,5.422,5.422,0,0,1,4.4-1.519c1.705.242,3.324.49,4.961.769,3.318,1.023,6.58,2.239,9.823,3.491a45.272,45.272,0,0,1,6.2,2.809,55.523,55.523,0,0,1,5.712,4A142.631,142.631,0,0,0,205.55,487.4c6.822,3.77,13.984,6.853,21.141,9.922a5.613,5.613,0,0,0,2.45.62A1.91,1.91,0,0,0,231,496.5a2.326,2.326,0,0,0-.3-1.29c-1.24-2.536-4.056-3.82-6.6-5.048-10.58-5.122-19.882-12.5-29.085-19.845a2.746,2.746,0,0,1-.583-.62Z" transform="translate(-73.515 -216.68)" fill="#ebe9eb"/><circle cx="38.926" cy="38.926" r="38.926" transform="translate(170.466 208.555)" fill="#ebe9eb"/><path d="M410.325,641.465c7.287-2.288,14.685-4.62,21.085-8.806,4.5-2.939,8.372-6.722,12.452-10.22,3.07-2.63,6.27-5.11,9.085-8.012a94.62,94.62,0,0,0,7.07-8.57q7.467-9.774,15.423-19.175c2.847-3.343,5.854-6.747,9.829-8.608,7.063-3.318,15.355-1.079,22.809,1.2,11.163,3.411,22.269,7.026,32.713,12.217,5.941,2.958,11.7,6.257,17.693,9.091,10.964,5.178,22.6,8.732,34.2,12.266a4.34,4.34,0,0,0,2.729.223,4.013,4.013,0,0,0,1.619-1.352,23.109,23.109,0,0,0,3.591-6.2,1.191,1.191,0,0,0-.292-1.606c-4.961-4.831-11.4-7.8-17.414-11.243-4.787-2.735-9.37-5.8-13.947-8.874-4.4-2.946-8.831-5.922-12.521-9.711-1.86-1.916-3.535-4.031-5.55-5.78a46.514,46.514,0,0,0-5.643-3.957A226.758,226.758,0,0,1,520,545.634c-6.065-5.184-11.032-11.863-17.513-16.514-3.975-2.853-8.6-5.451-13.463-4.93-5.916.62-10.282,5.581-14.406,9.86-13.86,14.394-31.348,24.694-46.815,37.351C415.181,581.72,403.38,593.98,388,599.425c.688,2.282.93,4.564,1.625,6.822a71.286,71.286,0,0,0,3.231,9.2,72.381,72.381,0,0,0,4.3,7.69l6.164,10.065a25.444,25.444,0,0,0,4.31,5.749C408.558,639.846,410.325,640.169,410.325,641.465Z" transform="translate(-162.23 -239.059)" fill="#464353"/><path d="M410.325,641.465c7.287-2.288,14.685-4.62,21.085-8.806,4.5-2.939,8.372-6.722,12.452-10.22,3.07-2.63,6.27-5.11,9.085-8.012a94.62,94.62,0,0,0,7.07-8.57q7.467-9.774,15.423-19.175c2.847-3.343,5.854-6.747,9.829-8.608,7.063-3.318,15.355-1.079,22.809,1.2,11.163,3.411,22.269,7.026,32.713,12.217,5.941,2.958,11.7,6.257,17.693,9.091,10.964,5.178,22.6,8.732,34.2,12.266a4.34,4.34,0,0,0,2.729.223,4.013,4.013,0,0,0,1.619-1.352,23.109,23.109,0,0,0,3.591-6.2,1.191,1.191,0,0,0-.292-1.606c-4.961-4.831-11.4-7.8-17.414-11.243-4.787-2.735-9.37-5.8-13.947-8.874-4.4-2.946-8.831-5.922-12.521-9.711-1.86-1.916-3.535-4.031-5.55-5.78a46.514,46.514,0,0,0-5.643-3.957A226.758,226.758,0,0,1,520,545.634c-6.065-5.184-11.032-11.863-17.513-16.514-3.975-2.853-8.6-5.451-13.463-4.93-5.916.62-10.282,5.581-14.406,9.86-13.86,14.394-31.348,24.694-46.815,37.351C415.181,581.72,403.38,593.98,388,599.425c.688,2.282.93,4.564,1.625,6.822a71.286,71.286,0,0,0,3.231,9.2,72.381,72.381,0,0,0,4.3,7.69l6.164,10.065a25.444,25.444,0,0,0,4.31,5.749C408.558,639.846,410.325,640.169,410.325,641.465Z" transform="translate(-162.23 -239.059)" opacity="0.06"/><path d="M694.573,681.375a8.2,8.2,0,0,1,1.24,6.822,11.9,11.9,0,0,0,7.6,2.239,23.887,23.887,0,0,0,7.863-1.8,26.155,26.155,0,0,0,6.1-3.2,27.23,27.23,0,0,0,7.473-9.37c1.048-1.953,1.941-4.49.589-6.251a5.843,5.843,0,0,0-1.86-1.439,110.746,110.746,0,0,0-14.853-7.076,11.069,11.069,0,0,0-4.49-1.011,9.633,9.633,0,0,0-5.154,2.319,27.908,27.908,0,0,0-8.006,9.922c-.583,1.24-2.344,4.192-1.476,5.47.4.589,1.86.794,2.481,1.16A8.026,8.026,0,0,1,694.573,681.375Z" transform="translate(-276.706 -290.783)" fill="#fbbebe"/><path d="M723.5,670.623c10.493,1.953,20.142,7.02,30.455,9.755,4.174,1.1,8.471,1.86,12.459,3.485s7.746,4.4,9.464,8.36a24.019,24.019,0,0,1,1.432,5.9c.446,2.859.812,6.053-.887,8.4-1.792,2.481-5.178,3.032-8.211,3.392-10.9,1.3-21.8,2.6-32.744,3.516a58.638,58.638,0,0,0-6.592.788c-1.8.366-3.553.905-5.339,1.327-2.307.546-4.663.881-7.008,1.24-6,.856-12.062,1.724-18.083,1.06-2.747-.3-5.823-1.191-7.032-3.671a9.369,9.369,0,0,1-.62-4.043c0-3.677-.062-7.361,0-11.039.056-3.777.242-7.7,1.953-11.063a4.415,4.415,0,0,1,2.239-2.326,5.143,5.143,0,0,1,1.922-.174c3.225.112,6.561.248,9.445,1.687,2.288,1.135,3.938-2.257,6.27-1.24,4.422,1.953,1.426-3.969,5.891-2.127,1.042-3.212,5.47-1.3,4.7-4.6s1.991-1.86,1.674-5.246a6.331,6.331,0,0,0-.422-2.158C724.12,671.188,724.231,670.518,723.5,670.623Z" transform="translate(-277.237 -294.704)" fill="#464353"/><path d="M201.452,342.681c-2.406,1.4-5.389,1.141-8.192,1.079a50.94,50.94,0,0,0-7.336.378,6.929,6.929,0,0,0-2.524.67,6.313,6.313,0,0,0-2.344,2.735,19.386,19.386,0,0,0-1.978,6.09c-.347,2.388-.31,5-1.8,6.89-2.028,2.574-5.191,2.177-8.062,2.685a21.705,21.705,0,0,0-7.076,2.7,17.482,17.482,0,0,0-8.2,12.037c-.081.564-.136,1.122-.161,1.687-.062,1.6.1,3.231-.112,4.8a8.358,8.358,0,0,1-.236,1.16,2.471,2.471,0,0,1-.105.329c-.093-.726-.2-1.439-.322-2.152a31.67,31.67,0,0,1-4.874-6.406A4.77,4.77,0,0,1,147.27,376a36.428,36.428,0,0,1-3.38-14.53,31.844,31.844,0,0,1,57.556-18.79Z" transform="translate(-69.503 -165.177)" opacity="0.06"/><path d="M178.483,321.758c-1.594-3.69-4.961-6.307-8.422-8.36a45.849,45.849,0,0,0-22.635-6.729,58.4,58.4,0,0,0-11.956,1.24,58.5,58.5,0,0,0-11.206,3.181,39.918,39.918,0,0,0-15.386,11.361,15.465,15.465,0,0,0-2.574.415,25.934,25.934,0,0,0-9.184,4.8A29.234,29.234,0,0,0,91,333.64a25.662,25.662,0,0,0-4.124,9.693c-2.363,10.89.546,22.127,2.679,33.06s3.38,22.877-1.86,32.7c-1.978,3.721-4.788,6.884-6.9,10.505s-3.51,7.981-2.313,12c1.426,4.887,6.226,7.987,8.732,12.384a14.883,14.883,0,0,1-2.9,17.811c3.938,1.364,8.322-.105,11.87-2.288a20.973,20.973,0,0,0,6.989-6.629c4.459-7.219,2.481-16.539,4.031-24.88,2.065-10.915,10.4-20.651,9.253-31.7-.775-7.442-5.687-13.612-9.55-19.993a78.343,78.343,0,0,1-6.468-13.414c-1.24-3.33-2.245-6.908-1.631-10.406a14.009,14.009,0,0,1,.974-3.1v.353a23.758,23.758,0,0,0,2.121,9.3c4.614,9.426,16.9,12.9,22.1,22.009,1.519-1.656,3.1-3.392,3.721-5.55.546-1.922.267-3.969.347-5.966a17.287,17.287,0,0,1,8.36-13.718,21.477,21.477,0,0,1,7.076-2.7c2.865-.515,6.028-.124,8.062-2.7,1.488-1.86,1.451-4.5,1.8-6.884a19.263,19.263,0,0,1,1.978-6.1,6.257,6.257,0,0,1,2.344-2.729,6.823,6.823,0,0,1,2.53-.67,50.8,50.8,0,0,1,7.33-.378c2.834.068,5.867.322,8.3-1.135C179.289,330.44,180.076,325.479,178.483,321.758Z" transform="translate(-44.494 -156.458)" fill="#464353"/><path d="M774.751,266.387v.254c-1.122,9.674-10.425,9.228-12.6,24.471-.856,5.972-9.922,7.076-15.882,8.682-2.574-.868-5.178-1.619-7.752-2.555-5.953-2.152-1.792-5.383.757-8.856,8.341-11.373,9.922-26.914,19.392-37.364a34.92,34.92,0,0,0,15.677,15.163A2.237,2.237,0,0,0,774.751,266.387Z" transform="translate(-294.219 -135.319)" opacity="0.06"/><path d="M751.472,243.008a39.392,39.392,0,0,1-.248,4.391,38.926,38.926,0,1,1,.248-4.391Z" transform="translate(-270.723 -117.491)" fill="#a1616a"/><path d="M799.367,273.859c4.459-.217,8.744,1.532,12.862,3.25,16.328,6.822,32.793,13.7,47.385,23.714a261.092,261.092,0,0,1,20.514,16.242l27.342,23.231c5.253,4.459,10.542,8.961,14.759,14.418a97.946,97.946,0,0,1,6.778,10.542l4.056,6.915a62.027,62.027,0,0,1,4.341,8.465c2.084,5.339,2.859,11.566,7.064,15.466,2.822,2.623,6.71,3.69,10.158,5.42s6.822,4.769,6.766,8.626c0,2.481-1.5,4.713-2.629,6.946a27.844,27.844,0,0,0-2.828,15.088l-44.712-34.17a15.188,15.188,0,0,0-5.829-3.219c-2.84-.62-5.736.453-8.477,1.42a164.371,164.371,0,0,1-67.416,8.862c-10.1-.794-20.359-2.611-29.2-7.553-4.893-2.729-9.222-6.344-13.519-9.922a165.683,165.683,0,0,1-15.5-14.127c-1.24-1.371-2.53-2.877-2.846-4.713a15.631,15.631,0,0,1,.167-4.019c.781-9.408-7.032-17.24-9.414-26.375a24.185,24.185,0,0,1,7.572-23.981c5.327,4.663,5.135,12.856,4.515,19.907-.837,9.494,1.817,14.2.98,23.7,3.374-.124,2.76,2.047,4.2-1.011s1.718-6.505,1.991-9.873q1.495-18.269,3.628-36.477c.707-6.071,1.513-12.13,2.288-18.2.471-3.69.409-7.138,2.356-10.412C789.414,277.493,794.009,274.113,799.367,273.859Z" transform="translate(-302.959 -143.988)" fill="#ebe9eb"/><path d="M820.151,291.473c2.84-.893,5.9-.074,8.75.775q7.566,2.245,15.045,4.744c4.074,1.358,8.2,2.815,11.652,5.377,3.578,2.654,6.2,6.344,8.8,9.972a43.164,43.164,0,0,1,4.961,8.217c1.612,3.882,2.047,8.136,2.481,12.316a16.163,16.163,0,0,1-.068,5.439,13.208,13.208,0,0,1-3,5.228,35.765,35.765,0,0,1-7.355,6.592c-7.3,4.912-16.124,6.958-24.719,8.763a162.688,162.688,0,0,1-23.224,3.584c-3.045.192-6.58,0-8.44-2.406a9.489,9.489,0,0,1-1.24-2.443,92.5,92.5,0,0,1-5.811-37.971,27.983,27.983,0,0,1,1.085-6.958,33.49,33.49,0,0,1,2.388-5.24c2.35-4.446,4.825-9.048,8.874-12.025,4.236-3.1,9.724-4.081,14.977-3.882" transform="translate(-317.908 -150.539)" fill="#a1616a"/><path d="M822.828,345.059c-2.437,1.643-3.287,4.819-3.6,7.746-1.321,12.446,3.814,24.769,3.473,37.277-.273,9.922-3.981,19.448-7.64,28.707-6.239,15.8-9.488,32.948-10.747,49.884s-3.1,34.573-12.192,48.9c-2.065,3.243-4.471,6.257-6.493,9.519-2.121,3.411-3.8,7.07-5.674,10.617a114.235,114.235,0,0,1-21.085,28.322,29.1,29.1,0,0,1-8.273,6.158,16.657,16.657,0,0,1-12.936.136c-4.242-1.755-7.814-5.712-7.987-10.3-.155-4.105,2.294-7.808,4.75-11.094a182.1,182.1,0,0,1,28.527-30.238c1.929-1.625,3.963-3.305,4.961-5.625,1.123-2.673.664-5.705.806-8.6.229-4.62,2.028-9,3.1-13.507,4.341-18.288-3.374-38.257,2.9-55.974,1.4-3.938,3.467-7.7,3.956-11.851a11.29,11.29,0,0,0-2.189-8.322,10.976,10.976,0,0,1-2.691-7.045,12.167,12.167,0,0,1,.068-1.581c.757-8.118,1.507-16.273,1.1-24.415s-2.028-16.328-5.786-23.565c-1.947-3.752-4.465-7.262-5.668-11.311-1.935-6.555-.149-13.643,2.735-19.845,2.251-4.85,5.253-9.47,9.445-12.794a25.3,25.3,0,0,1,27.975-1.78c6.288,3.758,10.592,10.077,14.084,16.521C820.254,335.7,822.9,339.689,822.828,345.059Z" transform="translate(-292.014 -158.135)" opacity="0.06"/><path d="M825.107,345.059c-2.437,1.643-3.287,4.819-3.6,7.746-1.321,12.446,3.814,24.769,3.473,37.277-.273,9.922-3.981,19.448-7.64,28.707-6.239,15.8-9.482,32.948-10.747,49.884s-3.1,34.573-12.192,48.9c-2.065,3.243-4.465,6.257-6.493,9.519-2.115,3.411-3.8,7.07-5.674,10.617a114.372,114.372,0,0,1-21.085,28.322,29.128,29.128,0,0,1-8.279,6.158,16.657,16.657,0,0,1-12.936.136c-4.236-1.755-7.808-5.712-7.981-10.3-.161-4.105,2.288-7.808,4.75-11.094a182.066,182.066,0,0,1,28.527-30.238c1.929-1.625,3.969-3.305,4.961-5.625,1.129-2.673.664-5.705.806-8.6.229-4.62,2.028-9,3.1-13.507,4.341-18.288-3.374-38.257,2.9-55.974,1.4-3.938,3.473-7.7,3.963-11.851a11.318,11.318,0,0,0-2.189-8.322,10.915,10.915,0,0,1-2.766-7.045,12.167,12.167,0,0,1,.068-1.581c.75-8.118,1.5-16.273,1.091-24.415s-2.028-16.328-5.786-23.565c-1.947-3.752-4.465-7.262-5.668-11.311-1.935-6.555-.149-13.643,2.735-19.845,2.257-4.85,5.253-9.47,9.445-12.794a25.3,25.3,0,0,1,27.975-1.78c6.288,3.758,10.592,10.077,14.083,16.521C822.521,335.7,825.151,339.689,825.107,345.059Z" transform="translate(-292.88 -158.135)" fill="#a1616a"/><path d="M982.973,627l-.533.161" transform="translate(-388.031 -278.137)" fill="#464353"/><path d="M808.15,671.24a4.566,4.566,0,0,1,.112-.62" transform="translate(-321.826 -294.707)" fill="#464353"/><path d="M1014.108,599.363c1.786-2.065,4.54-2.989,7.188-3.677a72.167,72.167,0,0,1,13.023-2.121,24.343,24.343,0,0,1,8.161.5,10.515,10.515,0,0,1,6.487,4.688c1.184,2.109,1.37,4.614,1.525,7.026.322,4.961.62,9.922-.2,14.809-.527,3.1-1.513,6.1-2.152,9.178-2.071,10.084-.273,20.521-.459,30.815a15.931,15.931,0,0,1-1.11,6.437,17.906,17.906,0,0,1-4.49,5.308,28.46,28.46,0,0,1-6.133,4.6c-3.4,1.705-7.312,1.991-11.113,2.109a17.014,17.014,0,0,1-6.821-.775c-2.127-.85-4.043-2.76-4.2-5.073-.248-3.926,4.18-6.493,5.445-10.214,1-2.964-.149-6.239-1.749-8.936a28.278,28.278,0,0,0-10.611-10.263,22.506,22.506,0,0,1-4.707-2.9c-1.352-1.259-2.27-3.212-1.693-4.961.689-2.115,3.151-3.1,5.364-3.312s4.552-.05,6.543-1.036a8.941,8.941,0,0,0,3.857-4.341,16.122,16.122,0,0,0,.7-12.136,14.909,14.909,0,0,0-2.307-4.2c-.93-1.191-2.84-2.2-3.5-3.5C1009.978,605.043,1012.527,601.223,1014.108,599.363Z" transform="translate(-394.825 -265.384)" fill="#ebe9eb"/><path d="M905.156,444.774c-10.245-9.054-24.527-11.516-37.922-14.263q-10.35-2.115-20.6-4.713a76.825,76.825,0,0,0-13.643-2.673c-4.651-.316-9.439.335-13.42,2.7s-6.983,6.66-7.008,11.293c0,1.86.44,3.684.3,5.526-.217,2.964-1.86,5.581-2.983,8.353a21.953,21.953,0,0,0-.75,13.742c1.984,7.237,7.7,13.612,7.206,21.085-.825,12.508-.571,25.581,2,37.829s5.773,24.552,5.7,37.085-3.87,25.711-13.228,34.058a51.119,51.119,0,0,0,22.53,12.31c7.212,1.8,15.789,1.625,20.924-3.752a5.788,5.788,0,0,0,1.929-4.6,9,9,0,0,0-1.333-3.008c-3.529-6.319-3.1-14.108-1.538-21.166s4.236-13.916,4.911-21.122c.5-5.228-.062-10.542.936-15.7.769-3.95,2.431-7.671,3.429-11.572,2.946-11.572-.149-23.72-3.225-35.249,2.574,5.922,7.442,10.543,12.477,14.561,7.64,6.09,16.88,11.467,26.592,10.388,8.645-.967,16.006-6.977,21.085-14.028.043-8.155,2.871-15.863,2.369-24a60.934,60.934,0,0,0-1.91-10.573,52.5,52.5,0,0,0-3.721-11.33C913.888,451.235,909.113,448.265,905.156,444.774Z" transform="translate(-321.91 -200.666)" opacity="0.06"/><path d="M908.582,444.774c-10.245-9.054-24.521-11.516-37.922-14.263q-10.35-2.115-20.595-4.713a76.932,76.932,0,0,0-13.643-2.673c-4.645-.316-9.432.335-13.414,2.7s-6.989,6.66-7.008,11.293c0,1.86.434,3.684.3,5.526-.211,2.964-1.891,5.581-2.983,8.353a21.953,21.953,0,0,0-.744,13.742c1.978,7.237,7.7,13.612,7.206,21.085-.831,12.508-.577,25.581,1.991,37.829s5.774,24.552,5.7,37.085-3.895,25.668-13.259,34a51.149,51.149,0,0,0,22.53,12.31c7.212,1.8,15.8,1.625,20.924-3.752a5.788,5.788,0,0,0,1.929-4.6,9,9,0,0,0-1.333-3.008c-3.529-6.319-3.1-14.108-1.538-21.166s4.236-13.916,4.918-21.122c.49-5.228-.068-10.543.937-15.7.763-3.95,2.431-7.671,3.423-11.572,2.946-11.572-.143-23.721-3.225-35.249,2.574,5.922,7.442,10.542,12.484,14.561,7.64,6.09,16.874,11.467,26.586,10.387,8.645-.967,16.006-6.977,21.085-14.028.037-8.155,2.865-15.863,2.363-24a60.907,60.907,0,0,0-1.91-10.573,52.156,52.156,0,0,0-3.721-11.33C917.351,451.235,912.539,448.265,908.582,444.774Z" transform="translate(-323.215 -200.666)" fill="#a1616a"/><path d="M804.806,699.71A38.723,38.723,0,0,1,793.265,688.9a30.422,30.422,0,0,0-3.473-4.552,6.706,6.706,0,0,0-5.147-2.115c-2.152.223-3.876,1.86-5.24,3.547-3.659,4.533-6.016,10.077-10.077,14.263-4.688,4.843-11.231,7.442-17.761,9.1s-13.271,2.536-19.671,4.639c-2.009.657-4.124,1.55-5.209,3.367-1.377,2.313-.62,5.346.831,7.64,2.673,4.341,7.274,7.138,12.074,8.8s9.879,2.326,14.883,3.305c8.843,1.73,17.9,4.5,26.7,2.549,3.51-.781,6.822-2.294,10.369-2.952,8.062-1.5,16.378,1.532,24.471.316a38.3,38.3,0,0,0,11.163-3.913,15.392,15.392,0,0,0,4.775-3.243,5.844,5.844,0,0,0,1.544-5.339,21.525,21.525,0,0,0-1.47-2.989,15.371,15.371,0,0,1-1.054-5.036,137.985,137.985,0,0,0-3.4-19.4c-.552-2.226-1.377-4.707-3.454-5.681a1.861,1.861,0,0,0-1.383-.155c-.738.279-.98,1.172-1.2,1.922a11.833,11.833,0,0,1-20.577,4.081" transform="translate(-290.606 -299.109)" fill="#ebe9eb"/><path d="M752.791,243.012a39.392,39.392,0,0,1-.248,4.391,12.558,12.558,0,0,1-10.79-3.591c-1.309-1.389-2.288-3.07-3.585-4.471s-3.1-2.567-4.961-2.419a6.436,6.436,0,0,0-4.05,2.288,13.2,13.2,0,0,0-3.02,5.339c-.415,1.408-.62,3.008-1.786,3.944s-2.6.874-3.981.825a11.873,11.873,0,0,1-5.234-.992c-2.977-1.606-3.981-5.284-5.085-8.484C708.19,234.467,704,224.3,697.5,223.211c-3.1-.515-6.871,1.122-9.3,2.89-3.665,2.66-6.369,4.384-11.107,4.31h0a38.933,38.933,0,0,1,75.763,12.6Z" transform="translate(-272.042 -117.495)" opacity="0.06"/><path d="M672.055,216.205a9.356,9.356,0,0,1-3.287-.521c-3.008-1.178-4.471-4.651-4.725-7.87-.4-4.905,1.24-9.718,2.884-14.363a4.76,4.76,0,0,1,1.668-2.66,5.792,5.792,0,0,1,2.35-.589c4.453-.62,8.316-3.343,11.6-6.394s6.251-6.512,9.922-9.054c9.736-6.716,24.186-5.463,32.607,2.822,3.336,3.274,6.2,7.715,10.828,8.484,2.667.44,5.525-.478,8.062.515a9.512,9.512,0,0,1,4.254,4.05c3.46,5.432,5.085,11.87,5.625,18.288a119.38,119.38,0,0,1-.459,19.293,5.036,5.036,0,0,1-.713,2.735,4.168,4.168,0,0,1-1.457,1.116,12.521,12.521,0,0,1-14.443-2.431c-1.315-1.383-2.288-3.064-3.584-4.471a5.474,5.474,0,0,0-9.011-.124,13.2,13.2,0,0,0-3.02,5.339c-.409,1.408-.62,3.008-1.786,3.938s-2.6.881-3.987.831a11.867,11.867,0,0,1-5.228-1c-2.983-1.6-3.987-5.277-5.085-8.477-1.861-5.377-6.04-15.553-12.552-16.632-3.1-.521-6.871,1.122-9.3,2.89C679.5,214.562,676.818,216.286,672.055,216.205Z" transform="translate(-267.063 -104.71)" fill="#464353"/><path d="M311.44,613.817c-.428,2.828-3.02,5.036-4.85,7.231-4.974,6-10.015,12.025-15.578,17.519a243.784,243.784,0,0,1-19.02,16.341l-8.471,6.778a10.666,10.666,0,0,1-3.6,2.17,6.58,6.58,0,0,1-4.639-.552c.124-.248.254-.478.4-.707l10.158-17.023c2-3.336,3.305-6.375,5.581-9.507,3.429-4.688,6.89-9.4,11.113-13.377,5.339-5.029,12.186-8.682,18.536-12.316.918-2.753,4.763-3.516,7.361-2.214a9.2,9.2,0,0,1,2.561,1.966A7.331,7.331,0,0,1,311.44,613.817Z" transform="translate(-111.815 -270.747)" opacity="0.06"/><path d="M266.786,614.846l-10.158,17.029a2.407,2.407,0,0,0,.577,3.857c3.895,3.169,8.211,6.512,9.432,11.38.874,3.473,0,7.194.781,10.679,1.432,6.288,7.752,10.108,13.73,12.527,13.4,5.42,28.266,7.5,42.5,4.961s27.739-9.786,36.954-20.924c2.828-3.423,5.246-7.169,7.932-10.7,7.442-9.767,16.887-17.786,26.257-25.724,12.062-10.22,19.169-25.463,29.767-37.209,1.929-2.14,4.056-4.341,6.822-5.048,1.55-.391,3.721.186,3.783,1.786.143,3.1,2.636,5.637,4.341,8.229,6.425,9.823,13.147,19.95,23.076,26.214,5.432,3.436,11.591,5.538,17.73,7.442,15.566,4.85,31.435,8.682,47.286,12.477a26.518,26.518,0,0,1,2.865-4.521c1.643-2.015,3.808-3.553,5.457-5.581,3.02-3.653,4.081-8.484,5.048-13.122-9.47-5.8-19.187-11.783-28.527-17.811-4.7-3.026-9.432-6.121-13.24-10.214-2.481-2.691-4.564-5.774-7.051-8.484a71.931,71.931,0,0,0-8.2-7.274l-22.325-17.879c-6.412-5.128-12.949-10.542-19.225-15.851-3.529-2.989-7.442-6.133-12.056-6.276-3.95-.124-7.584,1.991-10.983,4.025q-29.941,17.928-60.774,34.244c-4.161,2.2-8.341,4.378-12.31,6.9a82.975,82.975,0,0,0-20.291,18.22c-1.048,1.309-2.375,2.8-4.037,2.6a3.635,3.635,0,0,1-1.3-.453c-2.561-1.37-4.13-4.018-5.581-6.53s-3.07-5.153-5.668-6.456-6.437-.539-7.361,2.22c-6.381,3.739-13.2,7.361-18.548,12.39-4.223,3.975-7.684,8.682-11.113,13.377C270.091,608.477,268.776,611.516,266.786,614.846Z" transform="translate(-112.059 -239.317)" fill="#464353"/><path d="M246.61,502.52a124.991,124.991,0,0,1,17.538,9.649" transform="translate(-108.522 -230.853)" opacity="0.06"/><path d="M1023.05,490.755c.186,5.786.335,11.584.267,17.364-.037,3.064-.167,6.257-1.637,8.943a19.459,19.459,0,0,1-4.341,4.911l-10.214,9.259c-3.169,2.871-6.586,5.867-10.809,6.58-4.831.819-9.55-1.532-14.2-3.1a46.59,46.59,0,0,0-14.511-2.437,53.593,53.593,0,0,1-8.471-.223,34.723,34.723,0,0,1-5.916-1.681L944,527.17c.26-2.326,2.481-3.808,4.341-5.277,6.6-5.358,9.5-13.972,11.584-22.214a132.457,132.457,0,0,0,3.609-19.6,32.189,32.189,0,0,0-.229-9.823,39.062,39.062,0,0,0-2.729-7.529l-3.243-7.311c-1.86-4.13-5.581-5.966-9.37-8.4,5.718,2.171,12.688,3.02,17.035,7.324a11.282,11.282,0,0,0,2.939,2.381,13.913,13.913,0,0,0,3.826.831c6.456.967,11.944,5.023,17.277,8.775q9.792,6.9,20.13,12.955a47.325,47.325,0,0,1,8.911,6.1c2.611,2.487,4.657,5.8,4.825,9.4" transform="translate(-373.429 -209.767)" fill="#464353"/><path d="M167.41,475c-8.13,1.606-12.359,11.163-11.882,19.429a31.627,31.627,0,0,0,8.57,19.752c3.392,3.566,7.622,6.319,10.685,10.17,4.527,5.681,6.1,13.191,10.152,19.225,2.939,4.378,7.063,7.814,11.163,11.107q14.177,11.312,29.277,21.414c4.093,2.735,8.57,5.5,13.494,5.4,4.639-.1,8.911-2.822,11.938-6.344s4.961-7.8,6.927-12.018c7.082-15.442,14.214-31.051,17.6-47.7,1.06-5.228,1.774-10.617,4.143-15.4,1.86-3.721,4.614-6.908,7.07-10.27A70.839,70.839,0,0,0,298.5,463.049c1.352-6.288,1.8-13.023-.415-19.038s-7.609-11.231-14.028-11.7c-5.079-.372-10.065,2.233-13.476,6.022s-5.42,8.632-6.791,13.538a64.847,64.847,0,0,0-2.233,21.705c.4,5.9,1.6,11.851.583,17.68-.719,4.112-2.512,7.95-4.285,11.733-4.583,9.761-9.24,19.646-16.167,27.906-2.257,2.692-5.364,5.414-8.818,4.781-4.775-.868-6.04-6.915-8.4-11.163-2.89-5.209-8.372-8.341-12.67-12.477-6.115-5.891-9.78-13.792-14.127-21.085s-9.972-14.493-17.984-17.29-18.691.794-20.75,9.029" transform="translate(-73.91 -204.169)" opacity="0.06"/><path d="M173.573,478.929c-8.136,1.606-18.493,2.654-17.984,10.933a31.565,31.565,0,0,0,8.57,19.752c3.392,3.572,7.622,6.325,10.685,10.176,4.527,5.68,6.1,13.184,10.152,19.224,2.939,4.384,7.063,7.82,11.163,11.107q14.177,11.317,29.277,21.414c4.093,2.741,8.57,5.507,13.494,5.4,4.639-.1,8.911-2.828,11.938-6.344s4.961-7.8,6.927-12.025c7.082-15.442,14.214-31.051,17.6-47.7,1.06-5.222,1.774-10.617,4.143-15.392,1.86-3.721,4.614-6.908,7.07-10.276a70.771,70.771,0,0,0,11.956-26.71c1.352-6.295,1.8-13.023-.415-19.045s-7.609-11.225-14.028-11.7c-5.079-.372-10.065,2.239-13.476,6.022s-5.42,8.632-6.791,13.544a64.83,64.83,0,0,0-2.232,21.705c.4,5.9,1.6,11.857.583,17.68-.719,4.118-2.512,7.957-4.285,11.739-4.583,9.761-9.24,19.64-16.167,27.906-2.257,2.691-5.364,5.408-8.818,4.781-4.775-.874-6.04-6.921-8.4-11.163-2.89-5.209-8.372-8.341-12.67-12.477-6.115-5.885-9.78-13.792-14.127-21.085s-9.972-14.487-17.984-17.29,2.022,15.15-.043,23.386" transform="translate(-73.94 -202.437)" opacity="0.06"/><path d="M167.41,472.716c-8.13,1.606-12.359,11.163-11.882,19.429A31.627,31.627,0,0,0,164.1,511.9c3.392,3.566,7.622,6.319,10.685,10.17,4.527,5.68,6.1,13.19,10.152,19.225,2.939,4.384,7.063,7.82,11.163,11.113q14.177,11.312,29.277,21.408c4.093,2.741,8.57,5.507,13.494,5.4,4.639-.1,8.911-2.822,11.938-6.344s4.961-7.8,6.927-12.018c7.082-15.442,14.214-31.051,17.6-47.7,1.06-5.222,1.774-10.617,4.143-15.392,1.86-3.721,4.614-6.908,7.07-10.276a70.77,70.77,0,0,0,11.956-26.71c1.352-6.294,1.8-13.023-.415-19.045s-7.609-11.225-14.028-11.7c-5.079-.378-10.065,2.233-13.476,6.022s-5.42,8.632-6.791,13.538A64.847,64.847,0,0,0,261.56,471.3c.4,5.9,1.6,11.851.583,17.674-.719,4.118-2.512,7.957-4.285,11.739-4.583,9.761-9.24,19.646-16.167,27.907-2.257,2.691-5.364,5.408-8.818,4.781-4.775-.874-6.04-6.914-8.4-11.162-2.89-5.215-8.372-8.347-12.67-12.477-6.115-5.891-9.78-13.792-14.127-21.085s-9.972-14.487-17.984-17.283-18.691.794-20.75,9.029" transform="translate(-73.91 -203.306)" fill="#fbbebe"/><g transform="translate(39.826 151.235)" opacity="0.06"><path d="M110.758,401.606a78.347,78.347,0,0,1-6.468-13.414l-.211-.62a20.093,20.093,0,0,1-3.268-4.707,23.727,23.727,0,0,1-2.121-9.3v-.354a14.007,14.007,0,0,0-.974,3.1c-.62,3.5.4,7.07,1.631,10.406a78.561,78.561,0,0,0,6.468,13.414c3.851,6.437,8.769,12.639,9.532,20.025,1.147,11.051-7.187,20.781-9.246,31.7-1.575,8.341.422,17.662-4.037,24.88a20.893,20.893,0,0,1-6.989,6.623,19.77,19.77,0,0,1-5.724,2.481,13.284,13.284,0,0,1-1.191,1.24c3.938,1.364,8.322-.105,11.87-2.288a20.973,20.973,0,0,0,6.989-6.629c4.459-7.218,2.481-16.539,4.031-24.88,2.065-10.915,10.4-20.651,9.253-31.7C119.533,414.152,114.622,407.957,110.758,401.606Z" transform="translate(-88.16 -332.969)"/><path d="M204.882,322.385c-1.594-3.69-4.961-6.307-8.422-8.36a48.75,48.75,0,0,0-14.145-5.705,50.556,50.556,0,0,1,9.191,4.285c3.46,2.059,6.822,4.67,8.428,8.366s.806,8.682-2.642,10.741c-2.431,1.457-5.463,1.2-8.3,1.135a49.926,49.926,0,0,0-7.33.372,7.05,7.05,0,0,0-2.53.67,6.294,6.294,0,0,0-2.344,2.76,19.273,19.273,0,0,0-1.984,6.1c-.347,2.381-.316,4.992-1.8,6.884-2.022,2.574-5.184,2.183-8.062,2.691a21.7,21.7,0,0,0-7.076,2.7,17.25,17.25,0,0,0-8.36,13.718c-.074,2,.2,4.037-.341,5.96a9.835,9.835,0,0,1-1.612,3.1,21.149,21.149,0,0,1,2.865,3.863c1.519-1.656,3.1-3.392,3.721-5.55.546-1.922.267-3.969.347-5.966a17.287,17.287,0,0,1,8.36-13.718,21.477,21.477,0,0,1,7.076-2.7c2.865-.515,6.028-.124,8.062-2.7,1.488-1.86,1.451-4.5,1.8-6.884a19.261,19.261,0,0,1,1.978-6.1,6.257,6.257,0,0,1,2.344-2.729,6.822,6.822,0,0,1,2.53-.67,50.792,50.792,0,0,1,7.33-.378c2.834.068,5.867.322,8.3-1.135C205.689,331.067,206.476,326.106,204.882,322.385Z" transform="translate(-110.72 -308.32)"/></g><path d="M174.52,426.55s7.324,6.3,21.234,2.481C195.754,429.018,187.14,432.41,174.52,426.55Z" transform="translate(-81.138 -201.995)" opacity="0.06"/><path d="M753.186,243.226a5.055,5.055,0,0,1-.744,2.716,4.149,4.149,0,0,1-1.457,1.11,12.508,12.508,0,0,1-14.437-2.425c-1.315-1.389-2.288-3.1-3.584-4.471s-3.1-2.567-4.961-2.419a6.509,6.509,0,0,0-4.05,2.288,13.427,13.427,0,0,0-3.02,5.339c-.4,1.414-.62,3.008-1.78,3.944s-2.6.874-3.987.825a11.743,11.743,0,0,1-5.228-.992c-2.983-1.6-3.987-5.284-5.091-8.477-1.86-5.383-6.04-15.553-12.545-16.638-3.1-.515-6.878,1.129-9.3,2.89-3.665,2.66-6.369,4.384-11.113,4.341a9.481,9.481,0,0,1-3.287-.521c-2.729-1.073-4.186-4.037-4.626-6.977a20.663,20.663,0,0,0-.105,4.062c.26,3.212,1.724,6.685,4.732,7.87a9.483,9.483,0,0,0,3.287.521c4.744.074,7.442-1.65,11.113-4.31,2.437-1.761,6.2-3.411,9.3-2.89,6.481,1.054,10.7,11.225,12.521,16.6,1.1,3.2,2.108,6.884,5.091,8.484a11.829,11.829,0,0,0,5.228.992c1.389.05,2.915.056,3.988-.825s1.377-2.536,1.78-3.944a13.381,13.381,0,0,1,3.02-5.339,6.541,6.541,0,0,1,4.05-2.288,6.316,6.316,0,0,1,4.961,2.419c1.24,1.408,2.27,3.1,3.584,4.471a12.508,12.508,0,0,0,14.437,2.425,4.222,4.222,0,0,0,1.457-1.11,5.06,5.06,0,0,0,.744-2.722,147.9,147.9,0,0,0,.62-15.714C753.732,236.051,753.465,239.642,753.186,243.226Z" transform="translate(-266.998 -124.965)" opacity="0.06"/><path d="M100.594,670.924s.986-1.1-.868-1.532v-1.8h1.116a9.519,9.519,0,0,0-7.547-9.3V656.1h.291V653.25H86.411V656.1h.2v2.214a9.525,9.525,0,0,0-7.442,9.3h.986v1.73s-2.35,1.11,0,3.1,1.984,3.429,1.984,3.429-.986,3.721-2.964,4.2v34.5a7.665,7.665,0,0,0,7.665,7.671H92.9a7.671,7.671,0,0,0,7.671-7.671v-34.5s-3.467-2.6-2.846-4.2A38.8,38.8,0,0,1,100.594,670.924Z" transform="translate(-44.898 -288.108)" fill="#464353"/></g></svg>