<svg xmlns="http://www.w3.org/2000/svg" xmlns:xlink="http://www.w3.org/1999/xlink" width="491" height="427.067" viewBox="0 0 491 427.067"><defs><linearGradient id="a" x1="0.5" y1="1" x2="0.5" gradientUnits="objectBoundingBox"><stop offset="0" stop-color="gray" stop-opacity="0.251"/><stop offset="0.54" stop-color="gray" stop-opacity="0.122"/><stop offset="1" stop-color="gray" stop-opacity="0.102"/></linearGradient></defs><g transform="translate(0.005 -0.01)"><ellipse cx="43.322" cy="12.508" rx="43.322" ry="12.508" transform="translate(113.287 398.118)" fill="#6c63ff" opacity="0.1"/><ellipse cx="186.857" cy="8.87" rx="186.857" ry="8.87" transform="translate(71.404 341.251)" fill="#6c63ff" opacity="0.1"/><path d="M297.947,65.813c16.662-14.612,42.811-17.58,66.611-16.429,74.766,3.654,142.253,39.186,200.627,79.374,21.1,14.548,41.939,30.226,55.658,50.262,27.923,40.785,19.644,97.29-19.189,130.888-13.209,11.432-29.222,20.2-45.668,27.967-29.222,13.813-60.777,24.9-93.955,28.058-23.659,2.248-47.622.421-71.135-2.722-65.723-8.768-130.234-28.17-184.3-61.363-23.713-14.559-46.063-32.655-55.842-56.2s-3.518-53.394,20.7-67.335c10.011-5.769,21.987-8.369,33.708-10.814,17.257-3.6,34.791-7.149,50.36-14.469,16.088-7.554,35.132-22.172,31.928-38.888C284.051,96.172,281.307,80.409,297.947,65.813Z" transform="translate(-146.34 -49.15)" fill="#6c63ff" opacity="0.1"/><rect width="381.855" height="291.778" rx="22.82" transform="translate(68.782 58.342)" fill="#505668"/><rect width="320.529" height="238.017" transform="translate(99.986 84.664)" fill="#ededf4"/><ellipse cx="5.254" cy="5.178" rx="5.254" ry="5.178" transform="translate(81.713 198.494)" fill="#e6e8ec"/><ellipse cx="8.666" cy="8.539" rx="8.666" ry="8.539" transform="translate(426.057 195.692)" fill="#e6e8ec"/><path d="M637.459,396.908a.459.459,0,0,1,.479-.051.447.447,0,0,1,.256.4v15.321a3.623,3.623,0,0,1-3.649,3.6H602.9a3.623,3.623,0,0,1-3.649-3.6V397.265a.452.452,0,0,1,.26-.4.465.465,0,0,1,.481.05c1.7,1.305,3.957,2.962,11.715,8.523,1.622,1.151,4.325,3.58,7.028,3.564s5.476-2.456,7.028-3.564C633.5,399.875,635.756,398.213,637.459,396.908Zm-18.726,9.679c1.762,0,4.325-2.189,5.579-3.1,10.087-7.218,10.855-7.847,13.185-9.642a1.8,1.8,0,0,0,.7-1.417v-1.422a3.623,3.623,0,0,0-3.649-3.6H602.9a3.623,3.623,0,0,0-3.649,3.6v1.422a1.807,1.807,0,0,0,.7,1.417c2.33,1.79,3.1,2.424,13.185,9.642,1.276.911,3.817,3.127,5.579,3.1Z" transform="translate(-354.136 -207.209)" fill="#7f39fb"/><path d="M501.594,308.18h-29.97a3.435,3.435,0,0,0-3.454,3.409v20.467a3.435,3.435,0,0,0,3.454,3.409h29.97a3.44,3.44,0,0,0,3.46-3.409V311.589A3.44,3.44,0,0,0,501.594,308.18Zm0,3.409v2.887c-1.622,1.294-4.195,3.314-9.7,7.559-1.216.943-3.617,3.2-5.292,3.2s-4.076-2.232-5.287-3.2c-5.509-4.262-8.109-6.265-9.7-7.559v-2.9Zm-29.97,20.467v-13.2c1.654,1.294,3.995,3.116,7.568,5.86,1.579,1.22,4.325,3.915,7.428,3.9s5.8-2.664,7.428-3.9c3.568-2.754,5.909-4.576,7.568-5.86v13.2Z" transform="translate(-293.998 -170.186)" fill="#6c63ff" opacity="0.2"/><path d="M447.594,415h-29.97a3.48,3.48,0,0,0-2.445,1,3.379,3.379,0,0,0-1.01,2.41v20.456a3.435,3.435,0,0,0,3.454,3.409h29.97a3.44,3.44,0,0,0,3.46-3.409V418.415A3.384,3.384,0,0,0,450.043,416,3.486,3.486,0,0,0,447.594,415Zm0,3.409v2.9c-1.622,1.294-4.195,3.314-9.7,7.559-1.216.943-3.616,3.2-5.292,3.2s-4.076-2.232-5.287-3.2c-5.509-4.262-8.109-6.265-9.7-7.559v-2.9Zm-29.97,20.456V425.686c1.654,1.294,3.995,3.111,7.568,5.86,1.579,1.225,4.325,3.921,7.428,3.9s5.8-2.664,7.428-3.9c3.568-2.754,5.909-4.576,7.568-5.86v13.174Z" transform="translate(-269.223 -220.102)" fill="#6c63ff" opacity="0.1"/><path d="M508.019,511.69H478.06a3.44,3.44,0,0,0-3.46,3.409V535.55a3.44,3.44,0,0,0,3.46,3.409h29.981a3.435,3.435,0,0,0,3.454-3.409V515.1a3.385,3.385,0,0,0-1.019-2.417A3.487,3.487,0,0,0,508.019,511.69Zm0,3.409V518c-1.622,1.294-4.195,3.313-9.7,7.559-1.216.943-3.622,3.2-5.292,3.2s-4.076-2.232-5.292-3.2c-5.5-4.246-8.055-6.243-9.676-7.559v-2.9ZM478.06,535.55V522.371c1.654,1.294,3.995,3.116,7.568,5.86,1.573,1.22,4.325,3.915,7.428,3.9s5.8-2.664,7.428-3.9c3.568-2.754,5.909-4.576,7.568-5.86V535.55Z" transform="translate(-296.948 -265.283)" fill="#6c63ff" opacity="0.2"/><path d="M619.594,243.75h-29.97a3.48,3.48,0,0,0-2.445,1,3.378,3.378,0,0,0-1.01,2.41V267.61a3.435,3.435,0,0,0,3.454,3.409h29.97a3.44,3.44,0,0,0,3.46-3.409V247.159A3.435,3.435,0,0,0,619.594,243.75Zm0,3.409v2.9c-1.622,1.294-4.195,3.308-9.7,7.559-1.216.943-3.617,3.2-5.292,3.2s-4.076-2.232-5.287-3.2c-5.509-4.262-8.109-6.265-9.731-7.559v-2.9ZM589.614,267.61V254.431c1.654,1.294,3.995,3.111,7.568,5.86,1.579,1.225,4.325,3.921,7.428,3.9s5.8-2.664,7.427-3.9c3.568-2.754,5.909-4.571,7.568-5.86V267.61Z" transform="translate(-348.136 -140.079)" fill="#6c63ff" opacity="0.2"/><path d="M619.594,574.81h-29.97a3.435,3.435,0,0,0-3.454,3.409V598.67a3.435,3.435,0,0,0,3.454,3.409h29.97a3.44,3.44,0,0,0,3.46-3.409V578.219a3.44,3.44,0,0,0-3.46-3.409Zm0,3.409v2.9c-1.622,1.294-4.2,3.313-9.7,7.559-1.216.943-3.617,3.2-5.292,3.2s-4.076-2.232-5.287-3.2c-5.508-4.262-8.109-6.265-9.731-7.559v-2.9Zm-29.97,20.451V585.491c1.654,1.294,3.995,3.116,7.568,5.86,1.579,1.22,4.325,3.915,7.428,3.9s5.8-2.664,7.428-3.9c3.568-2.754,5.909-4.576,7.568-5.86V598.67Z" transform="translate(-348.136 -294.779)" fill="#6c63ff" opacity="0.2"/><path d="M712.17,311.589v20.467a3.435,3.435,0,0,0,3.454,3.409h29.97a3.44,3.44,0,0,0,3.46-3.409V311.589a3.44,3.44,0,0,0-3.46-3.409h-29.97A3.435,3.435,0,0,0,712.17,311.589Zm33.435,0v2.887c-1.622,1.294-4.2,3.314-9.7,7.559-1.216.943-3.622,3.2-5.292,3.2s-4.076-2.232-5.287-3.2c-5.509-4.262-8.109-6.265-9.731-7.559v-2.9Zm-29.981,20.467v-13.2c1.654,1.294,3.995,3.116,7.568,5.86,1.622,1.257,4.352,3.915,7.428,3.9s5.854-2.664,7.427-3.9c3.568-2.754,5.909-4.576,7.568-5.86v13.2Z" transform="translate(-405.945 -170.186)" fill="#6c63ff" opacity="0.2"/><path d="M762.43,414.339V434.79a3.435,3.435,0,0,0,3.46,3.409h29.976a3.44,3.44,0,0,0,3.46-3.409V414.339a3.44,3.44,0,0,0-3.46-3.409H765.89A3.435,3.435,0,0,0,762.43,414.339Zm33.435,0v2.9c-1.622,1.294-4.2,3.314-9.7,7.559-1.211.943-3.616,3.2-5.292,3.2s-4.076-2.232-5.287-3.2c-5.508-4.262-8.082-6.265-9.7-7.559v-2.9ZM765.89,434.79V421.621c1.622,1.295,3.99,3.116,7.568,5.86,1.622,1.257,4.325,3.915,7.422,3.9s5.854-2.664,7.428-3.9c3.568-2.754,5.914-4.576,7.568-5.86V434.8Z" transform="translate(-429.004 -218.2)" fill="#6c63ff" opacity="0.2"/><path d="M705.77,515.1V535.55a3.435,3.435,0,0,0,3.46,3.41h29.975a3.44,3.44,0,0,0,3.46-3.409V515.1a3.44,3.44,0,0,0-3.46-3.409H709.23A3.435,3.435,0,0,0,705.77,515.1Zm33.435,0V518c-1.622,1.294-4.2,3.313-9.7,7.559-1.216.943-3.617,3.2-5.292,3.2s-4.076-2.232-5.287-3.2c-5.508-4.262-8.109-6.265-9.7-7.559v-2.9ZM709.23,535.55V522.371c1.649,1.294,3.99,3.116,7.568,5.86,1.622,1.257,4.325,3.915,7.422,3.9s5.855-2.664,7.428-3.9c3.568-2.754,5.909-4.576,7.568-5.86V535.55Z" transform="translate(-403.009 -265.284)" fill="#6c63ff" opacity="0.2"/><path d="M444.649,331.569l-.5-.2a12.544,12.544,0,0,0-1.562-1.811s-13.769-4.549-16.569-6.227a11.409,11.409,0,0,0-5.73-1.555l-4.995-.836s-2.806-.6-4.146-1.065-3.784-1.433-3.784-1.433-2.925-1.2-3.417-1.918-2.925-1.316-2.925-1.316l-4.995-3.729s-4.022-2.4-4.633-4.672-2.925-8.619-10.72-4.549c0,0-3.9-1.065-4.865-2.275s-10.109.117-10.109.117l-2.849-4.794a40.539,40.539,0,0,1-.227-8.092,7.049,7.049,0,0,1,.07-.772,14.146,14.146,0,0,0,4.417-17.137c-.081-.181-.173-.362-.259-.533a4.749,4.749,0,0,0,.47-1.326,2.631,2.631,0,0,1,.054-.352,7.146,7.146,0,0,0-.178-2.355l-.114-.373A6.21,6.21,0,0,0,365.1,261.5a13.494,13.494,0,0,1-2.7-2.131c-.978-1.374-.724-3.319-1.622-4.73a3.941,3.941,0,0,0-.292-.378l-.081-.085c-.092-.1-.189-.181-.286-.266l-.059-.048a6.066,6.066,0,0,0-5.114-.724c-2.081.533-4.011,1.6-6.141,1.907a26.435,26.435,0,0,1-5.1-.2,7.681,7.681,0,0,0-4.925.98c-1.725,1.188-2.427,3.377-3.935,4.826s-3.914,2.131-5.233,3.841a4.648,4.648,0,0,0-.643,4.448c.541,1.369,1.724,2.472,1.995,3.915.3,1.6-.541,3.367.027,4.821h0a2.625,2.625,0,0,0,.151.3h0a1.47,1.47,0,0,1,.216,0h.211l.205.037h0a1.388,1.388,0,0,1,.2.053A2.947,2.947,0,0,1,333.775,280a8.3,8.3,0,0,1,0,3.537,7.173,7.173,0,0,0,.1,3.521,1.1,1.1,0,0,0,.07.16h0a1.263,1.263,0,0,0,.135.234l.032.043a1.039,1.039,0,0,0,.184.192h0a2.213,2.213,0,0,0,1.043.293h0a1.723,1.723,0,0,1,.368.069c.119.027.162.043.238.064l.113.032c.1.032.2.064.3.107h.027c.108.048.216.091.319.144h0a4.64,4.64,0,0,1,1.47,1.065c.168.181.324.378.487.565h0l.232.24a2.549,2.549,0,0,0,.265.213,2.27,2.27,0,0,0,1.341.346,7.119,7.119,0,0,0,1.784-.341l.049.447c.1.852.184,1.694.254,2.514a1.43,1.43,0,0,0,.027.341,17.349,17.349,0,0,0-4.325,5.327l.162.533a1.719,1.719,0,0,0-.162.208v2.392s-12.92,2.275-14.385,3.356a9.051,9.051,0,0,1-4.141,1.193s-7.314-.357-7.314,6.345c0,0-.243,3.111-1.7,3.234s-2.195,2.035-2.195,2.035l-7.433,7.9-10.85,8.619s-4.817,4.464-6.049,6.318a1.4,1.4,0,0,0-.286.629s-13.147,14.421,1.243,20.472l.449.181,12.579,9.285,15.677,8.737.47-.655.249.165,1.887,1.225,2.411-3.83.319.069a3.609,3.609,0,0,1,2.433,1.513c.719,1.31,5.06,4.086,7.7,4.358l-.1.288-1.481,4.651s-2.925,3.351-2.314,4.549-1.081,10.058-1.081,10.058,2.7,1.065,4.022,1.8a4.006,4.006,0,0,0,.789.213,6.092,6.092,0,0,1-.076.7,4.224,4.224,0,0,1-.838,2.317c-1.465,1.433-1.341,4.31-1.341,4.31s-.735,4.187,0,4.667-.33,1.556-.33,1.556,1.135,3.59,0,5.029-3.476,20.829.86,30.285c0,0,3.865,8.14,1.789,11.017s-4.709,12.093-4.325,13.765-.568,5.748-.568,5.748,1.584,8.523.487,10.292-4.022,29.092-.487,35.692c0,0-3.535,4.432-5.363,4.432s1.584,6.925,3.043,8.262,2.119,7.778,2.119,7.778l.211.1c.059.256.13.533.2.8.773,2.967,2.1,7.042,3.568,7.122,2.314.117,11.212-.479,11.574-2.637s-.124-5.748,1.7-6.824,8.168-4.187,4.271-11.608a9.02,9.02,0,0,0-1.433-.043h-.032l.73-15.981,2.925-23.344s2.562-8.023,2.93-9.1-.611-2.871-.611-2.871l.687-6.467s-.443-7.181,1.016-8.14.611-4.544.611-4.544a39.438,39.438,0,0,0,1.341-6.467,27.467,27.467,0,0,1,.854-4.912s.486-2.131,1.341-5.023a35.217,35.217,0,0,0,1.081-6.467s3.287-4.07,2.925-7.3.243-8.38,1.46-7.3,1.951,4.794,1.951,4.794l1.827,10.058s3.168,9.935,2.8,11.373.979,6.7.979,6.7-.243,6.1.487,7.543,0,4.31,0,4.31,2.438,6.1,2.07,7.3.038,8.257.038,8.257l.7,5.269s.73,4.192,0,6.467,3.189,31.963,4.276,34.36-.622,7.3-.622,7.3-1.341,3.953,4.384,6.925l1.708,6.824.124.037a4.914,4.914,0,0,0,.076.735c.481,3.154,2.908,6.393,11.866,3.66,0,0,2.7-.927,3.411-2.855s6.336-3.969,6.336-3.969,4.93-5.545.611-9.456a4.054,4.054,0,0,0-4.536-.874,8.346,8.346,0,0,1,.757-4.517c1.341-2.749-1.341-8.619-2.189-9.589s1.081-5.386,1.081-5.386a28.993,28.993,0,0,0-1.341-3.59c-.487-.842-.973-22.63-.973-22.63s-.973-11.97-3.535-17c0,0,.611-3.591.854-5.146s-.243-27.414-.243-27.414,5.238-8.523,1.584-21.191a35.118,35.118,0,0,1,.487-5.508c.487-2.632-.73-7.3-.73-7.3s1.341-6.584-1.216-8.523c-1.081-.788-1.535-2.594-1.73-4.448,0-.234-.038-.469-.054-.7,3.416-.89,5.914-1.875,6.168-2.871.854-3.351-4.752-19.178-4.752-19.178L387.4,360.2s2.562-8.859,1.465-11.613,2.438-9.7,2.438-9.7-1.589-4.544-.492-5.743a1.265,1.265,0,0,0,.195-.336l2.611,1.891s4.39,1.2,5.449,2.392,5.763.842,5.763.842a43.221,43.221,0,0,1,7.568.447,4.36,4.36,0,0,1,2.162.868c1.465,1.561,6.341,2.131,7.314,1.438a2.855,2.855,0,0,1,1.887-.165,16.9,16.9,0,0,1,2.622.645L442.6,343.2a13.148,13.148,0,0,0,1.049-.954l.211.16c13.12,9.413,13.612.2,13.612.2s4.627,1.193,4.627-1.6C462.083,338.788,449.925,333.679,444.649,331.569ZM324.1,369.786l-.346-.027.232-.368-1.292-.6-.276-.128.487-.687L310.1,360.432a4.664,4.664,0,0,1-1.952-2.131c-.73-1.556-3.9-1.912-3.9-1.912l-3.595-3.116s4.206-5.029,5.406-5.029,3.292-1.486,3.292-1.486l5.141-3.42.1.122s4.508,5.5,4.865,6.462,4.384,5.146,4.384,5.146a41.043,41.043,0,0,1,6.217,11.134,15.732,15.732,0,0,0,2.454,2.637c-3.341.362-7.33,1.065-7.33,1.065Z" transform="translate(-207.032 -144.353)" fill="url(#a)"/><path d="M417.366,310a48.712,48.712,0,0,0,1.595,15.2s-23.407,1.428-21.721-1.662a4.427,4.427,0,0,0,.384-1.6,33.378,33.378,0,0,0-.119-5.716c-.07-.815-.157-1.651-.249-2.5-.314-2.786-.73-5.652-1.081-7.906-.059-.346-.114-.682-.162-1-.33-1.987-.573-3.3-.573-3.3s18-5.215,23.44-3.436c1.535.5,2.076,1.55.935,3.436a18.689,18.689,0,0,0-2.362,7.692A3.7,3.7,0,0,0,417.366,310Z" transform="translate(-260.633 -165.296)" fill="#be6f72"/><path d="M601.473,412.047c0,2.791-4.584,1.6-4.584,1.6s-.487,9.157-13.477-.2c-.33-.24-.67-.49-1.022-.756l-.541-10.345v-.6s.919.357,2.362.932C589.434,404.786,601.473,409.874,601.473,412.047Z" transform="translate(-346.164 -213.91)" fill="#be6f72"/><path d="M382.41,799.4c-1.811,1.066-1.324,4.64-1.687,6.776s-9.19,2.738-11.466,2.621c-1.454-.08-2.768-4.129-3.53-7.074-.438-1.694-.7-3.026-.7-3.026s14.6-5.716,15.812-8.571c.768-1.822,2.925-2.237,4.373-2.3a9.231,9.231,0,0,1,1.416.037C390.5,795.24,384.215,798.329,382.41,799.4Z" transform="translate(-246.681 -394.314)" fill="#464a5f"/><path d="M493.419,810.527s-5.546,2.019-6.271,3.942-3.379,2.839-3.379,2.839c-8.871,2.722-11.271-.506-11.747-3.638a11.44,11.44,0,0,1,.281-4.331l13.034-5.37a11.074,11.074,0,0,1,4.152-3.686,4,4,0,0,1,4.535.852C498.3,805.019,493.419,810.527,493.419,810.527Z" transform="translate(-295.729 -399.97)" fill="#464a5f"/><path d="M385.229,787.84l-.276,5.988c-3.854,2.61-4.325,7.724-4.325,7.724a19.315,19.315,0,0,1-14.871.181c-.438-1.694-.7-3.026-.7-3.026s14.6-5.716,15.812-8.571C381.623,788.314,383.78,787.925,385.229,787.84Z" transform="translate(-246.696 -394.324)" opacity="0.1"/><path d="M489.678,802.166c-4.584,14.437-16.007,12.22-17.656,11.821a11.44,11.44,0,0,1,.281-4.331l13.034-5.37a11.074,11.074,0,0,1,4.152-3.686A7.21,7.21,0,0,0,489.678,802.166Z" transform="translate(-295.732 -400.287)" opacity="0.1"/><path d="M436.645,660.646A8.285,8.285,0,0,0,436.04,666c-4.946,15.577-17.839,11.768-17.839,11.768l-1.692-6.776c-5.671-2.972-4.325-6.893-4.325-6.893s1.692-4.88.616-7.255-4.963-31.867-4.238-34.126,0-6.419,0-6.419l-.687-5.237s-.4-7.01-.038-8.2-2.049-7.25-2.049-7.25.724-2.855,0-4.262-.481-7.49-.481-7.49-1.33-5.231-.968-6.659-2.773-11.294-2.773-11.294l-1.811-9.988s-.724-3.686-1.935-4.757-1.806,4.043-1.443,7.256-2.914,7.229-2.914,7.229a34.78,34.78,0,0,1-1.081,6.425c-.843,2.85-1.324,4.992-1.324,4.992a27.281,27.281,0,0,0-.849,4.874,39.553,39.553,0,0,1-1.324,6.424s.843,3.564-.605,4.512-1.005,8.087-1.005,8.087l-.681,6.424s.962,1.785.6,2.85-2.892,9.056-2.892,9.056l-2.919,23.168-.968,21.17c-3.854,2.61-4.325,7.724-4.325,7.724a19.177,19.177,0,0,1-15.282,0s-.649-6.393-2.092-7.724-4.827-8.2-3.017-8.2,5.309-4.406,5.309-4.406c-3.5-6.536-.605-33.646.481-35.431s-.481-10.228-.481-10.228.962-4.043.568-5.705,2.206-10.819,4.26-13.675-1.768-10.942-1.768-10.942c-4.3-9.392-1.973-28.655-.849-30.082s0-4.992,0-4.992,1.049-1.065.319-1.545,0-4.635,0-4.635-.124-2.855,1.324-4.262a4.138,4.138,0,0,0,.827-2.3,26.891,26.891,0,0,0,0-5.189l16.65-9.631,20.872-1.667,25.58,7.847a29.48,29.48,0,0,0,0,5.327c.189,1.838.66,3.633,1.708,4.416,2.535,1.907,1.206,8.443,1.206,8.443s1.205,4.64.724,7.256a35.012,35.012,0,0,0-.481,5.471c3.617,12.6-1.573,21.048-1.573,21.048s.487,25.682.243,27.227-.843,5.109-.843,5.109c2.535,5,3.5,16.887,3.5,16.887s.481,21.639.968,22.475a28.816,28.816,0,0,1,1.324,3.569s-1.93,4.395-1.081,5.327S437.969,657.9,436.645,660.646Z" transform="translate(-242.143 -264.835)" fill="#5f5d7e"/><path d="M419.765,301.561a18.69,18.69,0,0,0-2.362,7.692c-.032.256-.054.533-.076.767-2.422,1.822-6.157.9-9.444.9-1.157,0-.881-1.678-1.962-1.928-3.876-.922-7.844.171-9.8-3.138-.06-.346-.114-.682-.162-1-.33-1.987-.573-3.3-.573-3.3s18-5.215,23.44-3.436C420.365,298.626,420.906,299.676,419.765,301.561Z" transform="translate(-260.61 -165.315)" opacity="0.1"/><path d="M421.965,285.746a14.319,14.319,0,0,1-14.423,14.213,15.017,15.017,0,0,1-3.373-.389,14.225,14.225,0,0,1-10.883-16.05,14.445,14.445,0,0,1,28.679,2.226Z" transform="translate(-259.561 -153.058)" fill="#be6f72"/><path d="M417.345,332.231c-5.579-1.689-13.25,1.151-18,3.388a33.366,33.366,0,0,0-.119-5.716c3.189-2.626,8.222-4.565,15.25-1.065.643.325,1.3.693,1.984,1.1Z" transform="translate(-262.374 -178.954)" opacity="0.1"/><path d="M413.771,332.9c-7.482-2.269-18.731,3.622-21.623,5.263l-.541-1.811-.157-.506s6.146-12.993,19.493-6.339c.643.325,1.3.693,1.984,1.1Z" transform="translate(-258.803 -179.266)" fill="#6c63ff"/><path d="M437.708,523.869a156.382,156.382,0,0,1-21.942,3.585c-1.081-.117-10.741,2.024-10.741,2.024.362-1.193-2.892-14.032-2.892-14.032l-2.3,14.745s-20.942-2.131-25.235-3.015a26.888,26.888,0,0,0,0-5.189l16.65-9.632,20.872-1.667,25.581,7.847a29.48,29.48,0,0,0,.005,5.332Z" transform="translate(-251.059 -264.816)" opacity="0.1"/><path d="M420.189,436.08c-.827,3.319-26.91,6.515-27.991,6.419s-10.741,2.024-10.741,2.024c.362-1.193-2.892-14.032-2.892-14.032l-2.3,14.767s-24.613-2.5-25.948-3.2-3.984-1.779-3.984-1.779,1.687-8.8,1.081-9.988,2.292-4.523,2.292-4.523l1.47-4.613,4.438-13.936a6.824,6.824,0,0,1-.746-.485A14.951,14.951,0,0,1,352,403.776a40.2,40.2,0,0,0-6.157-11.1s-3.979-4.161-4.325-5.114-4.827-6.419-4.827-6.419l-13.39-17,7.357-7.847s.724-1.9,2.162-2.019,1.692-3.2,1.692-3.2c0-6.659,7.239-6.3,7.239-6.3a8.974,8.974,0,0,0,4.1-1.188c1.443-1.071,14.244-3.335,14.244-3.335v-2.019c10.736-14.032,24.326-4.912,24.326-4.912l2.827,4.794s9.044-1.305,10.006-.117,4.827,2.253,4.827,2.253c7.725-4.038,10.012,2.264,10.617,4.523s4.59,4.635,4.59,4.635-4.108,20.334-5.2,21.522.487,5.711.487,5.711-3.487,6.883-2.406,9.61-1.449,11.539-1.449,11.539l6.757,19.263S421.032,432.75,420.189,436.08Z" transform="translate(-227.515 -180.574)" fill="#464a5f"/><path d="M418.533,339.424c-6.752-10.228-27.154,2.131-27.154,2.131v-2.019c10.736-14.032,24.326-4.912,24.326-4.912Z" transform="translate(-258.77 -181.182)" opacity="0.1"/><path d="M413.757,333.883c-7.482-2.269-18.731,3.622-21.623,5.263l-.714.41v-2.019l.157-.2c6.692-8.582,14.455-8.278,19.337-6.845.643.325,1.3.693,1.984,1.1Z" transform="translate(-258.79 -180.248)" opacity="0.1"/><path d="M418.533,338.084c-6.752-10.223-27.154,2.131-27.154,2.131V338.2c10.736-14.032,24.326-4.912,24.326-4.912Z" transform="translate(-258.77 -180.556)" fill="#464a5f"/><path d="M429.146,489.26l-3.616,15.449.692,2.8S430.109,491.4,429.146,489.26Z" transform="translate(-274.446 -254.802)" opacity="0.1"/><path d="M469.069,441.05s-1.811,14.383-13.639,18.549C455.43,459.6,465.2,450.921,469.069,441.05Z" transform="translate(-288.162 -232.274)" opacity="0.1"/><path d="M390,461.5s14.358-6.068,14.358-3.569S390,461.5,390,461.5Z" transform="translate(-258.141 -239.881)" opacity="0.1"/><path d="M446.73,437.326s10.017-7.016,12.185-5.231S446.73,437.326,446.73,437.326Z" transform="translate(-284.171 -227.954)" opacity="0.1"/><path d="M583.412,413.458c-.33-.24-.67-.49-1.022-.756l-.541-10.345v-.6s.919.357,2.362.932C585.866,405.111,587.6,409.346,583.412,413.458Z" transform="translate(-346.172 -213.915)" opacity="0.1"/><path d="M537.3,396.728l-16.05-2.019a17,17,0,0,0-2.595-.639,2.878,2.878,0,0,0-1.87.16c-.962.714-5.79.123-7.238-1.428a4.36,4.36,0,0,0-2.162-.863,43.358,43.358,0,0,0-7.5-.442s-4.654.357-5.709-.831-5.406-2.376-5.406-2.376l-4.584-3.335,2.892-20.685,4.108.948,4.941,3.686s2.416.6,2.9,1.31,3.379,1.9,3.379,1.9,2.411.948,3.741,1.428,4.1,1.065,4.1,1.065l4.946.836a11.266,11.266,0,0,1,5.676,1.545c2.768,1.667,16.407,6.185,16.407,6.185S545.173,390.309,537.3,396.728Z" transform="translate(-301.338 -196.396)" fill="#464a5f"/><path d="M540.393,403.34a7.369,7.369,0,0,1-2.162,3.031,2.878,2.878,0,0,0-1.87.16c-.962.714-5.79.123-7.238-1.422a4.312,4.312,0,0,0-2.162-.868c-.373-2.664-1.357-13.558,7.963-12.849C545.491,392.19,540.393,403.34,540.393,403.34Z" transform="translate(-320.879 -209.054)" opacity="0.1"/><path d="M540.393,404.01a7.369,7.369,0,0,1-2.162,3.031,2.877,2.877,0,0,0-1.87.16c-.962.714-5.79.122-7.238-1.428a4.36,4.36,0,0,0-2.162-.863c-.373-2.637-1.357-13.558,7.963-12.849C545.491,392.86,540.393,404.01,540.393,404.01Z" transform="translate(-320.879 -209.367)" fill="#464a5f"/><ellipse cx="0.541" cy="0.89" rx="0.541" ry="0.89" transform="translate(232.959 192.458)" fill="#6c63ff"/><ellipse cx="0.541" cy="0.89" rx="0.541" ry="0.89" transform="translate(234.047 192.815)" fill="#6c63ff"/><ellipse cx="0.541" cy="0.89" rx="0.541" ry="0.89" transform="translate(235.135 193.151)" fill="#6c63ff"/><path d="M506.21,375.85s.9.623-.768,2.541S506.21,375.85,506.21,375.85Z" transform="translate(-310.846 -201.807)" opacity="0.1"/><path d="M522.783,384.64s2.443,8.779.362,10.3S522.783,384.64,522.783,384.64Z" transform="translate(-318.765 -205.915)" opacity="0.1"/><ellipse cx="0.903" cy="0.89" rx="0.903" ry="0.89" transform="translate(132.906 264.721)" fill="#6c63ff"/><ellipse cx="0.903" cy="0.89" rx="0.903" ry="0.89" transform="translate(176.057 263.773)" fill="#6c63ff"/><path d="M382.89,587s9.19,8.321,21.24,0C404.13,587,390.772,589.663,382.89,587Z" transform="translate(-254.876 -300.475)" opacity="0.1"/><path d="M445.61,588.58s15.569.954,19.429-2.493S445.61,588.58,445.61,588.58Z" transform="translate(-283.654 -299.545)" opacity="0.1"/><path d="M376.64,627.87c.243.6,5.433,15.7,12.79,15.816Z" transform="translate(-252.011 -319.573)" opacity="0.1"/><path d="M480.49,599.08s-6.638,28.191-14.12,31.867Z" transform="translate(-293.181 -306.12)" opacity="0.1"/><path d="M361,786.8s14,2.85,12.309,4.16-10.147.948-10.147.948Z" transform="translate(-244.835 -393.839)" opacity="0.1"/><path d="M484.9,775.82s4.946,5.588,6.633,2.5S484.9,775.82,484.9,775.82Z" transform="translate(-301.686 -388.686)" opacity="0.1"/><path d="M467.434,797.355c1.081-.117,5.433.6,8.93,0s-8.109-1.9-9.536.24S467.434,797.355,467.434,797.355Z" transform="translate(-293.16 -398.331)" opacity="0.1"/><path d="M420.711,279.944a3.421,3.421,0,0,1-.541.682c-.481.469-1.081.794-1.535,1.3-.919,1.039-.838,2.482-.876,3.915a8.134,8.134,0,0,1-.178,1.715,4.828,4.828,0,0,1-3.46,3.479,7.022,7.022,0,0,0-2.968-2.988,1.262,1.262,0,0,0-.746-.2,1.292,1.292,0,0,0-.746.533,9.252,9.252,0,0,0-2.07,4.869,9.4,9.4,0,0,0,.065,2.61c.108.6.811,1.891.541,2.445-.422.831-2.525,1.065-4.044,1.247-.541.059-.978.112-1.265.176q-3.206.7-6.346,1.651l-.389.106c-.357-3.2-.865-6.536-1.254-8.9A14.036,14.036,0,0,1,395.371,278a14.522,14.522,0,0,1,25.334,1.95Z" transform="translate(-259.552 -153.03)" opacity="0.1"/><path d="M400.442,281.174a1.275,1.275,0,0,1,.746-.533,1.257,1.257,0,0,1,.746.2,7.1,7.1,0,0,1,2.973,2.989,4.828,4.828,0,0,0,3.444-3.479c.449-1.891-.238-4.16,1.054-5.636.438-.5,1.054-.826,1.535-1.295a4.313,4.313,0,0,0,1.157-2.525,6.156,6.156,0,0,0-2.227-5.5,14.093,14.093,0,0,1-2.7-2.131c-.973-1.364-.714-3.3-1.622-4.7-1.151-1.763-3.714-2.014-5.779-1.492s-3.968,1.6-6.076,1.891a25.935,25.935,0,0,1-5.055-.192,7.555,7.555,0,0,0-4.865.969c-1.708,1.183-2.4,3.356-3.892,4.794s-3.881,2.131-5.19,3.814a4.637,4.637,0,0,0-.632,4.422c.541,1.358,1.708,2.456,1.973,3.889.324,1.7-.7,3.617.184,5.114a2.66,2.66,0,0,1,2.611,2,8.264,8.264,0,0,1,0,3.511,7.153,7.153,0,0,0,.1,3.5,1.421,1.421,0,0,0,.416.623,2.127,2.127,0,0,0,1.033.288,4.735,4.735,0,0,1,2.811,1.492,5.8,5.8,0,0,0,.978,1.023c.9.607,2.119.3,3.168,0q3.141-.943,6.346-1.651c1.119-.25,4.746-.309,5.314-1.422.281-.533-.422-1.849-.541-2.445a9.314,9.314,0,0,1,2-7.458Z" transform="translate(-250.681 -146.19)" fill="#464a5f"/><path d="M377,487.53a2.22,2.22,0,0,1-2.1.336l4.438-13.936a6.826,6.826,0,0,1-.746-.485,12.563,12.563,0,0,1,4.206-.048C384.2,474.068,378.679,485.793,377,487.53Z" transform="translate(-251.214 -247.319)" opacity="0.1"/><path d="M367.03,486.851c-1.692,1.742-8.374-2.275-9.26-3.937a3.572,3.572,0,0,0-2.406-1.5,7.487,7.487,0,0,0-1.395-.186l4.708-7.628,1.514.128,1.108.1s10.136-1.785,11.542-1.113S368.7,485.114,367.03,486.851Z" transform="translate(-241.608 -246.997)" fill="#be6f72"/><path d="M360.152,474.658l-4.827,7.687a7.483,7.483,0,0,0-1.395-.186l4.708-7.629Z" transform="translate(-241.593 -247.919)" opacity="0.1"/><path d="M210.083,423.357l-7.422,11.816-1.865-1.22-1.076-.7,6.606-11.634,2.476,1.14Z" transform="translate(-91.641 -197.012)" fill="#6c63ff"/><path d="M208.8,422.76,200.8,433.952l-1.076-.7,6.606-11.634Z" transform="translate(-91.641 -197.012)" opacity="0.1"/><path d="M325.819,433.961l-8.93,12.487-15.563-8.678-12.433-9.221-.443-.181c-14.25-6-1.249-20.323-1.249-20.323a1.428,1.428,0,0,1,.281-.623c1.222-1.843,6-6.275,6-6.275l10.741-8.561,4.325-1.305,10.017,17.478-6.152,4.107s-2.054,1.481-3.243,1.481-5.373,4.991-5.373,4.991l3.562,3.1s3.135.357,3.86,1.9a4.626,4.626,0,0,0,1.935,2.131Z" transform="translate(-208.563 -209.018)" fill="#464a5f"/><path d="M309.23,432.545s9.293-1.529,9.774-.884S309.23,432.545,309.23,432.545Z" transform="translate(-221.176 -227.813)" opacity="0.1"/><path d="M309.23,442.17a14.721,14.721,0,0,0,3.865.474C315.387,442.644,309.23,442.17,309.23,442.17Z" transform="translate(-221.176 -232.798)" opacity="0.1"/><path d="M289.128,442.457c-14.25-6-1.249-20.323-1.249-20.323a1.429,1.429,0,0,1,.281-.623c2.633-.432,6.633.6,7.233,10.6C295.75,438.083,292.809,441.05,289.128,442.457Z" transform="translate(-208.875 -223.107)" opacity="0.1"/><path d="M288.458,442.457c-14.25-6-1.249-20.323-1.249-20.323a1.428,1.428,0,0,1,.281-.623c2.633-.432,6.633.6,7.233,10.6C295.08,438.083,292.139,441.05,288.458,442.457Z" transform="translate(-208.567 -223.107)" fill="#464a5f"/><g transform="translate(125.269 111.097)" opacity="0.1"><path d="M377.81,302.46a2.535,2.535,0,0,0,.26.629,1.962,1.962,0,0,1,.827.085A2.64,2.64,0,0,0,377.81,302.46Z" transform="translate(-377.81 -278.61)"/><path d="M383.692,320.9l-.292-.037a1.184,1.184,0,0,0,.346.464,2.127,2.127,0,0,0,1.033.288,4.666,4.666,0,0,1,1.357.421A4.761,4.761,0,0,0,383.692,320.9Z" transform="translate(-380.378 -287.208)"/><path d="M435.557,265.8a14.1,14.1,0,0,1-2.7-2.131c-.973-1.364-.714-3.3-1.622-4.7a3.507,3.507,0,0,0-1.562-1.284,3.271,3.271,0,0,1,.476.57c.919,1.4.659,3.335,1.622,4.7a12.161,12.161,0,0,0,2.7,2.131,6.156,6.156,0,0,1,2.227,5.5,4.312,4.312,0,0,1-1.157,2.525c-.481.469-1.081.794-1.535,1.295-1.287,1.476-.606,3.729-1.054,5.636a4.817,4.817,0,0,1-2.908,3.3,7.187,7.187,0,0,1,.541.89,4.828,4.828,0,0,0,3.444-3.479c.449-1.891-.238-4.161,1.054-5.636.438-.5,1.054-.826,1.535-1.294a4.313,4.313,0,0,0,1.157-2.525A6.155,6.155,0,0,0,435.557,265.8Z" transform="translate(-401.635 -257.69)"/><path d="M409.261,300.406a1.258,1.258,0,0,0-.746-.2,1.275,1.275,0,0,0-.746.533,9.313,9.313,0,0,0-2,7.458c.1.6.805,1.9.541,2.445-.568,1.113-4.2,1.172-5.314,1.422q-3.206.7-6.346,1.651a4.981,4.981,0,0,1-2.579.282,2.627,2.627,0,0,0,.5.447c.9.607,2.119.3,3.168,0q3.141-.943,6.346-1.651c1.119-.25,4.746-.309,5.314-1.422.281-.533-.422-1.849-.541-2.445a9.314,9.314,0,0,1,2-7.458,1.275,1.275,0,0,1,.746-.533,1.231,1.231,0,0,1,.741.192,7.229,7.229,0,0,0-1.081-.724Z" transform="translate(-384.361 -277.557)"/></g><ellipse cx="18.066" cy="3.01" rx="18.066" ry="3.01" transform="translate(28.746 396.131)" fill="#6c63ff" opacity="0.1"/><path d="M232.083,727.05s3.319,4.262-1.53,10.729-8.849,11.906-7.233,15.928c0,0,7.32-11.986,13.271-12.156S238.657,734.258,232.083,727.05Z" transform="translate(-181.54 -365.918)" fill="#7f39fb"/><path d="M232.246,727.05a5.3,5.3,0,0,1,.681,1.342c5.806,6.728,8.9,13,3.319,13.158-5.206.149-11.444,9.312-12.936,11.629.049.176.108.352.173.533,0,0,7.319-11.986,13.271-12.156S238.819,734.258,232.246,727.05Z" transform="translate(-181.703 -365.918)" opacity="0.1"/><path d="M250.6,736.435c0,1.5-.173,2.722-.384,2.722s-.384-1.22-.384-2.722.216-.8.427-.8S250.6,734.932,250.6,736.435Z" transform="translate(-193.887 -369.853)" fill="#ffd037"/><path d="M252.935,739.748c-1.341.719-2.508,1.156-2.611.975s.908-.916,2.249-1.635.811-.2.914,0S254.276,739.029,252.935,739.748Z" transform="translate(-194.111 -371.371)" fill="#ffd037"/><path d="M201.1,727.05s-3.319,4.262,1.53,10.729,8.844,11.906,7.228,15.928c0,0-7.314-11.986-13.266-12.156S194.552,734.258,201.1,727.05Z" transform="translate(-168.081 -365.918)" fill="#7f39fb"/><path d="M201.094,727.05a5.3,5.3,0,0,0-.681,1.342c-5.806,6.728-8.9,13.014-3.335,13.158,5.2.149,11.444,9.312,12.936,11.629a5.05,5.05,0,0,1-.178.533s-7.314-11.986-13.266-12.156S194.542,734.258,201.094,727.05Z" transform="translate(-168.071 -365.918)" opacity="0.1"/><path d="M196,736.435c0,1.5.173,2.722.384,2.722s.384-1.22.384-2.722-.216-.8-.427-.8S196,734.932,196,736.435Z" transform="translate(-169.157 -369.853)" fill="#ffd037"/><path d="M191.415,739.748c1.341.719,2.508,1.156,2.606.975s-.9-.916-2.243-1.635-.811-.2-.914,0S190.074,739.029,191.415,739.748Z" transform="translate(-166.674 -371.371)" fill="#ffd037"/><path d="M198,771.668s9.276-.282,12.071-2.243,14.266-4.3,14.963-1.156S238.971,783.91,228.5,784s-24.326-1.6-27.121-3.282S198,771.668,198,771.668Z" transform="translate(-170.075 -384.46)" fill="#5f5d7e"/><path d="M228.668,787.266c-10.471.08-24.326-1.6-27.121-3.287-2.124-1.273-2.973-5.86-3.244-7.959h-.314s.589,7.373,3.379,9.056,16.65,3.367,27.121,3.282c3.022,0,4.065-1.065,4.011-2.664C232.052,786.664,230.917,787.244,228.668,787.266Z" transform="translate(-170.071 -388.801)" opacity="0.2"/><ellipse cx="19.029" cy="3.17" rx="19.029" ry="3.17" transform="translate(362.613 408.57)" fill="#6c63ff" opacity="0.1"/><path d="M827.93,789.34s10.849-.33,14.12-2.626,16.7-5.034,17.509-1.353,16.31,18.309,4.055,18.405-28.467-1.88-31.732-3.841S827.93,789.34,827.93,789.34Z" transform="translate(-459.053 -392.325)" fill="#5f5d7e"/><path d="M863.854,807.538c-12.255.1-28.473-1.88-31.738-3.841-2.487-1.492-3.476-6.845-3.784-9.317h-.362s.686,8.625,3.952,10.585,19.461,3.937,31.732,3.841c3.541,0,4.763-1.268,4.692-3.106C867.833,806.824,866.486,807.5,863.854,807.538Z" transform="translate(-459.071 -397.38)" opacity="0.2"/><ellipse cx="20.726" cy="3.452" rx="20.726" ry="3.452" transform="translate(430.97 420.173)" fill="#7f39fb"/><path d="M980.507,825.506a5.976,5.976,0,0,0,1.979-2.941,2.6,2.6,0,0,0-1.384-2.994c-1.265-.474-2.622.389-3.649,1.268s-2.206,1.87-3.552,1.683a5.28,5.28,0,0,0,1.67-4.981,2.036,2.036,0,0,0-.465-1.012c-.7-.741-1.979-.426-2.822.16-2.7,1.859-3.427,5.444-3.444,8.678a16.107,16.107,0,0,1-.049-3.575,3.654,3.654,0,0,0-1.362-3.164,4.181,4.181,0,0,0-2.076-.479,4.357,4.357,0,0,0-3.373.943c-1.022,1.065-.757,2.893.135,4.081a13.078,13.078,0,0,0,3.487,2.749,7.72,7.72,0,0,1,2.492,2.344,2.1,2.1,0,0,1,.184.421h7.568A20.934,20.934,0,0,0,980.507,825.506Z" transform="translate(-520.242 -407.529)" fill="#7f39fb"/></g></svg>