<svg xmlns="http://www.w3.org/2000/svg" width="401.883" height="218.194" viewBox="0 0 401.883 218.194"><g transform="translate(0.296)"><ellipse cx="197.007" cy="13.042" rx="197.007" ry="13.042" transform="translate(4.909 192.11)" fill="#ebe9eb"/><path d="M490.973,324.894c-32.1,0-55.144,20.593-55.144,68.644,0,54.457,23.046,68.873,55.144,68.873s56.517-15.788,56.517-68.873C547.489,336.792,523.07,324.894,490.973,324.894Zm.211,119.44c-22.232,0-33.846-13.043-33.846-50.761,0-33.281,12.09-50.832,34.322-50.832s34.322,11.528,34.322,50.832c0,36.768-12.566,50.761-34.8,50.761Z" transform="translate(-296.607 -262.52)" fill="#505668"/><path d="M217.391,433.492H204.12v-39.08a7.826,7.826,0,0,0-7.827-7.827h-3.11a7.826,7.826,0,0,0-7.826,7.826v39.08H147.925a4.468,4.468,0,0,1-3.95-6.555l39.619-74.986a7.826,7.826,0,0,0-3.578-10.733l-2.339-1.1a7.826,7.826,0,0,0-10.244,3.387l-48.32,90.392a10.613,10.613,0,0,0-1.253,5h0a10.613,10.613,0,0,0,10.613,10.613h56.887V474.22a9.381,9.381,0,0,0,9.381,9.381h0a9.381,9.381,0,0,0,9.381-9.381V449.509h13.271A8.008,8.008,0,0,0,225.4,441.5h0a8.008,8.008,0,0,0-8.008-8.008Z" transform="translate(-97.39 -271.585)" fill="#7f39fb"/><path d="M875.388,433.492H862.116v-39.08a7.826,7.826,0,0,0-7.826-7.827h-3.11a7.826,7.826,0,0,0-7.826,7.826v39.08H805.921a4.468,4.468,0,0,1-3.95-6.555l39.619-74.986a7.826,7.826,0,0,0-3.578-10.733l-2.339-1.1a7.827,7.827,0,0,0-10.244,3.387l-48.32,90.392a10.613,10.613,0,0,0-1.253,5h0a10.612,10.612,0,0,0,10.612,10.613h56.887V474.22a9.381,9.381,0,0,0,9.381,9.381h0a9.381,9.381,0,0,0,9.381-9.381V449.509h13.271A8.008,8.008,0,0,0,883.4,441.5h0a8.008,8.008,0,0,0-8.009-8.008Z" transform="translate(-509.643 -271.585)" fill="#7f39fb"/><path d="M227.194,421.239H213.923v-39.08a7.826,7.826,0,0,0-7.826-7.826h-3.11a7.826,7.826,0,0,0-7.826,7.826v39.08H157.727a4.468,4.468,0,0,1-3.95-6.555L193.4,339.7a7.826,7.826,0,0,0-3.578-10.733l-2.339-1.1a7.826,7.826,0,0,0-10.244,3.387l-48.32,90.392a10.612,10.612,0,0,0-1.253,5h0a10.613,10.613,0,0,0,10.613,10.613H195.16v24.712a9.381,9.381,0,0,0,9.381,9.381h0a9.381,9.381,0,0,0,9.381-9.381V437.256h13.271a8.008,8.008,0,0,0,8.008-8.008h0a8.008,8.008,0,0,0-8.008-8.008Z" transform="translate(-103.532 -263.909)" fill="none" stroke="#3f3d56" stroke-miterlimit="10" stroke-width="1"/><path d="M893.767,421.239H880.5v-39.08a7.826,7.826,0,0,0-7.826-7.826H869.56a7.826,7.826,0,0,0-7.826,7.826v39.08H824.3a4.468,4.468,0,0,1-3.95-6.555L859.969,339.7a7.827,7.827,0,0,0-3.578-10.733l-2.339-1.1a7.826,7.826,0,0,0-10.244,3.387L795.487,421.64a10.613,10.613,0,0,0-1.253,5h0a10.613,10.613,0,0,0,10.613,10.613h56.887v24.712a9.381,9.381,0,0,0,9.381,9.381h0a9.381,9.381,0,0,0,9.381-9.381V437.256h13.271a8.008,8.008,0,0,0,8.008-8.008h0a8.008,8.008,0,0,0-8.009-8.008Z" transform="translate(-521.158 -263.909)" fill="none" stroke="#3f3d56" stroke-miterlimit="10" stroke-width="1"/><path d="M510.578,313.866c-32.1,0-55.144,20.593-55.144,68.644,0,54.457,23.046,68.872,55.144,68.872s56.517-15.788,56.517-68.872C567.094,325.764,542.675,313.866,510.578,313.866Zm.211,119.44c-22.232,0-33.846-13.043-33.846-50.761,0-33.281,12.09-50.832,34.322-50.832s34.322,11.528,34.322,50.832c0,36.768-12.566,50.761-34.8,50.761Z" transform="translate(-308.89 -255.611)" fill="none" stroke="#3f3d56" stroke-miterlimit="10" stroke-width="1"/><circle cx="4.818" cy="4.818" r="4.818" transform="translate(171.14 1.998)" fill="#2f2e41"/><ellipse cx="13.515" cy="17.51" rx="13.515" ry="17.51" transform="translate(174.196 0)" fill="#2f2e41"/><path d="M542.989,212.555c-6.77,0-12.377-6.45-13.361-14.866a22.745,22.745,0,0,0-.153,2.644c0,9.671,6.051,17.51,13.514,17.51S556.5,210,556.5,200.333a22.758,22.758,0,0,0-.153-2.644C555.367,206.105,549.76,212.555,542.989,212.555Z" transform="translate(-355.279 -182.823)" opacity="0.1"/><path d="M604.99,333.92c-.29,1.193-1.542,2.148-2.928,2.815-2.914,1.4-6.508,1.822-9.994,1.962a16.869,16.869,0,0,1-2.668-.049,7.67,7.67,0,0,1-4.575-2.1.628.628,0,0,1,.016-1.062c1.856-2.039,4.953-3.289,8.073-4.189,2.366-.682,6.492-2.45,9.072-2.212C604.485,329.314,605.356,332.415,604.99,333.92Z" transform="translate(-389.778 -265.131)" fill="#3f3d56"/><path d="M604.99,333.92c-.29,1.193-1.542,2.148-2.928,2.815-2.914,1.4-6.508,1.822-9.994,1.962a16.869,16.869,0,0,1-2.668-.049,7.67,7.67,0,0,1-4.575-2.1.628.628,0,0,1,.016-1.062c1.856-2.039,4.953-3.289,8.073-4.189,2.366-.682,6.492-2.45,9.072-2.212C604.485,329.314,605.356,332.415,604.99,333.92Z" transform="translate(-389.778 -265.131)" opacity="0.1"/><path d="M538.745,285.533a7.384,7.384,0,0,0-.448,5.63,9.837,9.837,0,0,0,3.3,4.667c3.77,3.022,8.959,3.438,13.79,3.4a106.327,106.327,0,0,0,12.663-.868,15.142,15.142,0,0,0,4.109-.954,6.3,6.3,0,0,0,3.524-3.558,4.334,4.334,0,0,0-1.17-4.7,7.353,7.353,0,0,0-4.294-1.174l-8.623-.518a14.624,14.624,0,0,1,3.024-1.976A13.634,13.634,0,0,0,567.908,282a48.17,48.17,0,0,1,5.019-5.16,7.409,7.409,0,0,0,2.5,4.043c1.2,1.111,2.58,2,3.826,3.063,3.017,2.561,5.19,6.038,8.363,8.4a16.369,16.369,0,0,0,5.994-2.992l-1.233-2.234a1.471,1.471,0,0,0-.465-.58c-.349-.215-.8-.1-1.2-.165-1.083-.162-1.557-1.413-1.982-2.423-1.167-2.772-3.4-4.922-5.31-7.247a36.609,36.609,0,0,1-3.733-5.5,18.808,18.808,0,0,0-2.1-3.362,4.732,4.732,0,0,0-3.413-1.785,6.573,6.573,0,0,0-3.255,1.189,86.084,86.084,0,0,0-8.825,6.013,20.42,20.42,0,0,1-4.664,3.053c-.727.3-1.494.5-2.192.856a14.656,14.656,0,0,0-3.149,2.638A20.93,20.93,0,0,1,538.745,285.533Z" transform="translate(-360.581 -225.657)" fill="#3f3d56"/><path d="M569.755,228.253a8.879,8.879,0,0,1-.647,3,3.752,3.752,0,0,1-2.154,2.081,4.622,4.622,0,0,1-2.1.068,4.063,4.063,0,0,1-1.711-.583,3.648,3.648,0,0,1-1.359-2.518c-.147-.97-.081-1.96-.175-2.937a16.032,16.032,0,0,0-.449-2.336c-.063-.255-.128-.509-.192-.763s-.123-.508-.18-.762c-.052-.239-.1-.478-.141-.719-.034-.2-.065-.408-.087-.613a6.881,6.881,0,0,0-.3-1.8,5.461,5.461,0,0,0-.63-1.066c-.107-.153-.21-.306-.306-.464a2.2,2.2,0,0,1-.363-1.4,1.224,1.224,0,0,1,.055-.224c.009-.028.02-.056.032-.083a.673.673,0,0,0,.459-.429,1.282,1.282,0,0,0-.055-.664,4.223,4.223,0,0,0-.358-.854c-.1-.179-.434-.5-.436-.705,0-.411.8-.743,1.125-.9a6.273,6.273,0,0,1,3.211-.651,2.368,2.368,0,0,1,1.874.863,5.653,5.653,0,0,1,.456,1.857.549.549,0,0,0,.112.248.5.5,0,0,0,.276.127,1.7,1.7,0,0,0,.529.021h0a1.1,1.1,0,0,0,.139-.02,1.852,1.852,0,0,0,.759-.328q.218-.058.441-.1l.018,0c.589,1.858.665,3.85,1.147,5.742a14.735,14.735,0,0,1,.629,2.839c0,.042,0,.086.006.129.007.311-.018.625,0,.935a2.6,2.6,0,0,0,.047.416,5.834,5.834,0,0,0,.2.651l0,.011c.022.068.044.138.061.207.013.051.025.1.034.15v0A5.579,5.579,0,0,1,569.755,228.253Z" transform="translate(-373.562 -192.363)" fill="#fbbebe"/><circle cx="6.934" cy="6.934" r="6.934" transform="translate(181.012 9.872)" fill="#fbbebe"/><path d="M616.68,251.35a11.371,11.371,0,0,0-1.956-5.267q.27,1.6.541,3.207a1.2,1.2,0,0,1-1.257-.387,3.859,3.859,0,0,1-.659-1.223,25.2,25.2,0,0,0-3.066-5.5c-4.414-.368-8.777-2.2-12.659-4.331s-7.516-4.688-11.348-6.91a16.271,16.271,0,0,0-2.071-1.058c-1.2-.481-2.544-.73-3.681-1.3-.076-.038-.153-.078-.228-.119a4.7,4.7,0,0,1-.726-.488,3.855,3.855,0,0,1-.348-.32,7.6,7.6,0,0,1-1.329-2.223c-.61-1.349-.827-2.977-1.436-4.326a4.181,4.181,0,0,1,.934-.659h0c.049-.026.1-.051.149-.074a4.459,4.459,0,0,1,.749-.274q.219-.058.441-.1l.018,0a4.319,4.319,0,0,1,2.051.162,9.483,9.483,0,0,1,2.592,1.6,42.578,42.578,0,0,1,3.79,3.006c.67.642,1.281,1.347,2,1.93a15.751,15.751,0,0,0,1.888,1.252l11.7,6.965c1.32.786,2.641,1.572,3.931,2.4,1.96,1.265,3.85,2.635,5.738,4l3.338,2.42a3.633,3.633,0,0,1,.946.874,3.164,3.164,0,0,1,.42,1.282A11.723,11.723,0,0,1,616.68,251.35Z" transform="translate(-384.715 -196.768)" fill="#fbbebe"/><path d="M556.084,237.972c-.468,2.1-2.588,3.366-3.7,5.208-1.377,2.287-.816,4.945-.3,7.565l-2.836,2.443c-.522.448-1.044.9-1.605,1.294a21.417,21.417,0,0,1-2.562,1.471l-2.51,1.292a12,12,0,0,1-2.457,1.041,9.469,9.469,0,0,1-5.031-.363,2.271,2.271,0,0,1-.55-.224.893.893,0,0,1-.261-.236,1.46,1.46,0,0,1-.166-.948,44.573,44.573,0,0,1,1.505-8.1,23.879,23.879,0,0,1,3.46-8.488,25.531,25.531,0,0,1,2.961-4.3,6.9,6.9,0,0,0,1.373-1.77,9.481,9.481,0,0,0,.341-3.08,6.407,6.407,0,0,1,.61-2.243h0a6.386,6.386,0,0,1,.651-1.076l.342.8q.113.261.223.521.145.335.287.668l.82,1.91a8.061,8.061,0,0,0,1.246,2.22,2.427,2.427,0,0,0,4.154-.318,7.94,7.94,0,0,0,.849-2.246,7.179,7.179,0,0,0,.094-2.926,34.588,34.588,0,0,0-1.657-5.52,5.58,5.58,0,0,1-.4-1.819,1.253,1.253,0,0,1,.021-.209l.011-.054a4.46,4.46,0,0,1,.749-.274q.219-.058.441-.1.763,4.132,1.529,8.264c.012.065.025.129.036.2.073.395.147.79.229,1.183.074.357.154.713.243,1.067l0,.011c.031.12.062.239.1.357v0c.09.324.192.646.306.964C555.323,234.062,556.528,235.987,556.084,237.972Z" transform="translate(-358.172 -196.868)" fill="#7f39fb"/><path d="M668.315,335.772a2.458,2.458,0,0,0,.228,1.174,2.811,2.811,0,0,0,2.376,1.048,70.356,70.356,0,0,0,15.785-.481,1.826,1.826,0,0,0,.8-.249c.743-.521.285-1.791-.526-2.2a10.2,10.2,0,0,0-2.665-.485,8.4,8.4,0,0,1-2.494-1.082q-2.708-1.556-5.338-3.245c-1.044-.67-2.275-1.386-3.451-.988C669.85,330.344,668.294,332.338,668.315,335.772Z" transform="translate(-442.264 -265.189)" fill="#3f3d56"/><path d="M527.721,230.812h0c-.008.049-.016.1-.027.146-.013.08-.028.161-.043.241-.146.746-.324,1.489-.53,2.227-.564,2.039-1.32,4.045-2.069,6.022l-6.037,15.9c-.508,1.335-1.014,2.671-1.591,3.979-.193.436-.391.875-.589,1.32a18.359,18.359,0,0,0-1.612,4.924,10.253,10.253,0,0,0-.072,3.376,3.464,3.464,0,0,0,1.953,2.6c.515.2,1.252.47,1.111,1-.076.294-.41.437-.71.487a2.731,2.731,0,0,1-2.228-.642c-.563-.5-1-1.276-1.744-1.36a2.95,2.95,0,0,0-1.47.471c-1.937.885-4.193.266-6.227-.363a2.185,2.185,0,0,1,1.809-1.531,14.633,14.633,0,0,1,2.509-.071,1.311,1.311,0,0,0,.763-.2,1.384,1.384,0,0,0,.411-.7,29.5,29.5,0,0,0,1.2-4.91c.27-1.743.383-3.513.768-5.234.3-1.343.763-2.644,1.16-3.963a83.916,83.916,0,0,0,1.89-8.245,29.145,29.145,0,0,0,.532-3.5c.067-.975.035-1.956.129-2.927a22.724,22.724,0,0,1,.789-3.734l1.078-3.992a13.424,13.424,0,0,1,2.453-5.543,5.214,5.214,0,0,1,3.745-1.789,3.689,3.689,0,0,1,.8.086l.13.033a3.226,3.226,0,0,1,.812.336c.416-.264.628-.172.9.236a2.605,2.605,0,0,1,.329,1.417A19.584,19.584,0,0,1,527.721,230.812Z" transform="translate(-340.467 -199.817)" fill="#fbbebe"/><path d="M560.447,232.137l-.018.018-.1.1-.945.944-.463-1.945-1.588-6.668a3.69,3.69,0,0,1,.8.086,1.229,1.229,0,0,1,.055-.224l.075.257.538,1.831,1.019,3.476.168.572h0Z" transform="translate(-372.736 -199.584)" fill="#6c63ff"/><path d="M556.477,180.2a4.7,4.7,0,0,1-1.382,3.322,4.6,4.6,0,0,1-.508.439,4.679,4.679,0,0,1-2.814.943h-5.638a4.7,4.7,0,0,1,0-9.4h5.638A4.717,4.717,0,0,1,556.477,180.2Z" transform="translate(-362.771 -168.923)" fill="#2f2e41"/><circle cx="4.818" cy="4.818" r="4.818" transform="translate(194.174 1.998)" fill="#2f2e41"/><path d="M595.258,163.234c-.059,0-.118,0-.176,0a4.817,4.817,0,0,1,0,9.628c.059,0,.117,0,.176,0a4.818,4.818,0,0,0,0-9.636Z" transform="translate(-396.384 -161.236)" opacity="0.1"/><path d="M526.112,163.234c.059,0,.118,0,.176,0a4.817,4.817,0,0,0,0,9.628c-.059,0-.117,0-.176,0a4.818,4.818,0,1,1,0-9.636Z" transform="translate(-350.153 -161.236)" opacity="0.1"/><path d="M557.754,198.159a4.679,4.679,0,0,1-2.814.943H549.3a4.679,4.679,0,0,1-2.814-.943Z" transform="translate(-365.938 -183.118)" opacity="0.1"/><path d="M674.14,288.274s1.215,3.5,2.326,2.568l-.886-4.575Z" transform="translate(-445.916 -238.32)" fill="#fbbebe"/><path d="M1061.331,552.139a7.773,7.773,0,1,0,1.035-14.907l.195,4-1.893-3.429a7.743,7.743,0,0,0-3.99,4.378,7.616,7.616,0,0,0-.447,2.1A7.771,7.771,0,0,0,1061.331,552.139Z" transform="translate(-685.293 -395.448)" fill="#57b894"/><path d="M1092.544,587.333c-.668-3.4,2.227-6.419,5.087-8.379s6.2-3.887,7.177-7.214c1.4-4.782-2.775-9.161-6.026-12.938a46.807,46.807,0,0,1-6.171-9.172,12.624,12.624,0,0,1-1.476-4.17,14.394,14.394,0,0,1,1.11-6.251q3.428-10.1,7.331-20.037" transform="translate(-707.139 -384.241)" fill="none" stroke="#3f3d56" stroke-miterlimit="10" stroke-width="1"/><path d="M1062.181,549.381a7.773,7.773,0,1,0,1.035-14.907l.195,4-1.893-3.429a7.743,7.743,0,0,0-3.99,4.378,7.61,7.61,0,0,0-.447,2.1A7.771,7.771,0,0,0,1062.181,549.381Z" transform="translate(-685.826 -393.72)" fill="none" stroke="#3f3d56" stroke-miterlimit="10" stroke-width="1"/><path d="M1091.667,506.884a7.764,7.764,0,0,1,5.594-4.929l.64,3.8,1.186-3.995a7.772,7.772,0,1,1-7.421,5.12Z" transform="translate(-707.215 -373.334)" fill="#57b894"/><path d="M1092.807,503.206a7.764,7.764,0,0,1,5.594-4.929l.64,3.8,1.187-3.995a7.772,7.772,0,1,1-7.421,5.12Z" transform="translate(-707.929 -371.03)" fill="none" stroke="#3f3d56" stroke-miterlimit="10" stroke-width="1"/><path d="M1099.444,600.19a7.772,7.772,0,0,0,6.879-13.827l-.912,3.07-.646-3.848-.02-.007a7.772,7.772,0,0,0-5.3,14.613Z" transform="translate(-709.17 -425.552)" fill="#57b894"/><path d="M1100.444,596.464a7.772,7.772,0,0,0,6.879-13.827l-.912,3.07-.647-3.848-.02-.008a7.772,7.772,0,1,0-5.3,14.613Z" transform="translate(-709.796 -423.218)" fill="none" stroke="#3f3d56" stroke-miterlimit="10" stroke-width="1"/><path d="M1086.18,644.762a7.769,7.769,0,1,0,1.5-6.087l3.463,5.212-4.732-2.766A7.7,7.7,0,0,0,1086.18,644.762Z" transform="translate(-703.995 -457.216)" fill="#57b894"/><path d="M1087.03,642a7.769,7.769,0,1,0,1.5-6.087l3.463,5.212-4.732-2.767A7.7,7.7,0,0,0,1087.03,642Z" transform="translate(-704.527 -455.489)" fill="none" stroke="#3f3d56" stroke-miterlimit="10" stroke-width="1"/><path d="M66.418,611.514a5.107,5.107,0,1,0,.68-9.794l.128,2.629L65.983,602.1a5.088,5.088,0,0,0-2.622,2.877,5.007,5.007,0,0,0-.294,1.381,5.106,5.106,0,0,0,3.351,5.161Z" transform="translate(-63.054 -435.888)" fill="#57b894"/><path d="M86.924,634.637c-.439-2.235,1.463-4.217,3.342-5.505s4.075-2.554,4.716-4.74c.921-3.142-1.823-6.019-3.959-8.5a30.745,30.745,0,0,1-4.055-6.026,8.3,8.3,0,0,1-.97-2.74,9.457,9.457,0,0,1,.73-4.107q2.252-6.638,4.816-13.165" transform="translate(-77.406 -428.525)" fill="none" stroke="#3f3d56" stroke-miterlimit="10" stroke-width="1"/><path d="M66.982,609.7a5.107,5.107,0,1,0,.68-9.794l.128,2.629-1.244-2.253a5.088,5.088,0,0,0-2.622,2.877,5.007,5.007,0,0,0-.294,1.381,5.106,5.106,0,0,0,3.351,5.16Z" transform="translate(-63.407 -434.753)" fill="none" stroke="#3f3d56" stroke-miterlimit="10" stroke-width="1"/><path d="M86.352,581.78a5.1,5.1,0,0,1,3.676-3.238l.42,2.5.78-2.624a5.106,5.106,0,1,1-4.876,3.364Z" transform="translate(-77.459 -421.359)" fill="#57b894"/><path d="M87.1,579.364a5.1,5.1,0,0,1,3.676-3.238l.42,2.5.78-2.624a5.106,5.106,0,1,1-4.876,3.364Z" transform="translate(-77.929 -419.845)" fill="none" stroke="#3f3d56" stroke-miterlimit="10" stroke-width="1"/><path d="M91.464,643.084A5.106,5.106,0,0,0,95.983,634l-.6,2.017-.425-2.528-.013,0a5.107,5.107,0,1,0-3.483,9.6Z" transform="translate(-78.744 -455.667)" fill="#57b894"/><path d="M92.114,640.637a5.106,5.106,0,0,0,4.52-9.085l-.6,2.017-.425-2.528-.013,0a5.107,5.107,0,1,0-3.483,9.6Z" transform="translate(-79.152 -454.134)" fill="none" stroke="#3f3d56" stroke-miterlimit="10" stroke-width="1"/><path d="M82.744,672.369a5.1,5.1,0,1,0,.984-4L86,671.794l-3.109-1.818A5.059,5.059,0,0,0,82.744,672.369Z" transform="translate(-75.341 -476.471)" fill="#57b894"/><path d="M83.307,670.557a5.1,5.1,0,1,0,.984-4l2.275,3.425-3.109-1.818A5.059,5.059,0,0,0,83.307,670.557Z" transform="translate(-75.694 -475.336)" fill="none" stroke="#3f3d56" stroke-miterlimit="10" stroke-width="1"/><ellipse cx="6.454" cy="8.137" rx="6.454" ry="8.137" transform="translate(173.258 111.18)" fill="#505668"/><ellipse cx="6.349" cy="8.216" rx="6.349" ry="8.216" transform="translate(207.818 111.152)" fill="#505668"/><path d="M584.655,531.222c0,3.712-5.184,6.722-11.578,6.722s-11.578-3.01-11.578-6.722c0-3.216,3.888-5.9,9.083-6.562a18.714,18.714,0,0,1,2.495-.161,18.935,18.935,0,0,1,4.157.448C581.574,525.915,584.655,528.362,584.655,531.222Z" transform="translate(-375.344 -387.579)" fill="#505668"/><ellipse cx="6.173" cy="8.418" rx="6.173" ry="8.418" transform="translate(174.942 108.935)" fill="none" stroke="#3f3d56" stroke-miterlimit="10" stroke-width="1"/><ellipse cx="6.349" cy="8.216" rx="6.349" ry="8.216" transform="translate(209.312 109.284)" fill="none" stroke="#3f3d56" stroke-miterlimit="10" stroke-width="1"/><ellipse cx="11.578" cy="6.723" rx="11.578" ry="6.723" transform="translate(187.65 135.054)" fill="none" stroke="#3f3d56" stroke-miterlimit="10" stroke-width="1"/><path d="M592.095,525.195a1.844,1.844,0,0,1-.493,1.267,1.62,1.62,0,0,1-1.188.526h-3.735A1.742,1.742,0,0,1,585,525.195a1.832,1.832,0,0,1,.306-1.024A17.577,17.577,0,0,1,587.8,524a17.8,17.8,0,0,1,4.157.478A1.894,1.894,0,0,1,592.095,525.195Z" transform="translate(-390.066 -387.266)" fill="#fff"/><circle cx="1.684" cy="1.684" r="1.684" transform="translate(179.431 113.425)" fill="#fff"/><circle cx="1.684" cy="1.684" r="1.684" transform="translate(214.225 113.425)" fill="#fff"/><circle cx="1.964" cy="1.964" r="1.964" transform="translate(215.909 130.821)" fill="#6c63ff" opacity="0.3"/><ellipse cx="1.684" cy="1.964" rx="1.684" ry="1.964" transform="translate(170.452 130.821)" fill="#6c63ff" opacity="0.3"/></g></svg>