<svg xmlns="http://www.w3.org/2000/svg" width="459.089" height="500.573" viewBox="0 0 459.089 500.573"><g transform="translate(-882.911 -191.427)"><path d="M720.4,212.5h0V137.209A43.781,43.781,0,0,0,676.42,93.632h-161a43.781,43.781,0,0,0-43.982,43.578V550.267a43.781,43.781,0,0,0,43.982,43.577h161A43.781,43.781,0,0,0,720.4,550.267V266.1h0l0-26.786Z" transform="translate(411.474 97.795)" fill="#505668"/><path d="M714.54,137.11V557.159A33.249,33.249,0,0,1,681.2,590.3H516.889a33.256,33.256,0,0,1-33.368-33.142V137.11a33.255,33.255,0,0,1,33.366-33.136h75.182c-1.987,4.855,0,2.728,0,8.2s-5.276-8.2,0-8.2h0c5.276-.007-2.487.09,0,0s1.987,4.855,0,0h89.119A33.249,33.249,0,0,1,714.54,137.1Z" transform="translate(408.368 94.398)" fill="#fff"/><g transform="translate(932 254)"><path d="M418.106,403.521c-38.955.013-70.547-28.516-70.565-63.724v-.057c0-.134,0-.274.009-.408.213-34.926,31.869-63.368,70.556-63.368,38.976,0,70.569,28.554,70.569,63.777s-31.593,63.777-70.565,63.777h0Zm0-126.214c-37.957.077-68.768,27.764-69.07,62.069-.008.142-.008.257-.008.365,0,34.495,30.933,62.451,69.09,62.45S487.2,374.234,487.2,339.747s-30.933-62.441-69.09-62.44Z" transform="translate(-347.541 -275.965)" fill="#ebe9eb"/></g><path d="M455.529,574.574h-146a2.586,2.586,0,0,1-2.7-2.443V539.4a2.587,2.587,0,0,1,2.7-2.444h146a2.587,2.587,0,0,1,2.7,2.444v32.734a2.587,2.587,0,0,1-2.7,2.444Zm-146-36.643A1.552,1.552,0,0,0,307.9,539.4v32.734a1.552,1.552,0,0,0,1.622,1.467h146a1.552,1.552,0,0,0,1.623-1.466V539.4a1.552,1.552,0,0,0-1.622-1.466Z" transform="translate(620.364 -103.141)" fill="#ebe9eb"/><ellipse cx="11.356" cy="10.263" rx="11.356" ry="10.263" transform="translate(938.603 442.32)" fill="#7f39fb"/><path d="M396.741,562.313a1.719,1.719,0,1,0,0,3.421h89.224a1.72,1.72,0,1,0,.062-3.421H396.741Z" transform="translate(590.944 -117.107)" fill="#ebe9eb"/><path d="M396.741,584.061a1.719,1.719,0,1,0,0,3.421h89.224a1.72,1.72,0,1,0,.062-3.421H396.741Z" transform="translate(590.944 -127.598)" fill="#ebe9eb"/><path d="M455.529,690.564h-146a2.586,2.586,0,0,1-2.7-2.443V655.387a2.587,2.587,0,0,1,2.7-2.444h146a2.587,2.587,0,0,1,2.7,2.444v32.734a2.587,2.587,0,0,1-2.7,2.443Zm-146-36.643a1.552,1.552,0,0,0-1.622,1.466v32.734a1.552,1.552,0,0,0,1.622,1.466h146a1.552,1.552,0,0,0,1.623-1.466V655.387a1.552,1.552,0,0,0-1.622-1.466Z" transform="translate(620.364 -158.655)" fill="#ebe9eb"/><ellipse cx="11.356" cy="10.263" rx="11.356" ry="10.263" transform="translate(938.603 502.57)" fill="#7f39fb"/><path d="M396.741,678.3a1.719,1.719,0,1,0,0,3.421h89.224a1.72,1.72,0,1,0,.062-3.421H396.741Z" transform="translate(590.944 -173.053)" fill="#ebe9eb"/><path d="M396.741,700.051a1.719,1.719,0,1,0,0,3.421h89.224a1.716,1.716,0,1,0,.062-3.421H396.741Z" transform="translate(590.943 -183.544)" fill="#ebe9eb"/><path d="M455.529,574.574h-146a2.586,2.586,0,0,1-2.7-2.443V539.4a2.587,2.587,0,0,1,2.7-2.444h146a2.587,2.587,0,0,1,2.7,2.444v32.734a2.587,2.587,0,0,1-2.7,2.444Zm-146-36.643A1.552,1.552,0,0,0,307.9,539.4v32.734a1.552,1.552,0,0,0,1.622,1.467h146a1.552,1.552,0,0,0,1.623-1.466V539.4a1.552,1.552,0,0,0-1.622-1.466Z" transform="translate(620.364 17.811)" fill="#ebe9eb"/><ellipse cx="11.356" cy="10.263" rx="11.356" ry="10.263" transform="translate(938.603 562.822)" fill="#7f39fb"/><path d="M396.741,562.313a1.719,1.719,0,1,0,0,3.421h89.224a1.72,1.72,0,1,0,.062-3.421H396.741Z" transform="translate(590.944 2.978)" fill="#ebe9eb"/><path d="M396.741,584.061a1.719,1.719,0,1,0,0,3.421h89.224a1.72,1.72,0,1,0,.062-3.421H396.741Z" transform="translate(590.944 -7.512)" fill="#ebe9eb"/><g transform="translate(1201.677 379.465)"><path d="M611.031,716.088h-8.847l-4.208-30.838h13.056Z" transform="translate(-584.763 -411.304)" fill="#feb8b8"/><path d="M770.217,815.677H741.693v-.326c0-5.541,4.97-10.033,11.1-10.034h17.424Z" transform="translate(-741.693 -503.143)" fill="#505668"/><path d="M756.453,708.688l-8.613,1.832-11.918-29.148,12.708-2.7Z" transform="translate(-620.292 -409.138)" fill="#feb8b8"/><path d="M920.932,807l-27.764,5.907-.082-.317c-1.407-5.4,2.292-10.8,8.262-12.07h0l16.958-3.609Z" transform="translate(-780.609 -500.378)" fill="#505668"/><path d="M769.319,588.85c.017-1.605.543-39.534,12.046-53.874l.17-.212,40.086,5-.9,7.961c1.763,1.55,15.632,14.649,19.637,45.666l42.55,103.281-19.78,1.625L804.577,585.55,773.591,708.1H753.985Z" transform="translate(-744.859 -414.138)" fill="#505668"/><path d="M784.539,506.237l3.918-18.593c-.767-.892-4.166-5.178-3.41-10.2.494-3.278,2.658-6.152,6.435-8.545l10.158-21.419.137-.073c.684-.364,16.855-8.816,25.672-.842.22.154,21.926,15.73,13.212,36.736l-10.76,29.18Z" transform="translate(-752.728 -383.999)" fill="#7f39fb"/><path d="M763.342,561.715a7.416,7.416,0,0,0,5.245-2.911,6.045,6.045,0,0,0,.9-5.5l20.975-13.658L777.9,535.326l-17.993,13.631a6.508,6.508,0,0,0-4.536,7.752,7.305,7.305,0,0,0,7.967,5.006Z" transform="translate(-745.164 -414.322)" fill="#feb8b8"/><path d="M771.369,509.664l32.021-22.8-9.519-29.4a9.683,9.683,0,0,1,1.18-8.359,10.816,10.816,0,0,1,7.087-4.623c5.482-1.048,10.458,1.726,14.788,8.247l.033.059c.716,1.583,17.4,38.853,4.661,46.824-12.46,7.8-41.353,19.146-41.644,19.261l-.339.132Z" transform="translate(-749.337 -384.367)" fill="#7f39fb"/><ellipse cx="19.398" cy="17.532" rx="19.398" ry="17.532" transform="translate(45.192 19.747)" fill="#feb8b8"/><ellipse cx="17.161" cy="15.51" rx="17.161" ry="15.51" transform="translate(77.841 0)" fill="#505668"/><path d="M880.4,390.144a18.688,18.688,0,0,1-15.575,2.111A16.336,16.336,0,0,1,853.9,382c.806,5.8,5.152,10.7,11.243,12.672a18.53,18.53,0,0,0,17.588-3.342,14.532,14.532,0,0,0,4.646-15.691,14.911,14.911,0,0,1-6.98,14.5Z" transform="translate(-770.593 -361.79)" fill="#505668"/><path d="M798.37,391.26c3-4.847,4.142-6.87,8.005-9.823,3.416-2.607,7.618-3.373,11.007-.9,8.475-3.344,18.379-1.122,24.139,5.417a17.064,17.064,0,0,1,.431,22.476c-5.506,6.715-15.319,9.246-23.917,6.169S804.2,403.6,805.274,395.3C802.328,394.929,801.316,391.636,798.37,391.26Z" transform="translate(-756.291 -362.89)" fill="#505668"/></g><g transform="translate(966 274)"><rect width="35.535" height="3.423" transform="translate(0 34.482)" fill="#ebe9eb"/><rect width="53.632" height="3.423" transform="translate(0 49.991)" fill="#7f39fb"/><rect width="48.367" height="3.423" transform="translate(0 61.311)" fill="#ebe9eb"/><rect width="74.689" height="3.423" transform="translate(0 72.332)" fill="#7f39fb"/><rect width="60.87" height="3.423" transform="translate(0.776 82.828)" fill="#ebe9eb"/><path d="M197.91,123.086c-7.267,0-13.157,5.546-13.157,12.387s5.89,12.387,13.157,12.387,13.156-5.546,13.156-12.387h0c0-6.841-5.89-12.387-13.156-12.387Zm0,3.716a3.723,3.723,0,1,1-3.947,3.716h0a3.836,3.836,0,0,1,3.947-3.716Zm0,17.89a9.758,9.758,0,0,1-7.894-3.966c.063-2.477,5.263-3.841,7.894-3.841s7.83,1.364,7.894,3.841a9.774,9.774,0,0,1-7.894,3.966Z" transform="translate(-161.43 -123.085)" fill="#7f39fb"/></g></g></svg>